<mxfile modified="2023-06-09T14:01:36.466Z" host="app.diagrams.net" agent="Mozilla/5.0 (Macintosh; Intel Mac OS X 10_15_7) AppleWebKit/537.36 (KHTML, like Gecko) Chrome/114.0.0.0 Safari/537.36" etag="oga4FMFmMmfqK47QFKSl" version="21.3.8" type="github">
  <diagram id="DU3acH7bdgciBLe8fEct" name="Page-2">
    <mxGraphModel dx="2284" dy="759" grid="1" gridSize="10" guides="1" tooltips="1" connect="1" arrows="1" fold="1" page="1" pageScale="1" pageWidth="850" pageHeight="1100" math="0" shadow="0">
      <root>
        <mxCell id="0" />
        <mxCell id="1" parent="0" />
        <mxCell id="gNoDSgEm0qHazXfeq4_1-175" value="External SaaS&#xa;Providers" style="sketch=0;points=[[0,0,0],[0.25,0,0],[0.5,0,0],[0.75,0,0],[1,0,0],[1,0.25,0],[1,0.5,0],[1,0.75,0],[1,1,0],[0.75,1,0],[0.5,1,0],[0.25,1,0],[0,1,0],[0,0.75,0],[0,0.5,0],[0,0.25,0]];rounded=1;absoluteArcSize=1;arcSize=2;html=1;strokeColor=none;gradientColor=none;shadow=0;dashed=0;fontSize=12;fontColor=#9E9E9E;align=left;verticalAlign=top;spacing=10;spacingTop=-4;whiteSpace=wrap;fillColor=#FFEBEE;" vertex="1" parent="1">
          <mxGeometry x="-350" y="40" width="180" height="680" as="geometry" />
        </mxCell>
        <mxCell id="gNoDSgEm0qHazXfeq4_1-174" value="GCP" style="sketch=0;points=[[0,0,0],[0.25,0,0],[0.5,0,0],[0.75,0,0],[1,0,0],[1,0.25,0],[1,0.5,0],[1,0.75,0],[1,1,0],[0.75,1,0],[0.5,1,0],[0.25,1,0],[0,1,0],[0,0.75,0],[0,0.5,0],[0,0.25,0]];rounded=1;absoluteArcSize=1;arcSize=2;html=1;strokeColor=none;gradientColor=none;shadow=0;dashed=0;fontSize=12;fontColor=#9E9E9E;align=left;verticalAlign=top;spacing=10;spacingTop=-4;whiteSpace=wrap;fillColor=#F1F8E9;" vertex="1" parent="1">
          <mxGeometry x="-120" y="40" width="1230" height="680" as="geometry" />
        </mxCell>
        <mxCell id="gNoDSgEm0qHazXfeq4_1-1" value="BigQuery" style="sketch=0;html=1;verticalAlign=top;labelPosition=center;verticalLabelPosition=bottom;align=center;spacingTop=-6;fontSize=11;fontStyle=1;fontColor=#999999;shape=image;aspect=fixed;imageAspect=0;image=data:image/svg+xml,PHN2ZyB4bWxucz0iaHR0cDovL3d3dy53My5vcmcvMjAwMC9zdmciIHhtbG5zOnY9Imh0dHBzOi8vdmVjdGEuaW8vbmFubyIgd2lkdGg9IjIwLjAwMTA0NTIyNzA1MDc4IiBoZWlnaHQ9IjIwLjAwMTA0NTIyNzA1MDc4IiBmaWxsLXJ1bGU9ImV2ZW5vZGQiIHZpZXdCb3g9IjAgMCAyMC4wMDEwNDUyMjcwNTA3OCAyMC4wMDEwNDUyMjcwNTA3OCI+JiN4YTsJPHN0eWxlIHR5cGU9InRleHQvY3NzIj4mI3hhOwkuc3Qwe2ZpbGw6I2FlY2JmYTt9JiN4YTsJLnN0MXtmaWxsOiM2NjlkZjY7fSYjeGE7CS5zdDJ7ZmlsbDojNDI4NWY0O30mI3hhOwk8L3N0eWxlPiYjeGE7CTxwYXRoIGNsYXNzPSJzdDAiIGQ9Ik00LjczIDguODN2Mi42M2E0LjkxIDQuOTEgMCAwIDAgMS43MSAxLjc0VjguODN6Ii8+JiN4YTsJPHBhdGggY2xhc3M9InN0MSIgZD0iTTcuODkgNi40MXY3LjUzQTcuNjIgNy42MiAwIDAgMCA5IDE0YTggOCAwIDAgMCAxIDBWNi40MXoiLz4mI3hhOwk8cGF0aCBjbGFzcz0ic3QwIiBkPSJNMTEuNjQgOS44NnYzLjI5YTUgNSAwIDAgMCAxLjctMS44MlY5Ljg2eiIvPiYjeGE7CTxwYXRoIGNsYXNzPSJzdDIiIGQ9Ik0xNS43NCAxNC4zMmwtMS40MiAxLjQyYS40Mi40MiAwIDAgMCAwIC42bDMuNTQgMy41NGEuNDIuNDIgMCAwIDAgLjU5IDBsMS40My0xLjQzYS40Mi40MiAwIDAgMCAwLS41OWwtMy41NC0zLjU0YS40Mi40MiAwIDAgMC0uNiAwIi8+JiN4YTsJPHBhdGggY2xhc3M9InN0MSIgZD0iTTkgMGE5IDkgMCAxIDAgMCAxOEE5IDkgMCAxIDAgOSAwbTAgMTUuNjlhNi42OCA2LjY4IDAgMCAxIC4wMDctMTMuMzYgNi42OCA2LjY4IDAgMCAxIDQuNzI3IDExLjQwM0E2LjY4IDYuNjggMCAwIDEgOSAxNS42OSIvPiYjeGE7PC9zdmc+;" vertex="1" parent="1">
          <mxGeometry x="298.1" y="70" width="42" height="42" as="geometry" />
        </mxCell>
        <mxCell id="gNoDSgEm0qHazXfeq4_1-2" value="" style="strokeColor=#dddddd;shadow=1;strokeWidth=1;rounded=1;absoluteArcSize=1;arcSize=2;" vertex="1" parent="1">
          <mxGeometry x="-30" y="70" width="120" height="60" as="geometry" />
        </mxCell>
        <mxCell id="gNoDSgEm0qHazXfeq4_1-3" value="Cloud&#xa;Storage" style="editableCssRules=.*;html=1;fontColor=#999999;shape=image;verticalLabelPosition=middle;labelBackgroundColor=#ffffff;verticalAlign=middle;labelPosition=right;align=left;spacingLeft=20;part=1;points=[];imageAspect=0;image=data:image/svg+xml,PHN2ZyB4bWxucz0iaHR0cDovL3d3dy53My5vcmcvMjAwMC9zdmciIHhtbG5zOnY9Imh0dHBzOi8vdmVjdGEuaW8vbmFubyIgd2lkdGg9IjIwIiBoZWlnaHQ9IjE2IiB2aWV3Qm94PSIwIDAgMjAgMTYiPiYjeGE7CTxzdHlsZSB0eXBlPSJ0ZXh0L2NzcyI+JiN4YTsJLnN0MHtmaWxsOiM0Mjg1ZjQ7fSYjeGE7CS5zdDF7ZmlsbDojNjY5ZGY2O30mI3hhOwkuc3Qye2ZpbGw6I2FlY2JmYTt9JiN4YTsJLnN0M3tmaWxsOiNmZmY7fSYjeGE7CTwvc3R5bGU+JiN4YTsJPHBhdGggY2xhc3M9InN0MiIgZD0iTTAgMGgyMHY3SDB6Ii8+JiN4YTsJPHBhdGggY2xhc3M9InN0MSIgZD0iTTE4IDBoMnY3aC0yeiIvPiYjeGE7CTxwYXRoIGNsYXNzPSJzdDAiIGQ9Ik0xOCA3bDItN2gtMnoiLz4mI3hhOwk8cGF0aCBjbGFzcz0ic3QxIiBkPSJNMCAwaDJ2N0gweiIvPiYjeGE7CTxnIGNsYXNzPSJzdDMiPiYjeGE7CQk8cGF0aCBkPSJNNCAzaDZ2MUg0eiIvPiYjeGE7CQk8cmVjdCB4PSIxMyIgeT0iMiIgd2lkdGg9IjMiIGhlaWdodD0iMyIgcng9IjEuNSIvPiYjeGE7CTwvZz4mI3hhOwk8cGF0aCBjbGFzcz0ic3QyIiBkPSJNMCA5aDIwdjdIMHoiLz4mI3hhOwk8cGF0aCBjbGFzcz0ic3QxIiBkPSJNMTggOWgydjdoLTJ6Ii8+JiN4YTsJPHBhdGggY2xhc3M9InN0MCIgZD0iTTE4IDE2bDItN2gtMnoiLz4mI3hhOwk8cGF0aCBjbGFzcz0ic3QxIiBkPSJNMCA5aDJ2N0gweiIvPiYjeGE7CTxnIGNsYXNzPSJzdDMiPiYjeGE7CQk8cGF0aCBkPSJNNCAxMmg2djFINHoiLz4mI3hhOwkJPHJlY3QgeD0iMTMiIHk9IjExIiB3aWR0aD0iMyIgaGVpZ2h0PSIzIiByeD0iMS41Ii8+JiN4YTsJPC9nPiYjeGE7PC9zdmc+;" vertex="1" parent="gNoDSgEm0qHazXfeq4_1-2">
          <mxGeometry width="30" height="24" relative="1" as="geometry">
            <mxPoint x="15" y="18" as="offset" />
          </mxGeometry>
        </mxCell>
        <mxCell id="gNoDSgEm0qHazXfeq4_1-8" value="" style="sketch=0;outlineConnect=0;fontColor=#232F3E;gradientColor=none;fillColor=#067F68;strokeColor=none;dashed=0;verticalLabelPosition=bottom;verticalAlign=top;align=center;html=1;fontSize=12;fontStyle=0;aspect=fixed;shape=mxgraph.aws4.transfer_for_sftp_resource;" vertex="1" parent="1">
          <mxGeometry x="-280" y="172" width="76" height="78" as="geometry" />
        </mxCell>
        <mxCell id="gNoDSgEm0qHazXfeq4_1-10" value="Rest API" style="sketch=0;outlineConnect=0;fontColor=#232F3E;gradientColor=none;fillColor=#3F8624;strokeColor=none;dashed=0;verticalLabelPosition=bottom;verticalAlign=top;align=center;html=1;fontSize=12;fontStyle=0;aspect=fixed;pointerEvents=1;shape=mxgraph.aws4.http_protocol;" vertex="1" parent="1">
          <mxGeometry x="-280" y="310" width="78" height="78" as="geometry" />
        </mxCell>
        <mxCell id="gNoDSgEm0qHazXfeq4_1-11" value="DB" style="strokeWidth=2;html=1;shape=mxgraph.flowchart.database;whiteSpace=wrap;" vertex="1" parent="1">
          <mxGeometry x="-271" y="450" width="60" height="60" as="geometry" />
        </mxCell>
        <mxCell id="gNoDSgEm0qHazXfeq4_1-12" value="" style="shape=image;verticalLabelPosition=bottom;labelBackgroundColor=default;verticalAlign=top;aspect=fixed;imageAspect=0;image=data:image/png,iVBORw0KGgoAAAANSUhEUgAAAPAAAADwCAYAAAA+VemSAAAABHNCSVQICAgIfAhkiAAAG+xJREFUeJzt3XucXFWVL/DfOo86VZV0B5J85H58cUGZ6wzXSzroZ9DhdUNi5JWOVx0ctBtGP2oqqIyRDnMdMCCOA2lUUKY7Phm68cNDEapBBJIwIDroFVINDI6IgAPhIUM6kKTrcc7Ze90/qgsCJJCk9z6n6vT6fgx/qKy9U92r1jl773UOIIQQQgghhBBCCCGEEEIIIYQQQgghhBBCCCGEEEIIIYQQQgghhBBCCCGEEEIIIYQQQgghZh6yFbg8zh8AcAqA0NYYe4QBABEBTzCgHMJjrLF52UJ6GMCTqc5NiGnybAUmYKGK41Nsxd9bzM1M1tT8zrr+nghxHMHz/Mddz7uXgbuVxq3/ZyE9gFbaC9HmrFXgsQqfF8fRGlvxTSEiMFofBKHRqNWLxdl3gHG1JtyyvIf+lO4Mhdg9x2LsjqhizAwwg5nBrBEE+bxS8fuVVv9Sn9z2zFiFN5Yr/GEAs9KeqxCvZO0SulO1LrUBRi4oIlbxIgIWjVV4AsDl7OKS3v9Fm9OcoxAtNiuwtcvz5LxUnWMVz1Uq/kJYrf2xXOGR6+/j/5727ISY8ZfQe2wqkV3Xd7WK++Jq9bGxcR4GkEt7amLmspnAGTWVyJ4PFccrrvm37bXyOJfSnpWYmSSBp4GZ4ft5Rys1VN7E/wHggLTnJGYWSeBpY7DW0Fq945pfbn+mXOFPpT0jMXPIIpYhzBp+kEcchd8eq/CPAARpz0lknyximcQMIoJS6kNjFX6gPM4HpT0lkW1SgS1g1lBKHRJH0f03VPg9ac9HZJdUYEuYNRyi2VG9+m83bOJj056PyCZZxLKotd2kVfSv5Qp/KO35iOyRBE6IiqMf3VDho9Oeh8gWuQdOUNSo3VneJPfEwhypwAnyPB9R1NhY3sRvS3suIhvsdSNRs9e2XbzUZZTuHFzXLRDhFgD/E0Aj7TmJzmaznVBXJ7fBdb3Y4hh7iNjzfd91X/rrvpjOCSc2M0Op+O3lCl/T20PLEx1cZI61Ennj/TwbjC5Q+ttJBLDWKDDjADAOJQeHM+Pw6o4X3p0vzHaaDQpAkjtfzXPUuTOX9dA3ExtUZE77XOOmYOxe7mIHR4Jwem3Htr8O8rPQ6jayjxDHIWYXigefsIAeS2BAkUEzOoFfqVzhlfXq5IW5fL6r1f9rExHB8byHehfQO6wOJDJLEngXyhU+nbX+BrPez3oSOw5cx121rIe+YXUgkUmSwLtHYxX+eqNe/TvPz1msxoSwUcVHjpzTDWC7pUFERsk+8O7xsh76vB8UD3dcb7O9LTFGkC+iXOHvWBpAZJhU4D3jlitc1lqdyFpbGUBrBc/PH7J8If3BygAik6QC7xnV20MnOY5rbcvHdT0Q4Vu24otskgq8l8bG+aI4ilbbiK21gu/nF/QupPtsxBfZIxV4Ly1bQGe7nn8JOeY/uqkq/HXjgUVmSQXeR2MVvkkpdSKz2XtirWLkgsJRy3roF0YDi0ySCryPlvXQMtd1HzW9Ou16PkC40GhQkVmSwPtOa2B5FJptKGJmRGHjr8bG+QSjgUUmSQJPw/IeeiBfmHW+6biO44IZXzUdV2SP3AMbUK7wZq3iN5k8rcXM8PzcB3p76AZjQUXmSAU2gbDSdEinucotrYbiNUkCG9C7gMYc13vQ5IIWM0Or+C3lcf6wsaAicySBTWGUYOG8dNxoXG48qMgMSWBDehfSXa7j3mu6CjuuN6u8ic8wFlRkiiSwQazxt9pwswODoXQs+8JilySBDeo9nB7w/NxGo4c7mivbs8vj/CVzQUVWSAIbxsDfRVFoITCfBSBvPrDoZJLAhi3voX8P8sXrTFdhFcddYxX+B3NBRRZIAttAWBNFpp/ZTlAqOuv63/N8w4FFB5MEtqB3AT0Y5GddYbbRgQFQ3qni7w0GFR1OEtgSZnwpjkKjT8JjBuqT279wfYXfYjKu6FySwJYsX0iPB/ni90xX4VxQhAucZzCo6GDSzGDX/tf9pvEMgXLmQhKisIZ8sevA3h563Fxc0YlsV2BK4U872er7uWHzVbgAQB69Iyz+wpdG+bMABgDUbY2xM2J4DDw43E8nJzHeXvCv+3VtkhzPN/nyNKVi5LzCwb3vkvcqzWTWXi9KwPw4rCW22ELkwPGDWlLj7YXIy+Uv0Ep92WS/sOf5IBfDAN5vLKjoODYvoe08AX23GABUsmPumd4euqBe2wGT3UrMjDgKl950Px9qLKjoOLIKnZBi15zPmn4AHjkOlMKw0aCio0gCJ6R3AV2mldpmoen/qBvG+UhjQdvccYO8eMlafnva82gXksAJcnO5VTbecugAQ8aDtqFFa/loVdu6Pm5su/+Er/OBac+nHdhM4Hbb0knd8gX0fc/zHzNdhaMwfGd5nJcaC9qGFl3Ex+naxJ2OF4Bcv1Cv18eXDPLb0p5X2mwmsN03Y3coBs41/TYHx3FAnN0H4B23lpfo+sQGx883z5OyBsD7aRX9eslaPiTt+aVJKnDCenvoh56Xe8B4FY7CPytX+EPGgraJ49byElWfuPXF5G1hDdbxPK2ju2dyJZYKnI5/UMrsjpfjOADhK0aDpmzRRXycqk3c5nh5wq7WDqaSWEX1e2bqPbEsYqVgWQ/d6OcC44+hVVH8P8YqfLqxoClatJaPftll8+5MXU5XJ7f9FsB/S2p+7UISOC2MlUrFZmMSwMD56PDbl0UX8V/p2sSdr5u8LazhuH7xmDXPPglgnvUJthG5B05J70L6uZ/L/9r0o3e0Um8dG+fPmwuarEUX8Xt1feIXe5y8LazhBrOdY87f8tSa7+LN9mbYXqQCp+sz2vC9MIPBjHMAGGxhTMaitfy/dX3il3udvC2s4fqF3M+fnXzwfRfzweZn2H5kEStFvT10j5cL1luowvuPVfiz5oLad9wgL9a1idv3OXlbWIOIuuM4/M3iwexvMUkFThkTzrTxMPjq5LZBAL7RwJYsXsvvU7WJ26advC2sAa3msoruznoSyz1wypYvoP/w/dxPTFfhID+LyhU+11xQO44b5MVxfeKW3W4V7avWPrEKf5Xly2m5hG4Dy3poZRxHRmMyM2qT289FGz8MfvEgL1XVifXGk7dlqhJHjWolqwtbcgndHv4UBIWriEz+OBhBvoixcb7YYFDTznRzRTOXzbszdU98x1NbHkEGt5gkgdvEsh5a0ahXYfLOg1mjUa+dAWCOsaAGbRigExwv/1Mbr2V9manV6WPWPPssMnbYQxK4fWwrzu66zHTTv+f5KI9z27Ybrh+gkxyveFMiSRzMdo694IVHsnTsUhax2ohD+LJScWi2CjOiRuPUsQofZCyoYRtW08muX7wxiSR2XL+YpVZEWcRqIycdRv/l+8Fa07/HruuCga+ajWrW+gFallQlzlIrolTgNrNjOX3dcdxJ01U4bNQ+Uh7nBcaCWjBViX9qdjFvFzLUiigVuM189HFshUMXmP74vOZjqdcaDWpB8564cGtSSdzprYiyiNWGehfQpZ7vb7XwGNol5QovMxbUkvWr6f1JJXGntyJKArenOgMXmt4fJccBEUYAFIwGtmD9anq/4xd+lkQSd3IrotwDt6neBbTW8/w/mT5iqWI1Z2ycrzMX1J71A3QC+YXEtpg6sRXRZgJ7RISk/oAcEBBY/PskjoFzTD+GlllDxer4coXPNhrYkg0DU1tMtutBh7Yi2ny52VIAJwEwe8h3N5jhANi8rp/a+ejgXitX+I9axQeaTmSlYuSCwim9PXSt0cCWLBnkMRVVT7Z67BIAyAEcd8Jxc0dsGKCH7Q42fXKZ2+bGKtyrtLqBDbccEhGiKESQL57U20M/NRrcksWDfCNHtZNMP5b3VcgBOd4Wcv33tHsSSwJ3gHKFn9QqfqPpKkxEiMIGgvysv+ldSFcbDW7JkkG+WUe145NIYjjuhOfl3n3bWfSo3cH2naxCdwAGTrWxkMPM8HMBwrB2VbnC/9f4ABasH6ATEtti6oBWREngDrC8h+50XXeT6UYHoJnErutBq/irY+PcEZfSSe4Tt3sroiRw5zjddNP/zri5xXTCT34TTpbHebG1gQyZ2iee8a2Icg/cQcrj/D0dx5+w8YbDFiKC1hq+n7tNM1YsX0iPWRvMgMVr+UYdV09KYnVaq6hanNX9Fzevov+0O9iekwTuLN1j4/yYiuO5NpMYaCZyHEXI5QvXMXDe8h76d6sDTkOiW0yg510//671A/SI3cH2jCRwhxmr8IejKLzWxv3wrhAR4jhCkC/cw4zvkoNblx3WPhWoJclKTI63xXH896xfnf4WkyRwBypX+Aqt4n7bVXhnrS8MFYVxUCw+5BJudx3cdcgb8dDBc+kpAFuQcgfaUf/EV3q6+lGyPY1WErv+X6ZdiSWBO5NfrvBDWsUH2b+Ubv6StAp+LQLqIRBGwGRDY8u2BkIUquz4tXqEurK8Pbs7zNCuC+c/n66+aXud4dj+zZ66nM7n8wvSvCf20hpYTEvkujiuXq096gcF4091JMKLCfBClfH8JOO/tjMmJhmRAhQDWrf+fz6I4iIQF9OuBioC3jiX8NQEYD2JWQPktFoR3wbgGYuj7Vban7mYhhvGeSnH8S0mqjBR8w8zMLGD8dRWjccnGLFu/pI4r6jE7YwIeGqC7ScxAJAD1dih7zz/DW9A8zYiUR3w4xCvpVzhM1QcXbav/34rISfrjMe3MB59TiNWgEtA853hnYkIeHqCsS2pJI5q4bFvnPe28z+JzZZHe/nQSQ4m7Bgb5/OjMPzS3qxMOwToqWr7hz9pPL2N4XV40r4SAXj6eca2WjJJzMzb/KDYk+TZ6az8rGa88iY+L47DNa+XxK3/+dnnNR56RmPLJOC7sP8LnqJnEkzipFsRM/xjm3nGxnlNFDbO29UZ4dY97tYdjN89pfHsdobrZDtxWwjA01uTu5xOshVxBvz4ZpZyhc+Ko3DQcRy0FrccB2hEwO+eVHh8gl+2yjxTJL2wlVQr4gz7Mc4MN1R4WX1yWznIF+EQ4+mtGvc9oRHGgDuD21eSTmJm3nb0G2YdanNhSxI4o3gz3nTTFv7lvX9oHPjHLRq+0xlbQLYRAc9sbd4TW/88yIGOalGha+6f/WwV/dHGEDP4+zjb6M3A9ZuAzVsZOVeSNx0MgP0wxnxbI8hJrAxacQUvC6sTZZ/rYJIXZLQkewlNUFGNvfy8wzeupoqtYaQCZ0xplM/UUbXs5YpIstmh3SWdvFpFkVuYd8TGs+0lLyAJnCmlUV4TNyYvaV4vS/K2EJqnspJL3jh0gznH3L6a/p/l0WQRKytKo3xe3Ki+7kGOmSi5gxxTlTeYc8zG1XS35dGaQyYxiLBr5QifH4fVL8lK1csle5Syec/rFuYdkUTlfXHYpAYSdqwY4TN0VNvnZoasSraZgaDDKtzC/IW273lfNXSSgwmzSlfwUhXXb5H73ZdLfMEqrMEpzjv09tX0W8ujvXr4pAcUZpR+yAeF259/1PXzkAR+SeJbRc3Ke9jtZ9P9lkfbJdkH7kwONDZ4uXwKW0XNrGg2/zNU3ICXm1V1PL9GQD3hybwo+UfqEFTcUF5h/hEbU0peQBK4I60c5cvjsH5wspWXQATEKoqDoOshALczcJeXKzw01NdOD7XDR5PaKvLy+x+zcTXdY3m0155KmoOLvVca4Q/GjR0/JsdNZDwigooj+PmuTQC+y4SfreubyY+Vbe3zdh+b1FbRa5EK3FlmA7yOXM/4g+xeqZW4uXzXdeTlzxvub/sHuyeSvCpuqKnK+yu7g+0ZSeAOUhrhS1Rcn2/3F5UA1nByhdvIy68Y6m//V6sklrxhFV5h/hFpXzbvTC6hO8SKUX5nXNt+v+Pa+84lcsCsq45f+OC6frrF2kCGLBnkm1RUPTGRy+awBqcwL7XV5t2RCtwhHMa/uJ5vb9WZCI4f3DzcRyfaGcCsJWv5Fh3VliaTvFU4xfmp7PO+Hmlm6AClK/hoFTcW2klegtYxXC//xY5K3ri2lNnyayBePB45f2E7Ji8gFbgjkIMrWVlIXiLoKIRf7P6b4T662vwA5i0Z5Jt1lEzyTrUEHmmzn3e6JIHbXGmEe1XUeIv5S0WCjkP4he6Thvvop4aDW7F4kG/UUe34ZJI3Dt1gzrEbE2xM2BfWErg0yksBnATA3mvld8IMB8Dmdf10cRLjJehStnA+QusIXqH7lE5J3iS3iqZaAttin/f1WEtgAo5SUf0ztuK/ekAHrpf7PYDMJPCKEf6EiuoHmj7gROTAD7rOGe6ja40GtmTJII+psHqy9YNeL7UEHtnulbfF5iV0lOj7a6HBQCOxARNAwD8aj0kOHD/42XAfGY9tw+LBqX3eBJJXN/d5rT7DyjS5B25TK0Z4lYpqB5iNSgDRjuE++pDZuHZMLVgdn9g+b3H+oRvbdLV5d2xuI8khkX2XJ+Ac0x8hs4bj5k4DUDUa2IKpfd5EFqxUWG0e0uiw5AVkH7gtlUb5cyqq7W/yspGI4AfFjcP99BNjQS1JdJ+32RL47nY7YbWnbCawdJnvg4tv5rk6Do1XXxVHUMBZRoNasGSQb0oqeadaAo/ceHb7nG3eW1KB28wjz2EVWHcZ/f4jgl/o+vG3+2jcXFDzphoTTkxun7f72HbpKtpXcg/cRj4FzI/j+irTazasFAhYbTaqWUsGeSypfl4VN5QbdCf26Feb5BK6jbgjvMYBFYzf++ZnXTvU175tgVOV9+TEWgKD/Y/o9MrbIpfQ7WNOWN36GdN75yqOMNRHnzIa1KDmPW9CJ6zCGtzC/MM6+Z73lWQfuE2sHOVvqqgBk/d/zerb9c8AXjAW1KAla/k2HdWXzPSWwOmQCtweDojqO/pNL96oOMRwP33BaFCDmHCVViGsLpd0QEvgdMgiVhsojfA/m37SBpEDv9B9Adr4eOmGAbrcDbr7Wcew8uuS4FsC0yKLWCk7Y5T/PG7s+KDZe19CFE7ycB9dYDCoFRtW06iX7z7NeBIn/JbAtEgFThkzLjVffQnBrLlfREKtnNO1foBGjFbiF1sC2+PRrzZJBU7RihF+VxROLjFdfclxtw730dcMBrVuw2oadYPujzGr6QWauud1gjlHZj15AVnEShUBl5l+QDsRgVzvK+iQ6ruzDavph06u6xTs62JeqyUwP+/wLF8270wSOCUrRvnouLHjL81uoRBcL3hyuI8uMRg0URtX07WU6/rIXq/I79wSmNEFq12Re+CUOMClZOcZz+cAsHyY2K6Nq+kaJ+g6tXk5vQe/Rh3eEjgdUoFTsGKET44akwuMVl8iuLn8w0P9NGIuaHo2DtBVbtDd97oLWxloCZwOWcRKgUO4wPS9L2sNML6IDq++O9swQFe+5hZTRloCp0MqcMJKo3xq3KgeZrr6+rni74f76cfmgraH9QM0ssskzlBL4HTIPXDSGF+BY/hj1xpKo22PTE7X+gEacfPdfcxx87/IWEvgdMgldIJKI9yvotpBpquvlys+8O3T6SZzQdvPhgG60gm6TwXr5lZRhloCp0MuoRMUh9VvgcxfmGiNzxkP2oY2DtBVTtDV5xbnv3em3vO+krQTJqQ0wmfouNFtul3Q9fN3DfXRHcaCtrkNA3Rl2nNoJ1KBExLWXrjUdLM+s4ZilIwGFR3FZgVO+MuBAMDs3owhpVE+V0cN13T1dfzCxuE+etBYUNFxrCUwA8+5ucITAOq2xtgZMTxmPJrEWHvJj+s7ziXH7EetVQTPzX/SaFDRcWxv9aSxldRWq98rR/mSOKqfaXLleere97qhDnlFirDH9iJWWyVTCvaPwlrJ7LcYIQ7rcL382UbDio4ki1gWlUb4HwmUMxmTiJCbtd8PhvrpEZNxRWeSBLbk0z/gt4a1F0pmL0IIcVgFa5xnMKjoYLIPbInr4ctAAKNbRwTkivt/bbifnjAXVHQyqcAWlK7gvwjr204z/agcMOpBFRcaDCo6nFRgGxx82fVyZqsvGF6ucMkln6DnDAYVHU46hgwrjfCfR/Vtv3Vc32BUAjnu9m//be4NSGhfXXQGuYQ271LXM7rwDABwXP9iSPKKV5AKbFBphN+pwur9ZjuOCCDs+M7HC10Gg4qMkApsEBG+a7pZf+rU1d8bDSoyQyqwIZ8e4aMQN35u9AVlRFBRPfz+p/cPzAUVWSIV2BCHMMwWTo7mCvt9zHhQkRlSgQ0oXcHLlKqXjT8qx88/MdRHbzUXVGSNVGADyMGQ8eKrNZDhB9UJM+QgxzSVRvm8OKy9yWhQIni5wn1DffQjo3FF5kgFnoYVI/zOqPrCGtNxWWvo5kPahXhNksDTQMBPXN/sAjERwQuKv1rXTzcbDSwySRJ4H5VG+SYdN95u+kF1SkVgxoDRoCKzJIH3QWmEB3XUONHoni8AECGX7/r5un76hdnAIqskgffSylG+SEXVs4wnLwBW8Yx5SLswQ1ah90JplC+Nw9rnrGyfE8HLz75luI/uMx9cZJUk8J5xS6Nc1lHjRFsDsIqhXXzeVnyRTZLAr6M0wguJUI6j+puNnrTaCRHBDWZfPdxPv7MygMgsOUr5Gkoj/LWovn2V4/mwlbytB9X9oDSvG8B2S4OIjJIKvAsrruDTWYffUHF9P8f1LCZvs/rmZ81dBUlesQ+kAu+kdAWvDOsvXOj5+a7m/q7d59I332+Uf2i4j95hdSCRWTO6ApdGuYsZRzqE02vbn/trrRpw/QA2tohejaDiEDknf3wCg4mMspbAK67k2cToYkr/9SpEYNIoaMYBIBzqMA4H4fD69i3v9vOznZgZfjA7ocRtYtbwC91nfquPHktsUJE51hLYYayqbXv2fHK82NYYe4yIXdf3yfFABMQAwIAXzEo0aV+ajgMvF9w01EffTHxwkSk2Xy/q+PlugNrkMn3qntbietQead73Bo8O9dFH0p2JyAJryUUAt/4jphBBaVVzgfcBmEx7OqLzyVnoBOk4gufPWjrUJ28WFGZIAifIy3UtWnca3ZX2PER22Exg2WMG0PoYXL/w4XWn07+mPBmRMe2xwJRVRNBxCC/oXjLcTxvSno7IHpsVeEYvXxERoHmHH3S/d91pkrzCDqnAFhARHC//MAhLh+WghrDIZgLPwHtgAljD9Qs3DPXTKQDCtGcksk0uoQ2h5nuM4OSKnx7qpw9AklckQC6hp41ap6v+8P2PF44F8GTaMxIzh+wDT0ez6mrygpXDfXQIJHlFwqQC7zUCqHmqKpfv+t53Pl44A3K5LFIiBzn2WPNSWatIuV5+NMh3HTTUT5+EJK9Ikc0KnIFFrOZ3EBHg+MEEmC4nJ3/JcD9tTnliQgCQbaRXo2YfFREhakwimD33DgBDw310M6SDSLSZGV+BiajZI0wAgRCHtXquuN8dIFztO8Gtw330TNpzFGJ3bDb0Nx9/0Q74xX80jzhOUSqC4+Ye94LgXta4WwMbv//xfAUd8uUjhM0KvMn189cg5UUeAsCMiAhPAFBMeMwFNl/2MXoYsu0jhBBCCCGEEEIIIYQQQgghhBBCCCGEEEIIIYQQQgghhBBCCCGEEEIIIYQQQgghhBBCCCGE6Dj/H+JNMpQvXWKMAAAAAElFTkSuQmCC;shadow=1;" vertex="1" parent="1">
          <mxGeometry x="410" y="310" width="70" height="70" as="geometry" />
        </mxCell>
        <mxCell id="gNoDSgEm0qHazXfeq4_1-14" value="&lt;b&gt;&lt;font style=&quot;font-size: 24px;&quot;&gt;RAW&lt;/font&gt;&lt;/b&gt;" style="whiteSpace=wrap;html=1;fillColor=#dae8fc;strokeColor=#6c8ebf;" vertex="1" parent="1">
          <mxGeometry x="270" y="160" width="120" height="400" as="geometry" />
        </mxCell>
        <mxCell id="gNoDSgEm0qHazXfeq4_1-39" value="" style="group" vertex="1" connectable="0" parent="1">
          <mxGeometry x="298.1" y="181" width="60.00000000000003" height="60" as="geometry" />
        </mxCell>
        <mxCell id="gNoDSgEm0qHazXfeq4_1-19" value="" style="whiteSpace=wrap;html=1;fillColor=#E1D5E7;" vertex="1" parent="gNoDSgEm0qHazXfeq4_1-39">
          <mxGeometry width="60" height="60" as="geometry" />
        </mxCell>
        <mxCell id="gNoDSgEm0qHazXfeq4_1-38" value="" style="group" vertex="1" connectable="0" parent="gNoDSgEm0qHazXfeq4_1-39">
          <mxGeometry x="9.200000000000017" y="10" width="41.60000000000002" height="40" as="geometry" />
        </mxCell>
        <mxCell id="gNoDSgEm0qHazXfeq4_1-35" value="" style="shape=image;verticalLabelPosition=bottom;labelBackgroundColor=default;verticalAlign=top;aspect=fixed;imageAspect=0;image=data:image/png,iVBORw0KGgoAAAANSUhEUgAAADYAAAAyCAYAAAAX1CjLAAABV2lDQ1BJQ0MgUHJvZmlsZQAAKJFtkE9LAlEUxY+l2R+LiJZGrsLFJKEGrQIzsEhonEwqWjSO0yiM0+s5EVIfon20a9O+IFy1a9MuKILW9QEECUqm+5xKrR5czo/DeZfLAXr6VcZML4CyZXMltRDa2NwK+V/RhwH4EERY1SosIctpiuBbu1/jAR6h99NiF3JHmZcLe/Jy/iqTG1mt/813vcGCXtFIP2giGuM24JGI5UObCT4mHud0FPGJYMPlc8F5l69bmaySJL4jHtWKaoH4mVjKd/hGB5fNA+3rBnF9QLfW10jHaIJII4UQlrAIhTSOFern/3y8lU9iDwxVcJRgoAibfiXIYTChEy/DgoYIJOIoZmhiouff/bW96iMwlyHYbnvZJ6AmA0OnbS88BQzvALezTOXqT6uehreyG4u6HOCA781x6hOAvwY0ueO8nzlOkzrspZ03+5+MAWDdKoYYuwAAAFZlWElmTU0AKgAAAAgAAYdpAAQAAAABAAAAGgAAAAAAA5KGAAcAAAASAAAARKACAAQAAAABAAAANqADAAQAAAABAAAAMgAAAABBU0NJSQAAAFNjcmVlbnNob3SLWX11AAAB1GlUWHRYTUw6Y29tLmFkb2JlLnhtcAAAAAAAPHg6eG1wbWV0YSB4bWxuczp4PSJhZG9iZTpuczptZXRhLyIgeDp4bXB0az0iWE1QIENvcmUgNi4wLjAiPgogICA8cmRmOlJERiB4bWxuczpyZGY9Imh0dHA6Ly93d3cudzMub3JnLzE5OTkvMDIvMjItcmRmLXN5bnRheC1ucyMiPgogICAgICA8cmRmOkRlc2NyaXB0aW9uIHJkZjphYm91dD0iIgogICAgICAgICAgICB4bWxuczpleGlmPSJodHRwOi8vbnMuYWRvYmUuY29tL2V4aWYvMS4wLyI+CiAgICAgICAgIDxleGlmOlBpeGVsWURpbWVuc2lvbj41MDwvZXhpZjpQaXhlbFlEaW1lbnNpb24+CiAgICAgICAgIDxleGlmOlBpeGVsWERpbWVuc2lvbj41NDwvZXhpZjpQaXhlbFhEaW1lbnNpb24+CiAgICAgICAgIDxleGlmOlVzZXJDb21tZW50PlNjcmVlbnNob3Q8L2V4aWY6VXNlckNvbW1lbnQ+CiAgICAgIDwvcmRmOkRlc2NyaXB0aW9uPgogICA8L3JkZjpSREY+CjwveDp4bXBtZXRhPgoow1cUAAADiUlEQVRoBe2a/04iMRDHi6DyBGjirxcgEKLv4DMb4xtooigPgEiC8jfG33d+yDXXdmd1Riu33t0kzbbdbzvz2cLsYKz9eDWXGFMvLy9OuJUo/+ywVqu5paUlxzW1RjrBGCja8/OzdLsyc/V6fR6Lv4aBiWCcFFBPT0+htpJ96bQIVAS7vr52V1dX81ZJml9BbW5uOtrGxkYhTBFsMpm409NTd3JyUlhQpYnd3V3XaDRsYGdnZ+7g4KBKHIVYgOLEJBNPTBIyx+fZtzLNV8zznfdNu78ZjPQqZSGtw4/oSGTW148ZDKhFg/EwrO9UE9j6+vr8iyploY+chHbNeDx2vmnXmMF6vZ4jGy3SyM58HIHTmhms2+26/f197f5ZdBQKvFctZgIr29iXYFxDI9H4Fs5b9eFabT8bGE81rS1JMrxrgAsNMIs+XKvtZwMD6uHhIfK7srJSgEIAmEUfbaocZAGjthyNRoXvAVXB1tbWvIXxWPXhWm0/G1i/33fHx8eR3729PcepARcaYBZ9uFbbzwp2eHgY+ZWgEHgwrT7aVDnIAubLrOXl5cgtySNNHAis+mhT5eA/2FsPioqftJ6eGHPSL1yr/i3fZfeynNja2prrdDoFH8xxLzWrPl2vGWcBozjG/NU7BiCdC3XpvTK9389yzQJGQDStWfXafUNdFjCqCF9NhJv7rJj+frPqwz21/SxgQFFOPT4+Rn5JJrzLUjCrPtpUOcgCxgkAdXd3V3ALVJotrfrCpoqJLGA3NzduOBy6y8vLyOX29rbb2dlxXEOz6sO12n4WMEqk8/NzsVZsNpsFMKteCxPqsoBxAhcXF+7o6Cjc2wHFiaVm1afrNeMsYNR+VBkkitCkH5nct+rDPbX9rGCrq6uR3/fAtPpoU+UgCxiZr+zE0lRPXFa9kiWSZQFrtVqltSL3UrPq0/WacRYwSiQK3rT2A0Aqtax6DUiqyQYmAaTO/BitRe/XWa4mMP5kdn9/725vby0+Pq3FJ74tZgKjFMLJbDaz+Pi0Fp/4tpgJjKdGsbvoE8Pnl57YdDp1g8HA8uCyaPGJb4uZTsyXQtR6izSg8G0xExgOrE/OEkxOrQjmf0NRxFbZ+J0nVTbE/G+BUX1TqVf9xIiRWCUTT4xSqN1uS/pKzRGjVIsSpAjmyx1/rRRNEExZLYqk9vpvBoV/6wvWftuu/AH9tji/A/9rwX4CoNKbBezrnxIAAAAASUVORK5CYII=;" vertex="1" parent="gNoDSgEm0qHazXfeq4_1-38">
          <mxGeometry width="21.6" height="20" as="geometry" />
        </mxCell>
        <mxCell id="gNoDSgEm0qHazXfeq4_1-36" value="" style="shape=image;verticalLabelPosition=bottom;labelBackgroundColor=default;verticalAlign=top;aspect=fixed;imageAspect=0;image=data:image/png,iVBORw0KGgoAAAANSUhEUgAAADYAAAAyCAYAAAAX1CjLAAABV2lDQ1BJQ0MgUHJvZmlsZQAAKJFtkE9LAlEUxY+l2R+LiJZGrsLFJKEGrQIzsEhonEwqWjSO0yiM0+s5EVIfon20a9O+IFy1a9MuKILW9QEECUqm+5xKrR5czo/DeZfLAXr6VcZML4CyZXMltRDa2NwK+V/RhwH4EERY1SosIctpiuBbu1/jAR6h99NiF3JHmZcLe/Jy/iqTG1mt/813vcGCXtFIP2giGuM24JGI5UObCT4mHud0FPGJYMPlc8F5l69bmaySJL4jHtWKaoH4mVjKd/hGB5fNA+3rBnF9QLfW10jHaIJII4UQlrAIhTSOFern/3y8lU9iDwxVcJRgoAibfiXIYTChEy/DgoYIJOIoZmhiouff/bW96iMwlyHYbnvZJ6AmA0OnbS88BQzvALezTOXqT6uehreyG4u6HOCA781x6hOAvwY0ueO8nzlOkzrspZ03+5+MAWDdKoYYuwAAAFZlWElmTU0AKgAAAAgAAYdpAAQAAAABAAAAGgAAAAAAA5KGAAcAAAASAAAARKACAAQAAAABAAAANqADAAQAAAABAAAAMgAAAABBU0NJSQAAAFNjcmVlbnNob3SLWX11AAAB1GlUWHRYTUw6Y29tLmFkb2JlLnhtcAAAAAAAPHg6eG1wbWV0YSB4bWxuczp4PSJhZG9iZTpuczptZXRhLyIgeDp4bXB0az0iWE1QIENvcmUgNi4wLjAiPgogICA8cmRmOlJERiB4bWxuczpyZGY9Imh0dHA6Ly93d3cudzMub3JnLzE5OTkvMDIvMjItcmRmLXN5bnRheC1ucyMiPgogICAgICA8cmRmOkRlc2NyaXB0aW9uIHJkZjphYm91dD0iIgogICAgICAgICAgICB4bWxuczpleGlmPSJodHRwOi8vbnMuYWRvYmUuY29tL2V4aWYvMS4wLyI+CiAgICAgICAgIDxleGlmOlBpeGVsWURpbWVuc2lvbj41MDwvZXhpZjpQaXhlbFlEaW1lbnNpb24+CiAgICAgICAgIDxleGlmOlBpeGVsWERpbWVuc2lvbj41NDwvZXhpZjpQaXhlbFhEaW1lbnNpb24+CiAgICAgICAgIDxleGlmOlVzZXJDb21tZW50PlNjcmVlbnNob3Q8L2V4aWY6VXNlckNvbW1lbnQ+CiAgICAgIDwvcmRmOkRlc2NyaXB0aW9uPgogICA8L3JkZjpSREY+CjwveDp4bXBtZXRhPgoow1cUAAADiUlEQVRoBe2a/04iMRDHi6DyBGjirxcgEKLv4DMb4xtooigPgEiC8jfG33d+yDXXdmd1Riu33t0kzbbdbzvz2cLsYKz9eDWXGFMvLy9OuJUo/+ywVqu5paUlxzW1RjrBGCja8/OzdLsyc/V6fR6Lv4aBiWCcFFBPT0+htpJ96bQIVAS7vr52V1dX81ZJml9BbW5uOtrGxkYhTBFsMpm409NTd3JyUlhQpYnd3V3XaDRsYGdnZ+7g4KBKHIVYgOLEJBNPTBIyx+fZtzLNV8zznfdNu78ZjPQqZSGtw4/oSGTW148ZDKhFg/EwrO9UE9j6+vr8iyploY+chHbNeDx2vmnXmMF6vZ4jGy3SyM58HIHTmhms2+26/f197f5ZdBQKvFctZgIr29iXYFxDI9H4Fs5b9eFabT8bGE81rS1JMrxrgAsNMIs+XKvtZwMD6uHhIfK7srJSgEIAmEUfbaocZAGjthyNRoXvAVXB1tbWvIXxWPXhWm0/G1i/33fHx8eR3729PcepARcaYBZ9uFbbzwp2eHgY+ZWgEHgwrT7aVDnIAubLrOXl5cgtySNNHAis+mhT5eA/2FsPioqftJ6eGHPSL1yr/i3fZfeynNja2prrdDoFH8xxLzWrPl2vGWcBozjG/NU7BiCdC3XpvTK9389yzQJGQDStWfXafUNdFjCqCF9NhJv7rJj+frPqwz21/SxgQFFOPT4+Rn5JJrzLUjCrPtpUOcgCxgkAdXd3V3ALVJotrfrCpoqJLGA3NzduOBy6y8vLyOX29rbb2dlxXEOz6sO12n4WMEqk8/NzsVZsNpsFMKteCxPqsoBxAhcXF+7o6Cjc2wHFiaVm1afrNeMsYNR+VBkkitCkH5nct+rDPbX9rGCrq6uR3/fAtPpoU+UgCxiZr+zE0lRPXFa9kiWSZQFrtVqltSL3UrPq0/WacRYwSiQK3rT2A0Aqtax6DUiqyQYmAaTO/BitRe/XWa4mMP5kdn9/725vby0+Pq3FJ74tZgKjFMLJbDaz+Pi0Fp/4tpgJjKdGsbvoE8Pnl57YdDp1g8HA8uCyaPGJb4uZTsyXQtR6izSg8G0xExgOrE/OEkxOrQjmf0NRxFbZ+J0nVTbE/G+BUX1TqVf9xIiRWCUTT4xSqN1uS/pKzRGjVIsSpAjmyx1/rRRNEExZLYqk9vpvBoV/6wvWftuu/AH9tji/A/9rwX4CoNKbBezrnxIAAAAASUVORK5CYII=;" vertex="1" parent="gNoDSgEm0qHazXfeq4_1-38">
          <mxGeometry x="10" y="10" width="21.6" height="20" as="geometry" />
        </mxCell>
        <mxCell id="gNoDSgEm0qHazXfeq4_1-37" value="" style="shape=image;verticalLabelPosition=bottom;labelBackgroundColor=default;verticalAlign=top;aspect=fixed;imageAspect=0;image=data:image/png,iVBORw0KGgoAAAANSUhEUgAAADYAAAAyCAYAAAAX1CjLAAABV2lDQ1BJQ0MgUHJvZmlsZQAAKJFtkE9LAlEUxY+l2R+LiJZGrsLFJKEGrQIzsEhonEwqWjSO0yiM0+s5EVIfon20a9O+IFy1a9MuKILW9QEECUqm+5xKrR5czo/DeZfLAXr6VcZML4CyZXMltRDa2NwK+V/RhwH4EERY1SosIctpiuBbu1/jAR6h99NiF3JHmZcLe/Jy/iqTG1mt/813vcGCXtFIP2giGuM24JGI5UObCT4mHud0FPGJYMPlc8F5l69bmaySJL4jHtWKaoH4mVjKd/hGB5fNA+3rBnF9QLfW10jHaIJII4UQlrAIhTSOFern/3y8lU9iDwxVcJRgoAibfiXIYTChEy/DgoYIJOIoZmhiouff/bW96iMwlyHYbnvZJ6AmA0OnbS88BQzvALezTOXqT6uehreyG4u6HOCA781x6hOAvwY0ueO8nzlOkzrspZ03+5+MAWDdKoYYuwAAAFZlWElmTU0AKgAAAAgAAYdpAAQAAAABAAAAGgAAAAAAA5KGAAcAAAASAAAARKACAAQAAAABAAAANqADAAQAAAABAAAAMgAAAABBU0NJSQAAAFNjcmVlbnNob3SLWX11AAAB1GlUWHRYTUw6Y29tLmFkb2JlLnhtcAAAAAAAPHg6eG1wbWV0YSB4bWxuczp4PSJhZG9iZTpuczptZXRhLyIgeDp4bXB0az0iWE1QIENvcmUgNi4wLjAiPgogICA8cmRmOlJERiB4bWxuczpyZGY9Imh0dHA6Ly93d3cudzMub3JnLzE5OTkvMDIvMjItcmRmLXN5bnRheC1ucyMiPgogICAgICA8cmRmOkRlc2NyaXB0aW9uIHJkZjphYm91dD0iIgogICAgICAgICAgICB4bWxuczpleGlmPSJodHRwOi8vbnMuYWRvYmUuY29tL2V4aWYvMS4wLyI+CiAgICAgICAgIDxleGlmOlBpeGVsWURpbWVuc2lvbj41MDwvZXhpZjpQaXhlbFlEaW1lbnNpb24+CiAgICAgICAgIDxleGlmOlBpeGVsWERpbWVuc2lvbj41NDwvZXhpZjpQaXhlbFhEaW1lbnNpb24+CiAgICAgICAgIDxleGlmOlVzZXJDb21tZW50PlNjcmVlbnNob3Q8L2V4aWY6VXNlckNvbW1lbnQ+CiAgICAgIDwvcmRmOkRlc2NyaXB0aW9uPgogICA8L3JkZjpSREY+CjwveDp4bXBtZXRhPgoow1cUAAADiUlEQVRoBe2a/04iMRDHi6DyBGjirxcgEKLv4DMb4xtooigPgEiC8jfG33d+yDXXdmd1Riu33t0kzbbdbzvz2cLsYKz9eDWXGFMvLy9OuJUo/+ywVqu5paUlxzW1RjrBGCja8/OzdLsyc/V6fR6Lv4aBiWCcFFBPT0+htpJ96bQIVAS7vr52V1dX81ZJml9BbW5uOtrGxkYhTBFsMpm409NTd3JyUlhQpYnd3V3XaDRsYGdnZ+7g4KBKHIVYgOLEJBNPTBIyx+fZtzLNV8zznfdNu78ZjPQqZSGtw4/oSGTW148ZDKhFg/EwrO9UE9j6+vr8iyploY+chHbNeDx2vmnXmMF6vZ4jGy3SyM58HIHTmhms2+26/f197f5ZdBQKvFctZgIr29iXYFxDI9H4Fs5b9eFabT8bGE81rS1JMrxrgAsNMIs+XKvtZwMD6uHhIfK7srJSgEIAmEUfbaocZAGjthyNRoXvAVXB1tbWvIXxWPXhWm0/G1i/33fHx8eR3729PcepARcaYBZ9uFbbzwp2eHgY+ZWgEHgwrT7aVDnIAubLrOXl5cgtySNNHAis+mhT5eA/2FsPioqftJ6eGHPSL1yr/i3fZfeynNja2prrdDoFH8xxLzWrPl2vGWcBozjG/NU7BiCdC3XpvTK9389yzQJGQDStWfXafUNdFjCqCF9NhJv7rJj+frPqwz21/SxgQFFOPT4+Rn5JJrzLUjCrPtpUOcgCxgkAdXd3V3ALVJotrfrCpoqJLGA3NzduOBy6y8vLyOX29rbb2dlxXEOz6sO12n4WMEqk8/NzsVZsNpsFMKteCxPqsoBxAhcXF+7o6Cjc2wHFiaVm1afrNeMsYNR+VBkkitCkH5nct+rDPbX9rGCrq6uR3/fAtPpoU+UgCxiZr+zE0lRPXFa9kiWSZQFrtVqltSL3UrPq0/WacRYwSiQK3rT2A0Aqtax6DUiqyQYmAaTO/BitRe/XWa4mMP5kdn9/725vby0+Pq3FJ74tZgKjFMLJbDaz+Pi0Fp/4tpgJjKdGsbvoE8Pnl57YdDp1g8HA8uCyaPGJb4uZTsyXQtR6izSg8G0xExgOrE/OEkxOrQjmf0NRxFbZ+J0nVTbE/G+BUX1TqVf9xIiRWCUTT4xSqN1uS/pKzRGjVIsSpAjmyx1/rRRNEExZLYqk9vpvBoV/6wvWftuu/AH9tji/A/9rwX4CoNKbBezrnxIAAAAASUVORK5CYII=;" vertex="1" parent="gNoDSgEm0qHazXfeq4_1-38">
          <mxGeometry x="20" y="20" width="21.6" height="20" as="geometry" />
        </mxCell>
        <mxCell id="gNoDSgEm0qHazXfeq4_1-40" value="" style="group" vertex="1" connectable="0" parent="1">
          <mxGeometry x="298.1" y="380" width="60.00000000000003" height="60" as="geometry" />
        </mxCell>
        <mxCell id="gNoDSgEm0qHazXfeq4_1-41" value="" style="whiteSpace=wrap;html=1;fillColor=#E1D5E7;" vertex="1" parent="gNoDSgEm0qHazXfeq4_1-40">
          <mxGeometry width="60" height="60" as="geometry" />
        </mxCell>
        <mxCell id="gNoDSgEm0qHazXfeq4_1-42" value="" style="group" vertex="1" connectable="0" parent="gNoDSgEm0qHazXfeq4_1-40">
          <mxGeometry x="9.200000000000017" y="10" width="41.60000000000002" height="40" as="geometry" />
        </mxCell>
        <mxCell id="gNoDSgEm0qHazXfeq4_1-43" value="" style="shape=image;verticalLabelPosition=bottom;labelBackgroundColor=default;verticalAlign=top;aspect=fixed;imageAspect=0;image=data:image/png,iVBORw0KGgoAAAANSUhEUgAAADYAAAAyCAYAAAAX1CjLAAABV2lDQ1BJQ0MgUHJvZmlsZQAAKJFtkE9LAlEUxY+l2R+LiJZGrsLFJKEGrQIzsEhonEwqWjSO0yiM0+s5EVIfon20a9O+IFy1a9MuKILW9QEECUqm+5xKrR5czo/DeZfLAXr6VcZML4CyZXMltRDa2NwK+V/RhwH4EERY1SosIctpiuBbu1/jAR6h99NiF3JHmZcLe/Jy/iqTG1mt/813vcGCXtFIP2giGuM24JGI5UObCT4mHud0FPGJYMPlc8F5l69bmaySJL4jHtWKaoH4mVjKd/hGB5fNA+3rBnF9QLfW10jHaIJII4UQlrAIhTSOFern/3y8lU9iDwxVcJRgoAibfiXIYTChEy/DgoYIJOIoZmhiouff/bW96iMwlyHYbnvZJ6AmA0OnbS88BQzvALezTOXqT6uehreyG4u6HOCA781x6hOAvwY0ueO8nzlOkzrspZ03+5+MAWDdKoYYuwAAAFZlWElmTU0AKgAAAAgAAYdpAAQAAAABAAAAGgAAAAAAA5KGAAcAAAASAAAARKACAAQAAAABAAAANqADAAQAAAABAAAAMgAAAABBU0NJSQAAAFNjcmVlbnNob3SLWX11AAAB1GlUWHRYTUw6Y29tLmFkb2JlLnhtcAAAAAAAPHg6eG1wbWV0YSB4bWxuczp4PSJhZG9iZTpuczptZXRhLyIgeDp4bXB0az0iWE1QIENvcmUgNi4wLjAiPgogICA8cmRmOlJERiB4bWxuczpyZGY9Imh0dHA6Ly93d3cudzMub3JnLzE5OTkvMDIvMjItcmRmLXN5bnRheC1ucyMiPgogICAgICA8cmRmOkRlc2NyaXB0aW9uIHJkZjphYm91dD0iIgogICAgICAgICAgICB4bWxuczpleGlmPSJodHRwOi8vbnMuYWRvYmUuY29tL2V4aWYvMS4wLyI+CiAgICAgICAgIDxleGlmOlBpeGVsWURpbWVuc2lvbj41MDwvZXhpZjpQaXhlbFlEaW1lbnNpb24+CiAgICAgICAgIDxleGlmOlBpeGVsWERpbWVuc2lvbj41NDwvZXhpZjpQaXhlbFhEaW1lbnNpb24+CiAgICAgICAgIDxleGlmOlVzZXJDb21tZW50PlNjcmVlbnNob3Q8L2V4aWY6VXNlckNvbW1lbnQ+CiAgICAgIDwvcmRmOkRlc2NyaXB0aW9uPgogICA8L3JkZjpSREY+CjwveDp4bXBtZXRhPgoow1cUAAADiUlEQVRoBe2a/04iMRDHi6DyBGjirxcgEKLv4DMb4xtooigPgEiC8jfG33d+yDXXdmd1Riu33t0kzbbdbzvz2cLsYKz9eDWXGFMvLy9OuJUo/+ywVqu5paUlxzW1RjrBGCja8/OzdLsyc/V6fR6Lv4aBiWCcFFBPT0+htpJ96bQIVAS7vr52V1dX81ZJml9BbW5uOtrGxkYhTBFsMpm409NTd3JyUlhQpYnd3V3XaDRsYGdnZ+7g4KBKHIVYgOLEJBNPTBIyx+fZtzLNV8zznfdNu78ZjPQqZSGtw4/oSGTW148ZDKhFg/EwrO9UE9j6+vr8iyploY+chHbNeDx2vmnXmMF6vZ4jGy3SyM58HIHTmhms2+26/f197f5ZdBQKvFctZgIr29iXYFxDI9H4Fs5b9eFabT8bGE81rS1JMrxrgAsNMIs+XKvtZwMD6uHhIfK7srJSgEIAmEUfbaocZAGjthyNRoXvAVXB1tbWvIXxWPXhWm0/G1i/33fHx8eR3729PcepARcaYBZ9uFbbzwp2eHgY+ZWgEHgwrT7aVDnIAubLrOXl5cgtySNNHAis+mhT5eA/2FsPioqftJ6eGHPSL1yr/i3fZfeynNja2prrdDoFH8xxLzWrPl2vGWcBozjG/NU7BiCdC3XpvTK9389yzQJGQDStWfXafUNdFjCqCF9NhJv7rJj+frPqwz21/SxgQFFOPT4+Rn5JJrzLUjCrPtpUOcgCxgkAdXd3V3ALVJotrfrCpoqJLGA3NzduOBy6y8vLyOX29rbb2dlxXEOz6sO12n4WMEqk8/NzsVZsNpsFMKteCxPqsoBxAhcXF+7o6Cjc2wHFiaVm1afrNeMsYNR+VBkkitCkH5nct+rDPbX9rGCrq6uR3/fAtPpoU+UgCxiZr+zE0lRPXFa9kiWSZQFrtVqltSL3UrPq0/WacRYwSiQK3rT2A0Aqtax6DUiqyQYmAaTO/BitRe/XWa4mMP5kdn9/725vby0+Pq3FJ74tZgKjFMLJbDaz+Pi0Fp/4tpgJjKdGsbvoE8Pnl57YdDp1g8HA8uCyaPGJb4uZTsyXQtR6izSg8G0xExgOrE/OEkxOrQjmf0NRxFbZ+J0nVTbE/G+BUX1TqVf9xIiRWCUTT4xSqN1uS/pKzRGjVIsSpAjmyx1/rRRNEExZLYqk9vpvBoV/6wvWftuu/AH9tji/A/9rwX4CoNKbBezrnxIAAAAASUVORK5CYII=;" vertex="1" parent="gNoDSgEm0qHazXfeq4_1-42">
          <mxGeometry width="21.6" height="20" as="geometry" />
        </mxCell>
        <mxCell id="gNoDSgEm0qHazXfeq4_1-44" value="" style="shape=image;verticalLabelPosition=bottom;labelBackgroundColor=default;verticalAlign=top;aspect=fixed;imageAspect=0;image=data:image/png,iVBORw0KGgoAAAANSUhEUgAAADYAAAAyCAYAAAAX1CjLAAABV2lDQ1BJQ0MgUHJvZmlsZQAAKJFtkE9LAlEUxY+l2R+LiJZGrsLFJKEGrQIzsEhonEwqWjSO0yiM0+s5EVIfon20a9O+IFy1a9MuKILW9QEECUqm+5xKrR5czo/DeZfLAXr6VcZML4CyZXMltRDa2NwK+V/RhwH4EERY1SosIctpiuBbu1/jAR6h99NiF3JHmZcLe/Jy/iqTG1mt/813vcGCXtFIP2giGuM24JGI5UObCT4mHud0FPGJYMPlc8F5l69bmaySJL4jHtWKaoH4mVjKd/hGB5fNA+3rBnF9QLfW10jHaIJII4UQlrAIhTSOFern/3y8lU9iDwxVcJRgoAibfiXIYTChEy/DgoYIJOIoZmhiouff/bW96iMwlyHYbnvZJ6AmA0OnbS88BQzvALezTOXqT6uehreyG4u6HOCA781x6hOAvwY0ueO8nzlOkzrspZ03+5+MAWDdKoYYuwAAAFZlWElmTU0AKgAAAAgAAYdpAAQAAAABAAAAGgAAAAAAA5KGAAcAAAASAAAARKACAAQAAAABAAAANqADAAQAAAABAAAAMgAAAABBU0NJSQAAAFNjcmVlbnNob3SLWX11AAAB1GlUWHRYTUw6Y29tLmFkb2JlLnhtcAAAAAAAPHg6eG1wbWV0YSB4bWxuczp4PSJhZG9iZTpuczptZXRhLyIgeDp4bXB0az0iWE1QIENvcmUgNi4wLjAiPgogICA8cmRmOlJERiB4bWxuczpyZGY9Imh0dHA6Ly93d3cudzMub3JnLzE5OTkvMDIvMjItcmRmLXN5bnRheC1ucyMiPgogICAgICA8cmRmOkRlc2NyaXB0aW9uIHJkZjphYm91dD0iIgogICAgICAgICAgICB4bWxuczpleGlmPSJodHRwOi8vbnMuYWRvYmUuY29tL2V4aWYvMS4wLyI+CiAgICAgICAgIDxleGlmOlBpeGVsWURpbWVuc2lvbj41MDwvZXhpZjpQaXhlbFlEaW1lbnNpb24+CiAgICAgICAgIDxleGlmOlBpeGVsWERpbWVuc2lvbj41NDwvZXhpZjpQaXhlbFhEaW1lbnNpb24+CiAgICAgICAgIDxleGlmOlVzZXJDb21tZW50PlNjcmVlbnNob3Q8L2V4aWY6VXNlckNvbW1lbnQ+CiAgICAgIDwvcmRmOkRlc2NyaXB0aW9uPgogICA8L3JkZjpSREY+CjwveDp4bXBtZXRhPgoow1cUAAADiUlEQVRoBe2a/04iMRDHi6DyBGjirxcgEKLv4DMb4xtooigPgEiC8jfG33d+yDXXdmd1Riu33t0kzbbdbzvz2cLsYKz9eDWXGFMvLy9OuJUo/+ywVqu5paUlxzW1RjrBGCja8/OzdLsyc/V6fR6Lv4aBiWCcFFBPT0+htpJ96bQIVAS7vr52V1dX81ZJml9BbW5uOtrGxkYhTBFsMpm409NTd3JyUlhQpYnd3V3XaDRsYGdnZ+7g4KBKHIVYgOLEJBNPTBIyx+fZtzLNV8zznfdNu78ZjPQqZSGtw4/oSGTW148ZDKhFg/EwrO9UE9j6+vr8iyploY+chHbNeDx2vmnXmMF6vZ4jGy3SyM58HIHTmhms2+26/f197f5ZdBQKvFctZgIr29iXYFxDI9H4Fs5b9eFabT8bGE81rS1JMrxrgAsNMIs+XKvtZwMD6uHhIfK7srJSgEIAmEUfbaocZAGjthyNRoXvAVXB1tbWvIXxWPXhWm0/G1i/33fHx8eR3729PcepARcaYBZ9uFbbzwp2eHgY+ZWgEHgwrT7aVDnIAubLrOXl5cgtySNNHAis+mhT5eA/2FsPioqftJ6eGHPSL1yr/i3fZfeynNja2prrdDoFH8xxLzWrPl2vGWcBozjG/NU7BiCdC3XpvTK9389yzQJGQDStWfXafUNdFjCqCF9NhJv7rJj+frPqwz21/SxgQFFOPT4+Rn5JJrzLUjCrPtpUOcgCxgkAdXd3V3ALVJotrfrCpoqJLGA3NzduOBy6y8vLyOX29rbb2dlxXEOz6sO12n4WMEqk8/NzsVZsNpsFMKteCxPqsoBxAhcXF+7o6Cjc2wHFiaVm1afrNeMsYNR+VBkkitCkH5nct+rDPbX9rGCrq6uR3/fAtPpoU+UgCxiZr+zE0lRPXFa9kiWSZQFrtVqltSL3UrPq0/WacRYwSiQK3rT2A0Aqtax6DUiqyQYmAaTO/BitRe/XWa4mMP5kdn9/725vby0+Pq3FJ74tZgKjFMLJbDaz+Pi0Fp/4tpgJjKdGsbvoE8Pnl57YdDp1g8HA8uCyaPGJb4uZTsyXQtR6izSg8G0xExgOrE/OEkxOrQjmf0NRxFbZ+J0nVTbE/G+BUX1TqVf9xIiRWCUTT4xSqN1uS/pKzRGjVIsSpAjmyx1/rRRNEExZLYqk9vpvBoV/6wvWftuu/AH9tji/A/9rwX4CoNKbBezrnxIAAAAASUVORK5CYII=;" vertex="1" parent="gNoDSgEm0qHazXfeq4_1-42">
          <mxGeometry x="10" y="10" width="21.6" height="20" as="geometry" />
        </mxCell>
        <mxCell id="gNoDSgEm0qHazXfeq4_1-45" value="" style="shape=image;verticalLabelPosition=bottom;labelBackgroundColor=default;verticalAlign=top;aspect=fixed;imageAspect=0;image=data:image/png,iVBORw0KGgoAAAANSUhEUgAAADYAAAAyCAYAAAAX1CjLAAABV2lDQ1BJQ0MgUHJvZmlsZQAAKJFtkE9LAlEUxY+l2R+LiJZGrsLFJKEGrQIzsEhonEwqWjSO0yiM0+s5EVIfon20a9O+IFy1a9MuKILW9QEECUqm+5xKrR5czo/DeZfLAXr6VcZML4CyZXMltRDa2NwK+V/RhwH4EERY1SosIctpiuBbu1/jAR6h99NiF3JHmZcLe/Jy/iqTG1mt/813vcGCXtFIP2giGuM24JGI5UObCT4mHud0FPGJYMPlc8F5l69bmaySJL4jHtWKaoH4mVjKd/hGB5fNA+3rBnF9QLfW10jHaIJII4UQlrAIhTSOFern/3y8lU9iDwxVcJRgoAibfiXIYTChEy/DgoYIJOIoZmhiouff/bW96iMwlyHYbnvZJ6AmA0OnbS88BQzvALezTOXqT6uehreyG4u6HOCA781x6hOAvwY0ueO8nzlOkzrspZ03+5+MAWDdKoYYuwAAAFZlWElmTU0AKgAAAAgAAYdpAAQAAAABAAAAGgAAAAAAA5KGAAcAAAASAAAARKACAAQAAAABAAAANqADAAQAAAABAAAAMgAAAABBU0NJSQAAAFNjcmVlbnNob3SLWX11AAAB1GlUWHRYTUw6Y29tLmFkb2JlLnhtcAAAAAAAPHg6eG1wbWV0YSB4bWxuczp4PSJhZG9iZTpuczptZXRhLyIgeDp4bXB0az0iWE1QIENvcmUgNi4wLjAiPgogICA8cmRmOlJERiB4bWxuczpyZGY9Imh0dHA6Ly93d3cudzMub3JnLzE5OTkvMDIvMjItcmRmLXN5bnRheC1ucyMiPgogICAgICA8cmRmOkRlc2NyaXB0aW9uIHJkZjphYm91dD0iIgogICAgICAgICAgICB4bWxuczpleGlmPSJodHRwOi8vbnMuYWRvYmUuY29tL2V4aWYvMS4wLyI+CiAgICAgICAgIDxleGlmOlBpeGVsWURpbWVuc2lvbj41MDwvZXhpZjpQaXhlbFlEaW1lbnNpb24+CiAgICAgICAgIDxleGlmOlBpeGVsWERpbWVuc2lvbj41NDwvZXhpZjpQaXhlbFhEaW1lbnNpb24+CiAgICAgICAgIDxleGlmOlVzZXJDb21tZW50PlNjcmVlbnNob3Q8L2V4aWY6VXNlckNvbW1lbnQ+CiAgICAgIDwvcmRmOkRlc2NyaXB0aW9uPgogICA8L3JkZjpSREY+CjwveDp4bXBtZXRhPgoow1cUAAADiUlEQVRoBe2a/04iMRDHi6DyBGjirxcgEKLv4DMb4xtooigPgEiC8jfG33d+yDXXdmd1Riu33t0kzbbdbzvz2cLsYKz9eDWXGFMvLy9OuJUo/+ywVqu5paUlxzW1RjrBGCja8/OzdLsyc/V6fR6Lv4aBiWCcFFBPT0+htpJ96bQIVAS7vr52V1dX81ZJml9BbW5uOtrGxkYhTBFsMpm409NTd3JyUlhQpYnd3V3XaDRsYGdnZ+7g4KBKHIVYgOLEJBNPTBIyx+fZtzLNV8zznfdNu78ZjPQqZSGtw4/oSGTW148ZDKhFg/EwrO9UE9j6+vr8iyploY+chHbNeDx2vmnXmMF6vZ4jGy3SyM58HIHTmhms2+26/f197f5ZdBQKvFctZgIr29iXYFxDI9H4Fs5b9eFabT8bGE81rS1JMrxrgAsNMIs+XKvtZwMD6uHhIfK7srJSgEIAmEUfbaocZAGjthyNRoXvAVXB1tbWvIXxWPXhWm0/G1i/33fHx8eR3729PcepARcaYBZ9uFbbzwp2eHgY+ZWgEHgwrT7aVDnIAubLrOXl5cgtySNNHAis+mhT5eA/2FsPioqftJ6eGHPSL1yr/i3fZfeynNja2prrdDoFH8xxLzWrPl2vGWcBozjG/NU7BiCdC3XpvTK9389yzQJGQDStWfXafUNdFjCqCF9NhJv7rJj+frPqwz21/SxgQFFOPT4+Rn5JJrzLUjCrPtpUOcgCxgkAdXd3V3ALVJotrfrCpoqJLGA3NzduOBy6y8vLyOX29rbb2dlxXEOz6sO12n4WMEqk8/NzsVZsNpsFMKteCxPqsoBxAhcXF+7o6Cjc2wHFiaVm1afrNeMsYNR+VBkkitCkH5nct+rDPbX9rGCrq6uR3/fAtPpoU+UgCxiZr+zE0lRPXFa9kiWSZQFrtVqltSL3UrPq0/WacRYwSiQK3rT2A0Aqtax6DUiqyQYmAaTO/BitRe/XWa4mMP5kdn9/725vby0+Pq3FJ74tZgKjFMLJbDaz+Pi0Fp/4tpgJjKdGsbvoE8Pnl57YdDp1g8HA8uCyaPGJb4uZTsyXQtR6izSg8G0xExgOrE/OEkxOrQjmf0NRxFbZ+J0nVTbE/G+BUX1TqVf9xIiRWCUTT4xSqN1uS/pKzRGjVIsSpAjmyx1/rRRNEExZLYqk9vpvBoV/6wvWftuu/AH9tji/A/9rwX4CoNKbBezrnxIAAAAASUVORK5CYII=;" vertex="1" parent="gNoDSgEm0qHazXfeq4_1-42">
          <mxGeometry x="20" y="20" width="21.6" height="20" as="geometry" />
        </mxCell>
        <mxCell id="gNoDSgEm0qHazXfeq4_1-46" value="" style="group" vertex="1" connectable="0" parent="1">
          <mxGeometry x="298.1" y="280" width="60.00000000000003" height="60" as="geometry" />
        </mxCell>
        <mxCell id="gNoDSgEm0qHazXfeq4_1-47" value="" style="whiteSpace=wrap;html=1;fillColor=#E1D5E7;" vertex="1" parent="gNoDSgEm0qHazXfeq4_1-46">
          <mxGeometry width="60" height="60" as="geometry" />
        </mxCell>
        <mxCell id="gNoDSgEm0qHazXfeq4_1-48" value="" style="group" vertex="1" connectable="0" parent="gNoDSgEm0qHazXfeq4_1-46">
          <mxGeometry x="9.200000000000017" y="10" width="41.60000000000002" height="40" as="geometry" />
        </mxCell>
        <mxCell id="gNoDSgEm0qHazXfeq4_1-49" value="" style="shape=image;verticalLabelPosition=bottom;labelBackgroundColor=default;verticalAlign=top;aspect=fixed;imageAspect=0;image=data:image/png,iVBORw0KGgoAAAANSUhEUgAAADYAAAAyCAYAAAAX1CjLAAABV2lDQ1BJQ0MgUHJvZmlsZQAAKJFtkE9LAlEUxY+l2R+LiJZGrsLFJKEGrQIzsEhonEwqWjSO0yiM0+s5EVIfon20a9O+IFy1a9MuKILW9QEECUqm+5xKrR5czo/DeZfLAXr6VcZML4CyZXMltRDa2NwK+V/RhwH4EERY1SosIctpiuBbu1/jAR6h99NiF3JHmZcLe/Jy/iqTG1mt/813vcGCXtFIP2giGuM24JGI5UObCT4mHud0FPGJYMPlc8F5l69bmaySJL4jHtWKaoH4mVjKd/hGB5fNA+3rBnF9QLfW10jHaIJII4UQlrAIhTSOFern/3y8lU9iDwxVcJRgoAibfiXIYTChEy/DgoYIJOIoZmhiouff/bW96iMwlyHYbnvZJ6AmA0OnbS88BQzvALezTOXqT6uehreyG4u6HOCA781x6hOAvwY0ueO8nzlOkzrspZ03+5+MAWDdKoYYuwAAAFZlWElmTU0AKgAAAAgAAYdpAAQAAAABAAAAGgAAAAAAA5KGAAcAAAASAAAARKACAAQAAAABAAAANqADAAQAAAABAAAAMgAAAABBU0NJSQAAAFNjcmVlbnNob3SLWX11AAAB1GlUWHRYTUw6Y29tLmFkb2JlLnhtcAAAAAAAPHg6eG1wbWV0YSB4bWxuczp4PSJhZG9iZTpuczptZXRhLyIgeDp4bXB0az0iWE1QIENvcmUgNi4wLjAiPgogICA8cmRmOlJERiB4bWxuczpyZGY9Imh0dHA6Ly93d3cudzMub3JnLzE5OTkvMDIvMjItcmRmLXN5bnRheC1ucyMiPgogICAgICA8cmRmOkRlc2NyaXB0aW9uIHJkZjphYm91dD0iIgogICAgICAgICAgICB4bWxuczpleGlmPSJodHRwOi8vbnMuYWRvYmUuY29tL2V4aWYvMS4wLyI+CiAgICAgICAgIDxleGlmOlBpeGVsWURpbWVuc2lvbj41MDwvZXhpZjpQaXhlbFlEaW1lbnNpb24+CiAgICAgICAgIDxleGlmOlBpeGVsWERpbWVuc2lvbj41NDwvZXhpZjpQaXhlbFhEaW1lbnNpb24+CiAgICAgICAgIDxleGlmOlVzZXJDb21tZW50PlNjcmVlbnNob3Q8L2V4aWY6VXNlckNvbW1lbnQ+CiAgICAgIDwvcmRmOkRlc2NyaXB0aW9uPgogICA8L3JkZjpSREY+CjwveDp4bXBtZXRhPgoow1cUAAADiUlEQVRoBe2a/04iMRDHi6DyBGjirxcgEKLv4DMb4xtooigPgEiC8jfG33d+yDXXdmd1Riu33t0kzbbdbzvz2cLsYKz9eDWXGFMvLy9OuJUo/+ywVqu5paUlxzW1RjrBGCja8/OzdLsyc/V6fR6Lv4aBiWCcFFBPT0+htpJ96bQIVAS7vr52V1dX81ZJml9BbW5uOtrGxkYhTBFsMpm409NTd3JyUlhQpYnd3V3XaDRsYGdnZ+7g4KBKHIVYgOLEJBNPTBIyx+fZtzLNV8zznfdNu78ZjPQqZSGtw4/oSGTW148ZDKhFg/EwrO9UE9j6+vr8iyploY+chHbNeDx2vmnXmMF6vZ4jGy3SyM58HIHTmhms2+26/f197f5ZdBQKvFctZgIr29iXYFxDI9H4Fs5b9eFabT8bGE81rS1JMrxrgAsNMIs+XKvtZwMD6uHhIfK7srJSgEIAmEUfbaocZAGjthyNRoXvAVXB1tbWvIXxWPXhWm0/G1i/33fHx8eR3729PcepARcaYBZ9uFbbzwp2eHgY+ZWgEHgwrT7aVDnIAubLrOXl5cgtySNNHAis+mhT5eA/2FsPioqftJ6eGHPSL1yr/i3fZfeynNja2prrdDoFH8xxLzWrPl2vGWcBozjG/NU7BiCdC3XpvTK9389yzQJGQDStWfXafUNdFjCqCF9NhJv7rJj+frPqwz21/SxgQFFOPT4+Rn5JJrzLUjCrPtpUOcgCxgkAdXd3V3ALVJotrfrCpoqJLGA3NzduOBy6y8vLyOX29rbb2dlxXEOz6sO12n4WMEqk8/NzsVZsNpsFMKteCxPqsoBxAhcXF+7o6Cjc2wHFiaVm1afrNeMsYNR+VBkkitCkH5nct+rDPbX9rGCrq6uR3/fAtPpoU+UgCxiZr+zE0lRPXFa9kiWSZQFrtVqltSL3UrPq0/WacRYwSiQK3rT2A0Aqtax6DUiqyQYmAaTO/BitRe/XWa4mMP5kdn9/725vby0+Pq3FJ74tZgKjFMLJbDaz+Pi0Fp/4tpgJjKdGsbvoE8Pnl57YdDp1g8HA8uCyaPGJb4uZTsyXQtR6izSg8G0xExgOrE/OEkxOrQjmf0NRxFbZ+J0nVTbE/G+BUX1TqVf9xIiRWCUTT4xSqN1uS/pKzRGjVIsSpAjmyx1/rRRNEExZLYqk9vpvBoV/6wvWftuu/AH9tji/A/9rwX4CoNKbBezrnxIAAAAASUVORK5CYII=;" vertex="1" parent="gNoDSgEm0qHazXfeq4_1-48">
          <mxGeometry width="21.6" height="20" as="geometry" />
        </mxCell>
        <mxCell id="gNoDSgEm0qHazXfeq4_1-50" value="" style="shape=image;verticalLabelPosition=bottom;labelBackgroundColor=default;verticalAlign=top;aspect=fixed;imageAspect=0;image=data:image/png,iVBORw0KGgoAAAANSUhEUgAAADYAAAAyCAYAAAAX1CjLAAABV2lDQ1BJQ0MgUHJvZmlsZQAAKJFtkE9LAlEUxY+l2R+LiJZGrsLFJKEGrQIzsEhonEwqWjSO0yiM0+s5EVIfon20a9O+IFy1a9MuKILW9QEECUqm+5xKrR5czo/DeZfLAXr6VcZML4CyZXMltRDa2NwK+V/RhwH4EERY1SosIctpiuBbu1/jAR6h99NiF3JHmZcLe/Jy/iqTG1mt/813vcGCXtFIP2giGuM24JGI5UObCT4mHud0FPGJYMPlc8F5l69bmaySJL4jHtWKaoH4mVjKd/hGB5fNA+3rBnF9QLfW10jHaIJII4UQlrAIhTSOFern/3y8lU9iDwxVcJRgoAibfiXIYTChEy/DgoYIJOIoZmhiouff/bW96iMwlyHYbnvZJ6AmA0OnbS88BQzvALezTOXqT6uehreyG4u6HOCA781x6hOAvwY0ueO8nzlOkzrspZ03+5+MAWDdKoYYuwAAAFZlWElmTU0AKgAAAAgAAYdpAAQAAAABAAAAGgAAAAAAA5KGAAcAAAASAAAARKACAAQAAAABAAAANqADAAQAAAABAAAAMgAAAABBU0NJSQAAAFNjcmVlbnNob3SLWX11AAAB1GlUWHRYTUw6Y29tLmFkb2JlLnhtcAAAAAAAPHg6eG1wbWV0YSB4bWxuczp4PSJhZG9iZTpuczptZXRhLyIgeDp4bXB0az0iWE1QIENvcmUgNi4wLjAiPgogICA8cmRmOlJERiB4bWxuczpyZGY9Imh0dHA6Ly93d3cudzMub3JnLzE5OTkvMDIvMjItcmRmLXN5bnRheC1ucyMiPgogICAgICA8cmRmOkRlc2NyaXB0aW9uIHJkZjphYm91dD0iIgogICAgICAgICAgICB4bWxuczpleGlmPSJodHRwOi8vbnMuYWRvYmUuY29tL2V4aWYvMS4wLyI+CiAgICAgICAgIDxleGlmOlBpeGVsWURpbWVuc2lvbj41MDwvZXhpZjpQaXhlbFlEaW1lbnNpb24+CiAgICAgICAgIDxleGlmOlBpeGVsWERpbWVuc2lvbj41NDwvZXhpZjpQaXhlbFhEaW1lbnNpb24+CiAgICAgICAgIDxleGlmOlVzZXJDb21tZW50PlNjcmVlbnNob3Q8L2V4aWY6VXNlckNvbW1lbnQ+CiAgICAgIDwvcmRmOkRlc2NyaXB0aW9uPgogICA8L3JkZjpSREY+CjwveDp4bXBtZXRhPgoow1cUAAADiUlEQVRoBe2a/04iMRDHi6DyBGjirxcgEKLv4DMb4xtooigPgEiC8jfG33d+yDXXdmd1Riu33t0kzbbdbzvz2cLsYKz9eDWXGFMvLy9OuJUo/+ywVqu5paUlxzW1RjrBGCja8/OzdLsyc/V6fR6Lv4aBiWCcFFBPT0+htpJ96bQIVAS7vr52V1dX81ZJml9BbW5uOtrGxkYhTBFsMpm409NTd3JyUlhQpYnd3V3XaDRsYGdnZ+7g4KBKHIVYgOLEJBNPTBIyx+fZtzLNV8zznfdNu78ZjPQqZSGtw4/oSGTW148ZDKhFg/EwrO9UE9j6+vr8iyploY+chHbNeDx2vmnXmMF6vZ4jGy3SyM58HIHTmhms2+26/f197f5ZdBQKvFctZgIr29iXYFxDI9H4Fs5b9eFabT8bGE81rS1JMrxrgAsNMIs+XKvtZwMD6uHhIfK7srJSgEIAmEUfbaocZAGjthyNRoXvAVXB1tbWvIXxWPXhWm0/G1i/33fHx8eR3729PcepARcaYBZ9uFbbzwp2eHgY+ZWgEHgwrT7aVDnIAubLrOXl5cgtySNNHAis+mhT5eA/2FsPioqftJ6eGHPSL1yr/i3fZfeynNja2prrdDoFH8xxLzWrPl2vGWcBozjG/NU7BiCdC3XpvTK9389yzQJGQDStWfXafUNdFjCqCF9NhJv7rJj+frPqwz21/SxgQFFOPT4+Rn5JJrzLUjCrPtpUOcgCxgkAdXd3V3ALVJotrfrCpoqJLGA3NzduOBy6y8vLyOX29rbb2dlxXEOz6sO12n4WMEqk8/NzsVZsNpsFMKteCxPqsoBxAhcXF+7o6Cjc2wHFiaVm1afrNeMsYNR+VBkkitCkH5nct+rDPbX9rGCrq6uR3/fAtPpoU+UgCxiZr+zE0lRPXFa9kiWSZQFrtVqltSL3UrPq0/WacRYwSiQK3rT2A0Aqtax6DUiqyQYmAaTO/BitRe/XWa4mMP5kdn9/725vby0+Pq3FJ74tZgKjFMLJbDaz+Pi0Fp/4tpgJjKdGsbvoE8Pnl57YdDp1g8HA8uCyaPGJb4uZTsyXQtR6izSg8G0xExgOrE/OEkxOrQjmf0NRxFbZ+J0nVTbE/G+BUX1TqVf9xIiRWCUTT4xSqN1uS/pKzRGjVIsSpAjmyx1/rRRNEExZLYqk9vpvBoV/6wvWftuu/AH9tji/A/9rwX4CoNKbBezrnxIAAAAASUVORK5CYII=;" vertex="1" parent="gNoDSgEm0qHazXfeq4_1-48">
          <mxGeometry x="10" y="10" width="21.6" height="20" as="geometry" />
        </mxCell>
        <mxCell id="gNoDSgEm0qHazXfeq4_1-51" value="" style="shape=image;verticalLabelPosition=bottom;labelBackgroundColor=default;verticalAlign=top;aspect=fixed;imageAspect=0;image=data:image/png,iVBORw0KGgoAAAANSUhEUgAAADYAAAAyCAYAAAAX1CjLAAABV2lDQ1BJQ0MgUHJvZmlsZQAAKJFtkE9LAlEUxY+l2R+LiJZGrsLFJKEGrQIzsEhonEwqWjSO0yiM0+s5EVIfon20a9O+IFy1a9MuKILW9QEECUqm+5xKrR5czo/DeZfLAXr6VcZML4CyZXMltRDa2NwK+V/RhwH4EERY1SosIctpiuBbu1/jAR6h99NiF3JHmZcLe/Jy/iqTG1mt/813vcGCXtFIP2giGuM24JGI5UObCT4mHud0FPGJYMPlc8F5l69bmaySJL4jHtWKaoH4mVjKd/hGB5fNA+3rBnF9QLfW10jHaIJII4UQlrAIhTSOFern/3y8lU9iDwxVcJRgoAibfiXIYTChEy/DgoYIJOIoZmhiouff/bW96iMwlyHYbnvZJ6AmA0OnbS88BQzvALezTOXqT6uehreyG4u6HOCA781x6hOAvwY0ueO8nzlOkzrspZ03+5+MAWDdKoYYuwAAAFZlWElmTU0AKgAAAAgAAYdpAAQAAAABAAAAGgAAAAAAA5KGAAcAAAASAAAARKACAAQAAAABAAAANqADAAQAAAABAAAAMgAAAABBU0NJSQAAAFNjcmVlbnNob3SLWX11AAAB1GlUWHRYTUw6Y29tLmFkb2JlLnhtcAAAAAAAPHg6eG1wbWV0YSB4bWxuczp4PSJhZG9iZTpuczptZXRhLyIgeDp4bXB0az0iWE1QIENvcmUgNi4wLjAiPgogICA8cmRmOlJERiB4bWxuczpyZGY9Imh0dHA6Ly93d3cudzMub3JnLzE5OTkvMDIvMjItcmRmLXN5bnRheC1ucyMiPgogICAgICA8cmRmOkRlc2NyaXB0aW9uIHJkZjphYm91dD0iIgogICAgICAgICAgICB4bWxuczpleGlmPSJodHRwOi8vbnMuYWRvYmUuY29tL2V4aWYvMS4wLyI+CiAgICAgICAgIDxleGlmOlBpeGVsWURpbWVuc2lvbj41MDwvZXhpZjpQaXhlbFlEaW1lbnNpb24+CiAgICAgICAgIDxleGlmOlBpeGVsWERpbWVuc2lvbj41NDwvZXhpZjpQaXhlbFhEaW1lbnNpb24+CiAgICAgICAgIDxleGlmOlVzZXJDb21tZW50PlNjcmVlbnNob3Q8L2V4aWY6VXNlckNvbW1lbnQ+CiAgICAgIDwvcmRmOkRlc2NyaXB0aW9uPgogICA8L3JkZjpSREY+CjwveDp4bXBtZXRhPgoow1cUAAADiUlEQVRoBe2a/04iMRDHi6DyBGjirxcgEKLv4DMb4xtooigPgEiC8jfG33d+yDXXdmd1Riu33t0kzbbdbzvz2cLsYKz9eDWXGFMvLy9OuJUo/+ywVqu5paUlxzW1RjrBGCja8/OzdLsyc/V6fR6Lv4aBiWCcFFBPT0+htpJ96bQIVAS7vr52V1dX81ZJml9BbW5uOtrGxkYhTBFsMpm409NTd3JyUlhQpYnd3V3XaDRsYGdnZ+7g4KBKHIVYgOLEJBNPTBIyx+fZtzLNV8zznfdNu78ZjPQqZSGtw4/oSGTW148ZDKhFg/EwrO9UE9j6+vr8iyploY+chHbNeDx2vmnXmMF6vZ4jGy3SyM58HIHTmhms2+26/f197f5ZdBQKvFctZgIr29iXYFxDI9H4Fs5b9eFabT8bGE81rS1JMrxrgAsNMIs+XKvtZwMD6uHhIfK7srJSgEIAmEUfbaocZAGjthyNRoXvAVXB1tbWvIXxWPXhWm0/G1i/33fHx8eR3729PcepARcaYBZ9uFbbzwp2eHgY+ZWgEHgwrT7aVDnIAubLrOXl5cgtySNNHAis+mhT5eA/2FsPioqftJ6eGHPSL1yr/i3fZfeynNja2prrdDoFH8xxLzWrPl2vGWcBozjG/NU7BiCdC3XpvTK9389yzQJGQDStWfXafUNdFjCqCF9NhJv7rJj+frPqwz21/SxgQFFOPT4+Rn5JJrzLUjCrPtpUOcgCxgkAdXd3V3ALVJotrfrCpoqJLGA3NzduOBy6y8vLyOX29rbb2dlxXEOz6sO12n4WMEqk8/NzsVZsNpsFMKteCxPqsoBxAhcXF+7o6Cjc2wHFiaVm1afrNeMsYNR+VBkkitCkH5nct+rDPbX9rGCrq6uR3/fAtPpoU+UgCxiZr+zE0lRPXFa9kiWSZQFrtVqltSL3UrPq0/WacRYwSiQK3rT2A0Aqtax6DUiqyQYmAaTO/BitRe/XWa4mMP5kdn9/725vby0+Pq3FJ74tZgKjFMLJbDaz+Pi0Fp/4tpgJjKdGsbvoE8Pnl57YdDp1g8HA8uCyaPGJb4uZTsyXQtR6izSg8G0xExgOrE/OEkxOrQjmf0NRxFbZ+J0nVTbE/G+BUX1TqVf9xIiRWCUTT4xSqN1uS/pKzRGjVIsSpAjmyx1/rRRNEExZLYqk9vpvBoV/6wvWftuu/AH9tji/A/9rwX4CoNKbBezrnxIAAAAASUVORK5CYII=;" vertex="1" parent="gNoDSgEm0qHazXfeq4_1-48">
          <mxGeometry x="20" y="20" width="21.6" height="20" as="geometry" />
        </mxCell>
        <mxCell id="gNoDSgEm0qHazXfeq4_1-52" value="" style="group" vertex="1" connectable="0" parent="1">
          <mxGeometry x="298.1" y="480" width="60.00000000000003" height="60" as="geometry" />
        </mxCell>
        <mxCell id="gNoDSgEm0qHazXfeq4_1-53" value="" style="whiteSpace=wrap;html=1;fillColor=#E1D5E7;" vertex="1" parent="gNoDSgEm0qHazXfeq4_1-52">
          <mxGeometry width="60" height="60" as="geometry" />
        </mxCell>
        <mxCell id="gNoDSgEm0qHazXfeq4_1-54" value="" style="group" vertex="1" connectable="0" parent="gNoDSgEm0qHazXfeq4_1-52">
          <mxGeometry x="9.200000000000017" y="10" width="41.60000000000002" height="40" as="geometry" />
        </mxCell>
        <mxCell id="gNoDSgEm0qHazXfeq4_1-55" value="" style="shape=image;verticalLabelPosition=bottom;labelBackgroundColor=default;verticalAlign=top;aspect=fixed;imageAspect=0;image=data:image/png,iVBORw0KGgoAAAANSUhEUgAAADYAAAAyCAYAAAAX1CjLAAABV2lDQ1BJQ0MgUHJvZmlsZQAAKJFtkE9LAlEUxY+l2R+LiJZGrsLFJKEGrQIzsEhonEwqWjSO0yiM0+s5EVIfon20a9O+IFy1a9MuKILW9QEECUqm+5xKrR5czo/DeZfLAXr6VcZML4CyZXMltRDa2NwK+V/RhwH4EERY1SosIctpiuBbu1/jAR6h99NiF3JHmZcLe/Jy/iqTG1mt/813vcGCXtFIP2giGuM24JGI5UObCT4mHud0FPGJYMPlc8F5l69bmaySJL4jHtWKaoH4mVjKd/hGB5fNA+3rBnF9QLfW10jHaIJII4UQlrAIhTSOFern/3y8lU9iDwxVcJRgoAibfiXIYTChEy/DgoYIJOIoZmhiouff/bW96iMwlyHYbnvZJ6AmA0OnbS88BQzvALezTOXqT6uehreyG4u6HOCA781x6hOAvwY0ueO8nzlOkzrspZ03+5+MAWDdKoYYuwAAAFZlWElmTU0AKgAAAAgAAYdpAAQAAAABAAAAGgAAAAAAA5KGAAcAAAASAAAARKACAAQAAAABAAAANqADAAQAAAABAAAAMgAAAABBU0NJSQAAAFNjcmVlbnNob3SLWX11AAAB1GlUWHRYTUw6Y29tLmFkb2JlLnhtcAAAAAAAPHg6eG1wbWV0YSB4bWxuczp4PSJhZG9iZTpuczptZXRhLyIgeDp4bXB0az0iWE1QIENvcmUgNi4wLjAiPgogICA8cmRmOlJERiB4bWxuczpyZGY9Imh0dHA6Ly93d3cudzMub3JnLzE5OTkvMDIvMjItcmRmLXN5bnRheC1ucyMiPgogICAgICA8cmRmOkRlc2NyaXB0aW9uIHJkZjphYm91dD0iIgogICAgICAgICAgICB4bWxuczpleGlmPSJodHRwOi8vbnMuYWRvYmUuY29tL2V4aWYvMS4wLyI+CiAgICAgICAgIDxleGlmOlBpeGVsWURpbWVuc2lvbj41MDwvZXhpZjpQaXhlbFlEaW1lbnNpb24+CiAgICAgICAgIDxleGlmOlBpeGVsWERpbWVuc2lvbj41NDwvZXhpZjpQaXhlbFhEaW1lbnNpb24+CiAgICAgICAgIDxleGlmOlVzZXJDb21tZW50PlNjcmVlbnNob3Q8L2V4aWY6VXNlckNvbW1lbnQ+CiAgICAgIDwvcmRmOkRlc2NyaXB0aW9uPgogICA8L3JkZjpSREY+CjwveDp4bXBtZXRhPgoow1cUAAADiUlEQVRoBe2a/04iMRDHi6DyBGjirxcgEKLv4DMb4xtooigPgEiC8jfG33d+yDXXdmd1Riu33t0kzbbdbzvz2cLsYKz9eDWXGFMvLy9OuJUo/+ywVqu5paUlxzW1RjrBGCja8/OzdLsyc/V6fR6Lv4aBiWCcFFBPT0+htpJ96bQIVAS7vr52V1dX81ZJml9BbW5uOtrGxkYhTBFsMpm409NTd3JyUlhQpYnd3V3XaDRsYGdnZ+7g4KBKHIVYgOLEJBNPTBIyx+fZtzLNV8zznfdNu78ZjPQqZSGtw4/oSGTW148ZDKhFg/EwrO9UE9j6+vr8iyploY+chHbNeDx2vmnXmMF6vZ4jGy3SyM58HIHTmhms2+26/f197f5ZdBQKvFctZgIr29iXYFxDI9H4Fs5b9eFabT8bGE81rS1JMrxrgAsNMIs+XKvtZwMD6uHhIfK7srJSgEIAmEUfbaocZAGjthyNRoXvAVXB1tbWvIXxWPXhWm0/G1i/33fHx8eR3729PcepARcaYBZ9uFbbzwp2eHgY+ZWgEHgwrT7aVDnIAubLrOXl5cgtySNNHAis+mhT5eA/2FsPioqftJ6eGHPSL1yr/i3fZfeynNja2prrdDoFH8xxLzWrPl2vGWcBozjG/NU7BiCdC3XpvTK9389yzQJGQDStWfXafUNdFjCqCF9NhJv7rJj+frPqwz21/SxgQFFOPT4+Rn5JJrzLUjCrPtpUOcgCxgkAdXd3V3ALVJotrfrCpoqJLGA3NzduOBy6y8vLyOX29rbb2dlxXEOz6sO12n4WMEqk8/NzsVZsNpsFMKteCxPqsoBxAhcXF+7o6Cjc2wHFiaVm1afrNeMsYNR+VBkkitCkH5nct+rDPbX9rGCrq6uR3/fAtPpoU+UgCxiZr+zE0lRPXFa9kiWSZQFrtVqltSL3UrPq0/WacRYwSiQK3rT2A0Aqtax6DUiqyQYmAaTO/BitRe/XWa4mMP5kdn9/725vby0+Pq3FJ74tZgKjFMLJbDaz+Pi0Fp/4tpgJjKdGsbvoE8Pnl57YdDp1g8HA8uCyaPGJb4uZTsyXQtR6izSg8G0xExgOrE/OEkxOrQjmf0NRxFbZ+J0nVTbE/G+BUX1TqVf9xIiRWCUTT4xSqN1uS/pKzRGjVIsSpAjmyx1/rRRNEExZLYqk9vpvBoV/6wvWftuu/AH9tji/A/9rwX4CoNKbBezrnxIAAAAASUVORK5CYII=;" vertex="1" parent="gNoDSgEm0qHazXfeq4_1-54">
          <mxGeometry width="21.6" height="20" as="geometry" />
        </mxCell>
        <mxCell id="gNoDSgEm0qHazXfeq4_1-56" value="" style="shape=image;verticalLabelPosition=bottom;labelBackgroundColor=default;verticalAlign=top;aspect=fixed;imageAspect=0;image=data:image/png,iVBORw0KGgoAAAANSUhEUgAAADYAAAAyCAYAAAAX1CjLAAABV2lDQ1BJQ0MgUHJvZmlsZQAAKJFtkE9LAlEUxY+l2R+LiJZGrsLFJKEGrQIzsEhonEwqWjSO0yiM0+s5EVIfon20a9O+IFy1a9MuKILW9QEECUqm+5xKrR5czo/DeZfLAXr6VcZML4CyZXMltRDa2NwK+V/RhwH4EERY1SosIctpiuBbu1/jAR6h99NiF3JHmZcLe/Jy/iqTG1mt/813vcGCXtFIP2giGuM24JGI5UObCT4mHud0FPGJYMPlc8F5l69bmaySJL4jHtWKaoH4mVjKd/hGB5fNA+3rBnF9QLfW10jHaIJII4UQlrAIhTSOFern/3y8lU9iDwxVcJRgoAibfiXIYTChEy/DgoYIJOIoZmhiouff/bW96iMwlyHYbnvZJ6AmA0OnbS88BQzvALezTOXqT6uehreyG4u6HOCA781x6hOAvwY0ueO8nzlOkzrspZ03+5+MAWDdKoYYuwAAAFZlWElmTU0AKgAAAAgAAYdpAAQAAAABAAAAGgAAAAAAA5KGAAcAAAASAAAARKACAAQAAAABAAAANqADAAQAAAABAAAAMgAAAABBU0NJSQAAAFNjcmVlbnNob3SLWX11AAAB1GlUWHRYTUw6Y29tLmFkb2JlLnhtcAAAAAAAPHg6eG1wbWV0YSB4bWxuczp4PSJhZG9iZTpuczptZXRhLyIgeDp4bXB0az0iWE1QIENvcmUgNi4wLjAiPgogICA8cmRmOlJERiB4bWxuczpyZGY9Imh0dHA6Ly93d3cudzMub3JnLzE5OTkvMDIvMjItcmRmLXN5bnRheC1ucyMiPgogICAgICA8cmRmOkRlc2NyaXB0aW9uIHJkZjphYm91dD0iIgogICAgICAgICAgICB4bWxuczpleGlmPSJodHRwOi8vbnMuYWRvYmUuY29tL2V4aWYvMS4wLyI+CiAgICAgICAgIDxleGlmOlBpeGVsWURpbWVuc2lvbj41MDwvZXhpZjpQaXhlbFlEaW1lbnNpb24+CiAgICAgICAgIDxleGlmOlBpeGVsWERpbWVuc2lvbj41NDwvZXhpZjpQaXhlbFhEaW1lbnNpb24+CiAgICAgICAgIDxleGlmOlVzZXJDb21tZW50PlNjcmVlbnNob3Q8L2V4aWY6VXNlckNvbW1lbnQ+CiAgICAgIDwvcmRmOkRlc2NyaXB0aW9uPgogICA8L3JkZjpSREY+CjwveDp4bXBtZXRhPgoow1cUAAADiUlEQVRoBe2a/04iMRDHi6DyBGjirxcgEKLv4DMb4xtooigPgEiC8jfG33d+yDXXdmd1Riu33t0kzbbdbzvz2cLsYKz9eDWXGFMvLy9OuJUo/+ywVqu5paUlxzW1RjrBGCja8/OzdLsyc/V6fR6Lv4aBiWCcFFBPT0+htpJ96bQIVAS7vr52V1dX81ZJml9BbW5uOtrGxkYhTBFsMpm409NTd3JyUlhQpYnd3V3XaDRsYGdnZ+7g4KBKHIVYgOLEJBNPTBIyx+fZtzLNV8zznfdNu78ZjPQqZSGtw4/oSGTW148ZDKhFg/EwrO9UE9j6+vr8iyploY+chHbNeDx2vmnXmMF6vZ4jGy3SyM58HIHTmhms2+26/f197f5ZdBQKvFctZgIr29iXYFxDI9H4Fs5b9eFabT8bGE81rS1JMrxrgAsNMIs+XKvtZwMD6uHhIfK7srJSgEIAmEUfbaocZAGjthyNRoXvAVXB1tbWvIXxWPXhWm0/G1i/33fHx8eR3729PcepARcaYBZ9uFbbzwp2eHgY+ZWgEHgwrT7aVDnIAubLrOXl5cgtySNNHAis+mhT5eA/2FsPioqftJ6eGHPSL1yr/i3fZfeynNja2prrdDoFH8xxLzWrPl2vGWcBozjG/NU7BiCdC3XpvTK9389yzQJGQDStWfXafUNdFjCqCF9NhJv7rJj+frPqwz21/SxgQFFOPT4+Rn5JJrzLUjCrPtpUOcgCxgkAdXd3V3ALVJotrfrCpoqJLGA3NzduOBy6y8vLyOX29rbb2dlxXEOz6sO12n4WMEqk8/NzsVZsNpsFMKteCxPqsoBxAhcXF+7o6Cjc2wHFiaVm1afrNeMsYNR+VBkkitCkH5nct+rDPbX9rGCrq6uR3/fAtPpoU+UgCxiZr+zE0lRPXFa9kiWSZQFrtVqltSL3UrPq0/WacRYwSiQK3rT2A0Aqtax6DUiqyQYmAaTO/BitRe/XWa4mMP5kdn9/725vby0+Pq3FJ74tZgKjFMLJbDaz+Pi0Fp/4tpgJjKdGsbvoE8Pnl57YdDp1g8HA8uCyaPGJb4uZTsyXQtR6izSg8G0xExgOrE/OEkxOrQjmf0NRxFbZ+J0nVTbE/G+BUX1TqVf9xIiRWCUTT4xSqN1uS/pKzRGjVIsSpAjmyx1/rRRNEExZLYqk9vpvBoV/6wvWftuu/AH9tji/A/9rwX4CoNKbBezrnxIAAAAASUVORK5CYII=;" vertex="1" parent="gNoDSgEm0qHazXfeq4_1-54">
          <mxGeometry x="10" y="10" width="21.6" height="20" as="geometry" />
        </mxCell>
        <mxCell id="gNoDSgEm0qHazXfeq4_1-57" value="" style="shape=image;verticalLabelPosition=bottom;labelBackgroundColor=default;verticalAlign=top;aspect=fixed;imageAspect=0;image=data:image/png,iVBORw0KGgoAAAANSUhEUgAAADYAAAAyCAYAAAAX1CjLAAABV2lDQ1BJQ0MgUHJvZmlsZQAAKJFtkE9LAlEUxY+l2R+LiJZGrsLFJKEGrQIzsEhonEwqWjSO0yiM0+s5EVIfon20a9O+IFy1a9MuKILW9QEECUqm+5xKrR5czo/DeZfLAXr6VcZML4CyZXMltRDa2NwK+V/RhwH4EERY1SosIctpiuBbu1/jAR6h99NiF3JHmZcLe/Jy/iqTG1mt/813vcGCXtFIP2giGuM24JGI5UObCT4mHud0FPGJYMPlc8F5l69bmaySJL4jHtWKaoH4mVjKd/hGB5fNA+3rBnF9QLfW10jHaIJII4UQlrAIhTSOFern/3y8lU9iDwxVcJRgoAibfiXIYTChEy/DgoYIJOIoZmhiouff/bW96iMwlyHYbnvZJ6AmA0OnbS88BQzvALezTOXqT6uehreyG4u6HOCA781x6hOAvwY0ueO8nzlOkzrspZ03+5+MAWDdKoYYuwAAAFZlWElmTU0AKgAAAAgAAYdpAAQAAAABAAAAGgAAAAAAA5KGAAcAAAASAAAARKACAAQAAAABAAAANqADAAQAAAABAAAAMgAAAABBU0NJSQAAAFNjcmVlbnNob3SLWX11AAAB1GlUWHRYTUw6Y29tLmFkb2JlLnhtcAAAAAAAPHg6eG1wbWV0YSB4bWxuczp4PSJhZG9iZTpuczptZXRhLyIgeDp4bXB0az0iWE1QIENvcmUgNi4wLjAiPgogICA8cmRmOlJERiB4bWxuczpyZGY9Imh0dHA6Ly93d3cudzMub3JnLzE5OTkvMDIvMjItcmRmLXN5bnRheC1ucyMiPgogICAgICA8cmRmOkRlc2NyaXB0aW9uIHJkZjphYm91dD0iIgogICAgICAgICAgICB4bWxuczpleGlmPSJodHRwOi8vbnMuYWRvYmUuY29tL2V4aWYvMS4wLyI+CiAgICAgICAgIDxleGlmOlBpeGVsWURpbWVuc2lvbj41MDwvZXhpZjpQaXhlbFlEaW1lbnNpb24+CiAgICAgICAgIDxleGlmOlBpeGVsWERpbWVuc2lvbj41NDwvZXhpZjpQaXhlbFhEaW1lbnNpb24+CiAgICAgICAgIDxleGlmOlVzZXJDb21tZW50PlNjcmVlbnNob3Q8L2V4aWY6VXNlckNvbW1lbnQ+CiAgICAgIDwvcmRmOkRlc2NyaXB0aW9uPgogICA8L3JkZjpSREY+CjwveDp4bXBtZXRhPgoow1cUAAADiUlEQVRoBe2a/04iMRDHi6DyBGjirxcgEKLv4DMb4xtooigPgEiC8jfG33d+yDXXdmd1Riu33t0kzbbdbzvz2cLsYKz9eDWXGFMvLy9OuJUo/+ywVqu5paUlxzW1RjrBGCja8/OzdLsyc/V6fR6Lv4aBiWCcFFBPT0+htpJ96bQIVAS7vr52V1dX81ZJml9BbW5uOtrGxkYhTBFsMpm409NTd3JyUlhQpYnd3V3XaDRsYGdnZ+7g4KBKHIVYgOLEJBNPTBIyx+fZtzLNV8zznfdNu78ZjPQqZSGtw4/oSGTW148ZDKhFg/EwrO9UE9j6+vr8iyploY+chHbNeDx2vmnXmMF6vZ4jGy3SyM58HIHTmhms2+26/f197f5ZdBQKvFctZgIr29iXYFxDI9H4Fs5b9eFabT8bGE81rS1JMrxrgAsNMIs+XKvtZwMD6uHhIfK7srJSgEIAmEUfbaocZAGjthyNRoXvAVXB1tbWvIXxWPXhWm0/G1i/33fHx8eR3729PcepARcaYBZ9uFbbzwp2eHgY+ZWgEHgwrT7aVDnIAubLrOXl5cgtySNNHAis+mhT5eA/2FsPioqftJ6eGHPSL1yr/i3fZfeynNja2prrdDoFH8xxLzWrPl2vGWcBozjG/NU7BiCdC3XpvTK9389yzQJGQDStWfXafUNdFjCqCF9NhJv7rJj+frPqwz21/SxgQFFOPT4+Rn5JJrzLUjCrPtpUOcgCxgkAdXd3V3ALVJotrfrCpoqJLGA3NzduOBy6y8vLyOX29rbb2dlxXEOz6sO12n4WMEqk8/NzsVZsNpsFMKteCxPqsoBxAhcXF+7o6Cjc2wHFiaVm1afrNeMsYNR+VBkkitCkH5nct+rDPbX9rGCrq6uR3/fAtPpoU+UgCxiZr+zE0lRPXFa9kiWSZQFrtVqltSL3UrPq0/WacRYwSiQK3rT2A0Aqtax6DUiqyQYmAaTO/BitRe/XWa4mMP5kdn9/725vby0+Pq3FJ74tZgKjFMLJbDaz+Pi0Fp/4tpgJjKdGsbvoE8Pnl57YdDp1g8HA8uCyaPGJb4uZTsyXQtR6izSg8G0xExgOrE/OEkxOrQjmf0NRxFbZ+J0nVTbE/G+BUX1TqVf9xIiRWCUTT4xSqN1uS/pKzRGjVIsSpAjmyx1/rRRNEExZLYqk9vpvBoV/6wvWftuu/AH9tji/A/9rwX4CoNKbBezrnxIAAAAASUVORK5CYII=;" vertex="1" parent="gNoDSgEm0qHazXfeq4_1-54">
          <mxGeometry x="20" y="20" width="21.6" height="20" as="geometry" />
        </mxCell>
        <mxCell id="gNoDSgEm0qHazXfeq4_1-59" value="&lt;b&gt;&lt;font style=&quot;font-size: 14px;&quot;&gt;Landing Zone&lt;/font&gt;&lt;/b&gt;" style="whiteSpace=wrap;html=1;fillColor=#f5f5f5;fontColor=#333333;strokeColor=#666666;" vertex="1" parent="1">
          <mxGeometry x="-30" y="160" width="120" height="400" as="geometry" />
        </mxCell>
        <mxCell id="gNoDSgEm0qHazXfeq4_1-60" value="" style="sketch=0;pointerEvents=1;shadow=0;dashed=0;html=1;strokeColor=none;fillColor=#505050;labelPosition=center;verticalLabelPosition=bottom;verticalAlign=top;outlineConnect=0;align=center;shape=mxgraph.office.concepts.folder;" vertex="1" parent="1">
          <mxGeometry y="196" width="50" height="45" as="geometry" />
        </mxCell>
        <mxCell id="gNoDSgEm0qHazXfeq4_1-61" value="" style="sketch=0;pointerEvents=1;shadow=0;dashed=0;html=1;strokeColor=none;labelPosition=center;verticalLabelPosition=bottom;verticalAlign=top;outlineConnect=0;align=center;shape=mxgraph.office.concepts.folder;fillColor=#2072B8;" vertex="1" parent="1">
          <mxGeometry y="295" width="50" height="45" as="geometry" />
        </mxCell>
        <mxCell id="gNoDSgEm0qHazXfeq4_1-62" value="" style="sketch=0;pointerEvents=1;shadow=0;dashed=0;html=1;strokeColor=none;labelPosition=center;verticalLabelPosition=bottom;verticalAlign=top;outlineConnect=0;align=center;shape=mxgraph.office.concepts.folder;fillColor=#DA4026;" vertex="1" parent="1">
          <mxGeometry y="395" width="50" height="45" as="geometry" />
        </mxCell>
        <mxCell id="gNoDSgEm0qHazXfeq4_1-63" value="" style="sketch=0;pointerEvents=1;shadow=0;dashed=0;html=1;strokeColor=none;labelPosition=center;verticalLabelPosition=bottom;verticalAlign=top;outlineConnect=0;align=center;shape=mxgraph.office.concepts.folder;fillColor=#7FBA42;" vertex="1" parent="1">
          <mxGeometry y="495" width="50" height="45" as="geometry" />
        </mxCell>
        <mxCell id="gNoDSgEm0qHazXfeq4_1-66" value="BigQuery" style="sketch=0;html=1;verticalAlign=top;labelPosition=center;verticalLabelPosition=bottom;align=center;spacingTop=-6;fontSize=11;fontStyle=1;fontColor=#999999;shape=image;aspect=fixed;imageAspect=0;image=data:image/svg+xml,PHN2ZyB4bWxucz0iaHR0cDovL3d3dy53My5vcmcvMjAwMC9zdmciIHhtbG5zOnY9Imh0dHBzOi8vdmVjdGEuaW8vbmFubyIgd2lkdGg9IjIwLjAwMTA0NTIyNzA1MDc4IiBoZWlnaHQ9IjIwLjAwMTA0NTIyNzA1MDc4IiBmaWxsLXJ1bGU9ImV2ZW5vZGQiIHZpZXdCb3g9IjAgMCAyMC4wMDEwNDUyMjcwNTA3OCAyMC4wMDEwNDUyMjcwNTA3OCI+JiN4YTsJPHN0eWxlIHR5cGU9InRleHQvY3NzIj4mI3hhOwkuc3Qwe2ZpbGw6I2FlY2JmYTt9JiN4YTsJLnN0MXtmaWxsOiM2NjlkZjY7fSYjeGE7CS5zdDJ7ZmlsbDojNDI4NWY0O30mI3hhOwk8L3N0eWxlPiYjeGE7CTxwYXRoIGNsYXNzPSJzdDAiIGQ9Ik00LjczIDguODN2Mi42M2E0LjkxIDQuOTEgMCAwIDAgMS43MSAxLjc0VjguODN6Ii8+JiN4YTsJPHBhdGggY2xhc3M9InN0MSIgZD0iTTcuODkgNi40MXY3LjUzQTcuNjIgNy42MiAwIDAgMCA5IDE0YTggOCAwIDAgMCAxIDBWNi40MXoiLz4mI3hhOwk8cGF0aCBjbGFzcz0ic3QwIiBkPSJNMTEuNjQgOS44NnYzLjI5YTUgNSAwIDAgMCAxLjctMS44MlY5Ljg2eiIvPiYjeGE7CTxwYXRoIGNsYXNzPSJzdDIiIGQ9Ik0xNS43NCAxNC4zMmwtMS40MiAxLjQyYS40Mi40MiAwIDAgMCAwIC42bDMuNTQgMy41NGEuNDIuNDIgMCAwIDAgLjU5IDBsMS40My0xLjQzYS40Mi40MiAwIDAgMCAwLS41OWwtMy41NC0zLjU0YS40Mi40MiAwIDAgMC0uNiAwIi8+JiN4YTsJPHBhdGggY2xhc3M9InN0MSIgZD0iTTkgMGE5IDkgMCAxIDAgMCAxOEE5IDkgMCAxIDAgOSAwbTAgMTUuNjlhNi42OCA2LjY4IDAgMCAxIC4wMDctMTMuMzYgNi42OCA2LjY4IDAgMCAxIDQuNzI3IDExLjQwM0E2LjY4IDYuNjggMCAwIDEgOSAxNS42OSIvPiYjeGE7PC9zdmc+;" vertex="1" parent="1">
          <mxGeometry x="508.1" y="70" width="42" height="42" as="geometry" />
        </mxCell>
        <mxCell id="gNoDSgEm0qHazXfeq4_1-67" value="&lt;b&gt;&lt;font style=&quot;font-size: 24px;&quot;&gt;STAGING&lt;/font&gt;&lt;/b&gt;" style="whiteSpace=wrap;html=1;fillColor=#fff2cc;strokeColor=#d6b656;" vertex="1" parent="1">
          <mxGeometry x="480" y="160" width="120" height="400" as="geometry" />
        </mxCell>
        <mxCell id="gNoDSgEm0qHazXfeq4_1-68" value="" style="group" vertex="1" connectable="0" parent="1">
          <mxGeometry x="508.1" y="181" width="60.00000000000003" height="60" as="geometry" />
        </mxCell>
        <mxCell id="gNoDSgEm0qHazXfeq4_1-69" value="" style="whiteSpace=wrap;html=1;fillColor=#E1D5E7;" vertex="1" parent="gNoDSgEm0qHazXfeq4_1-68">
          <mxGeometry width="60" height="60" as="geometry" />
        </mxCell>
        <mxCell id="gNoDSgEm0qHazXfeq4_1-70" value="" style="group" vertex="1" connectable="0" parent="gNoDSgEm0qHazXfeq4_1-68">
          <mxGeometry x="9.200000000000017" y="10" width="41.60000000000002" height="40" as="geometry" />
        </mxCell>
        <mxCell id="gNoDSgEm0qHazXfeq4_1-71" value="" style="shape=image;verticalLabelPosition=bottom;labelBackgroundColor=default;verticalAlign=top;aspect=fixed;imageAspect=0;image=data:image/png,iVBORw0KGgoAAAANSUhEUgAAADYAAAAyCAYAAAAX1CjLAAABV2lDQ1BJQ0MgUHJvZmlsZQAAKJFtkE9LAlEUxY+l2R+LiJZGrsLFJKEGrQIzsEhonEwqWjSO0yiM0+s5EVIfon20a9O+IFy1a9MuKILW9QEECUqm+5xKrR5czo/DeZfLAXr6VcZML4CyZXMltRDa2NwK+V/RhwH4EERY1SosIctpiuBbu1/jAR6h99NiF3JHmZcLe/Jy/iqTG1mt/813vcGCXtFIP2giGuM24JGI5UObCT4mHud0FPGJYMPlc8F5l69bmaySJL4jHtWKaoH4mVjKd/hGB5fNA+3rBnF9QLfW10jHaIJII4UQlrAIhTSOFern/3y8lU9iDwxVcJRgoAibfiXIYTChEy/DgoYIJOIoZmhiouff/bW96iMwlyHYbnvZJ6AmA0OnbS88BQzvALezTOXqT6uehreyG4u6HOCA781x6hOAvwY0ueO8nzlOkzrspZ03+5+MAWDdKoYYuwAAAFZlWElmTU0AKgAAAAgAAYdpAAQAAAABAAAAGgAAAAAAA5KGAAcAAAASAAAARKACAAQAAAABAAAANqADAAQAAAABAAAAMgAAAABBU0NJSQAAAFNjcmVlbnNob3SLWX11AAAB1GlUWHRYTUw6Y29tLmFkb2JlLnhtcAAAAAAAPHg6eG1wbWV0YSB4bWxuczp4PSJhZG9iZTpuczptZXRhLyIgeDp4bXB0az0iWE1QIENvcmUgNi4wLjAiPgogICA8cmRmOlJERiB4bWxuczpyZGY9Imh0dHA6Ly93d3cudzMub3JnLzE5OTkvMDIvMjItcmRmLXN5bnRheC1ucyMiPgogICAgICA8cmRmOkRlc2NyaXB0aW9uIHJkZjphYm91dD0iIgogICAgICAgICAgICB4bWxuczpleGlmPSJodHRwOi8vbnMuYWRvYmUuY29tL2V4aWYvMS4wLyI+CiAgICAgICAgIDxleGlmOlBpeGVsWURpbWVuc2lvbj41MDwvZXhpZjpQaXhlbFlEaW1lbnNpb24+CiAgICAgICAgIDxleGlmOlBpeGVsWERpbWVuc2lvbj41NDwvZXhpZjpQaXhlbFhEaW1lbnNpb24+CiAgICAgICAgIDxleGlmOlVzZXJDb21tZW50PlNjcmVlbnNob3Q8L2V4aWY6VXNlckNvbW1lbnQ+CiAgICAgIDwvcmRmOkRlc2NyaXB0aW9uPgogICA8L3JkZjpSREY+CjwveDp4bXBtZXRhPgoow1cUAAADiUlEQVRoBe2a/04iMRDHi6DyBGjirxcgEKLv4DMb4xtooigPgEiC8jfG33d+yDXXdmd1Riu33t0kzbbdbzvz2cLsYKz9eDWXGFMvLy9OuJUo/+ywVqu5paUlxzW1RjrBGCja8/OzdLsyc/V6fR6Lv4aBiWCcFFBPT0+htpJ96bQIVAS7vr52V1dX81ZJml9BbW5uOtrGxkYhTBFsMpm409NTd3JyUlhQpYnd3V3XaDRsYGdnZ+7g4KBKHIVYgOLEJBNPTBIyx+fZtzLNV8zznfdNu78ZjPQqZSGtw4/oSGTW148ZDKhFg/EwrO9UE9j6+vr8iyploY+chHbNeDx2vmnXmMF6vZ4jGy3SyM58HIHTmhms2+26/f197f5ZdBQKvFctZgIr29iXYFxDI9H4Fs5b9eFabT8bGE81rS1JMrxrgAsNMIs+XKvtZwMD6uHhIfK7srJSgEIAmEUfbaocZAGjthyNRoXvAVXB1tbWvIXxWPXhWm0/G1i/33fHx8eR3729PcepARcaYBZ9uFbbzwp2eHgY+ZWgEHgwrT7aVDnIAubLrOXl5cgtySNNHAis+mhT5eA/2FsPioqftJ6eGHPSL1yr/i3fZfeynNja2prrdDoFH8xxLzWrPl2vGWcBozjG/NU7BiCdC3XpvTK9389yzQJGQDStWfXafUNdFjCqCF9NhJv7rJj+frPqwz21/SxgQFFOPT4+Rn5JJrzLUjCrPtpUOcgCxgkAdXd3V3ALVJotrfrCpoqJLGA3NzduOBy6y8vLyOX29rbb2dlxXEOz6sO12n4WMEqk8/NzsVZsNpsFMKteCxPqsoBxAhcXF+7o6Cjc2wHFiaVm1afrNeMsYNR+VBkkitCkH5nct+rDPbX9rGCrq6uR3/fAtPpoU+UgCxiZr+zE0lRPXFa9kiWSZQFrtVqltSL3UrPq0/WacRYwSiQK3rT2A0Aqtax6DUiqyQYmAaTO/BitRe/XWa4mMP5kdn9/725vby0+Pq3FJ74tZgKjFMLJbDaz+Pi0Fp/4tpgJjKdGsbvoE8Pnl57YdDp1g8HA8uCyaPGJb4uZTsyXQtR6izSg8G0xExgOrE/OEkxOrQjmf0NRxFbZ+J0nVTbE/G+BUX1TqVf9xIiRWCUTT4xSqN1uS/pKzRGjVIsSpAjmyx1/rRRNEExZLYqk9vpvBoV/6wvWftuu/AH9tji/A/9rwX4CoNKbBezrnxIAAAAASUVORK5CYII=;" vertex="1" parent="gNoDSgEm0qHazXfeq4_1-70">
          <mxGeometry width="21.6" height="20" as="geometry" />
        </mxCell>
        <mxCell id="gNoDSgEm0qHazXfeq4_1-72" value="" style="shape=image;verticalLabelPosition=bottom;labelBackgroundColor=default;verticalAlign=top;aspect=fixed;imageAspect=0;image=data:image/png,iVBORw0KGgoAAAANSUhEUgAAADYAAAAyCAYAAAAX1CjLAAABV2lDQ1BJQ0MgUHJvZmlsZQAAKJFtkE9LAlEUxY+l2R+LiJZGrsLFJKEGrQIzsEhonEwqWjSO0yiM0+s5EVIfon20a9O+IFy1a9MuKILW9QEECUqm+5xKrR5czo/DeZfLAXr6VcZML4CyZXMltRDa2NwK+V/RhwH4EERY1SosIctpiuBbu1/jAR6h99NiF3JHmZcLe/Jy/iqTG1mt/813vcGCXtFIP2giGuM24JGI5UObCT4mHud0FPGJYMPlc8F5l69bmaySJL4jHtWKaoH4mVjKd/hGB5fNA+3rBnF9QLfW10jHaIJII4UQlrAIhTSOFern/3y8lU9iDwxVcJRgoAibfiXIYTChEy/DgoYIJOIoZmhiouff/bW96iMwlyHYbnvZJ6AmA0OnbS88BQzvALezTOXqT6uehreyG4u6HOCA781x6hOAvwY0ueO8nzlOkzrspZ03+5+MAWDdKoYYuwAAAFZlWElmTU0AKgAAAAgAAYdpAAQAAAABAAAAGgAAAAAAA5KGAAcAAAASAAAARKACAAQAAAABAAAANqADAAQAAAABAAAAMgAAAABBU0NJSQAAAFNjcmVlbnNob3SLWX11AAAB1GlUWHRYTUw6Y29tLmFkb2JlLnhtcAAAAAAAPHg6eG1wbWV0YSB4bWxuczp4PSJhZG9iZTpuczptZXRhLyIgeDp4bXB0az0iWE1QIENvcmUgNi4wLjAiPgogICA8cmRmOlJERiB4bWxuczpyZGY9Imh0dHA6Ly93d3cudzMub3JnLzE5OTkvMDIvMjItcmRmLXN5bnRheC1ucyMiPgogICAgICA8cmRmOkRlc2NyaXB0aW9uIHJkZjphYm91dD0iIgogICAgICAgICAgICB4bWxuczpleGlmPSJodHRwOi8vbnMuYWRvYmUuY29tL2V4aWYvMS4wLyI+CiAgICAgICAgIDxleGlmOlBpeGVsWURpbWVuc2lvbj41MDwvZXhpZjpQaXhlbFlEaW1lbnNpb24+CiAgICAgICAgIDxleGlmOlBpeGVsWERpbWVuc2lvbj41NDwvZXhpZjpQaXhlbFhEaW1lbnNpb24+CiAgICAgICAgIDxleGlmOlVzZXJDb21tZW50PlNjcmVlbnNob3Q8L2V4aWY6VXNlckNvbW1lbnQ+CiAgICAgIDwvcmRmOkRlc2NyaXB0aW9uPgogICA8L3JkZjpSREY+CjwveDp4bXBtZXRhPgoow1cUAAADiUlEQVRoBe2a/04iMRDHi6DyBGjirxcgEKLv4DMb4xtooigPgEiC8jfG33d+yDXXdmd1Riu33t0kzbbdbzvz2cLsYKz9eDWXGFMvLy9OuJUo/+ywVqu5paUlxzW1RjrBGCja8/OzdLsyc/V6fR6Lv4aBiWCcFFBPT0+htpJ96bQIVAS7vr52V1dX81ZJml9BbW5uOtrGxkYhTBFsMpm409NTd3JyUlhQpYnd3V3XaDRsYGdnZ+7g4KBKHIVYgOLEJBNPTBIyx+fZtzLNV8zznfdNu78ZjPQqZSGtw4/oSGTW148ZDKhFg/EwrO9UE9j6+vr8iyploY+chHbNeDx2vmnXmMF6vZ4jGy3SyM58HIHTmhms2+26/f197f5ZdBQKvFctZgIr29iXYFxDI9H4Fs5b9eFabT8bGE81rS1JMrxrgAsNMIs+XKvtZwMD6uHhIfK7srJSgEIAmEUfbaocZAGjthyNRoXvAVXB1tbWvIXxWPXhWm0/G1i/33fHx8eR3729PcepARcaYBZ9uFbbzwp2eHgY+ZWgEHgwrT7aVDnIAubLrOXl5cgtySNNHAis+mhT5eA/2FsPioqftJ6eGHPSL1yr/i3fZfeynNja2prrdDoFH8xxLzWrPl2vGWcBozjG/NU7BiCdC3XpvTK9389yzQJGQDStWfXafUNdFjCqCF9NhJv7rJj+frPqwz21/SxgQFFOPT4+Rn5JJrzLUjCrPtpUOcgCxgkAdXd3V3ALVJotrfrCpoqJLGA3NzduOBy6y8vLyOX29rbb2dlxXEOz6sO12n4WMEqk8/NzsVZsNpsFMKteCxPqsoBxAhcXF+7o6Cjc2wHFiaVm1afrNeMsYNR+VBkkitCkH5nct+rDPbX9rGCrq6uR3/fAtPpoU+UgCxiZr+zE0lRPXFa9kiWSZQFrtVqltSL3UrPq0/WacRYwSiQK3rT2A0Aqtax6DUiqyQYmAaTO/BitRe/XWa4mMP5kdn9/725vby0+Pq3FJ74tZgKjFMLJbDaz+Pi0Fp/4tpgJjKdGsbvoE8Pnl57YdDp1g8HA8uCyaPGJb4uZTsyXQtR6izSg8G0xExgOrE/OEkxOrQjmf0NRxFbZ+J0nVTbE/G+BUX1TqVf9xIiRWCUTT4xSqN1uS/pKzRGjVIsSpAjmyx1/rRRNEExZLYqk9vpvBoV/6wvWftuu/AH9tji/A/9rwX4CoNKbBezrnxIAAAAASUVORK5CYII=;" vertex="1" parent="gNoDSgEm0qHazXfeq4_1-70">
          <mxGeometry x="10" y="10" width="21.6" height="20" as="geometry" />
        </mxCell>
        <mxCell id="gNoDSgEm0qHazXfeq4_1-73" value="" style="shape=image;verticalLabelPosition=bottom;labelBackgroundColor=default;verticalAlign=top;aspect=fixed;imageAspect=0;image=data:image/png,iVBORw0KGgoAAAANSUhEUgAAADYAAAAyCAYAAAAX1CjLAAABV2lDQ1BJQ0MgUHJvZmlsZQAAKJFtkE9LAlEUxY+l2R+LiJZGrsLFJKEGrQIzsEhonEwqWjSO0yiM0+s5EVIfon20a9O+IFy1a9MuKILW9QEECUqm+5xKrR5czo/DeZfLAXr6VcZML4CyZXMltRDa2NwK+V/RhwH4EERY1SosIctpiuBbu1/jAR6h99NiF3JHmZcLe/Jy/iqTG1mt/813vcGCXtFIP2giGuM24JGI5UObCT4mHud0FPGJYMPlc8F5l69bmaySJL4jHtWKaoH4mVjKd/hGB5fNA+3rBnF9QLfW10jHaIJII4UQlrAIhTSOFern/3y8lU9iDwxVcJRgoAibfiXIYTChEy/DgoYIJOIoZmhiouff/bW96iMwlyHYbnvZJ6AmA0OnbS88BQzvALezTOXqT6uehreyG4u6HOCA781x6hOAvwY0ueO8nzlOkzrspZ03+5+MAWDdKoYYuwAAAFZlWElmTU0AKgAAAAgAAYdpAAQAAAABAAAAGgAAAAAAA5KGAAcAAAASAAAARKACAAQAAAABAAAANqADAAQAAAABAAAAMgAAAABBU0NJSQAAAFNjcmVlbnNob3SLWX11AAAB1GlUWHRYTUw6Y29tLmFkb2JlLnhtcAAAAAAAPHg6eG1wbWV0YSB4bWxuczp4PSJhZG9iZTpuczptZXRhLyIgeDp4bXB0az0iWE1QIENvcmUgNi4wLjAiPgogICA8cmRmOlJERiB4bWxuczpyZGY9Imh0dHA6Ly93d3cudzMub3JnLzE5OTkvMDIvMjItcmRmLXN5bnRheC1ucyMiPgogICAgICA8cmRmOkRlc2NyaXB0aW9uIHJkZjphYm91dD0iIgogICAgICAgICAgICB4bWxuczpleGlmPSJodHRwOi8vbnMuYWRvYmUuY29tL2V4aWYvMS4wLyI+CiAgICAgICAgIDxleGlmOlBpeGVsWURpbWVuc2lvbj41MDwvZXhpZjpQaXhlbFlEaW1lbnNpb24+CiAgICAgICAgIDxleGlmOlBpeGVsWERpbWVuc2lvbj41NDwvZXhpZjpQaXhlbFhEaW1lbnNpb24+CiAgICAgICAgIDxleGlmOlVzZXJDb21tZW50PlNjcmVlbnNob3Q8L2V4aWY6VXNlckNvbW1lbnQ+CiAgICAgIDwvcmRmOkRlc2NyaXB0aW9uPgogICA8L3JkZjpSREY+CjwveDp4bXBtZXRhPgoow1cUAAADiUlEQVRoBe2a/04iMRDHi6DyBGjirxcgEKLv4DMb4xtooigPgEiC8jfG33d+yDXXdmd1Riu33t0kzbbdbzvz2cLsYKz9eDWXGFMvLy9OuJUo/+ywVqu5paUlxzW1RjrBGCja8/OzdLsyc/V6fR6Lv4aBiWCcFFBPT0+htpJ96bQIVAS7vr52V1dX81ZJml9BbW5uOtrGxkYhTBFsMpm409NTd3JyUlhQpYnd3V3XaDRsYGdnZ+7g4KBKHIVYgOLEJBNPTBIyx+fZtzLNV8zznfdNu78ZjPQqZSGtw4/oSGTW148ZDKhFg/EwrO9UE9j6+vr8iyploY+chHbNeDx2vmnXmMF6vZ4jGy3SyM58HIHTmhms2+26/f197f5ZdBQKvFctZgIr29iXYFxDI9H4Fs5b9eFabT8bGE81rS1JMrxrgAsNMIs+XKvtZwMD6uHhIfK7srJSgEIAmEUfbaocZAGjthyNRoXvAVXB1tbWvIXxWPXhWm0/G1i/33fHx8eR3729PcepARcaYBZ9uFbbzwp2eHgY+ZWgEHgwrT7aVDnIAubLrOXl5cgtySNNHAis+mhT5eA/2FsPioqftJ6eGHPSL1yr/i3fZfeynNja2prrdDoFH8xxLzWrPl2vGWcBozjG/NU7BiCdC3XpvTK9389yzQJGQDStWfXafUNdFjCqCF9NhJv7rJj+frPqwz21/SxgQFFOPT4+Rn5JJrzLUjCrPtpUOcgCxgkAdXd3V3ALVJotrfrCpoqJLGA3NzduOBy6y8vLyOX29rbb2dlxXEOz6sO12n4WMEqk8/NzsVZsNpsFMKteCxPqsoBxAhcXF+7o6Cjc2wHFiaVm1afrNeMsYNR+VBkkitCkH5nct+rDPbX9rGCrq6uR3/fAtPpoU+UgCxiZr+zE0lRPXFa9kiWSZQFrtVqltSL3UrPq0/WacRYwSiQK3rT2A0Aqtax6DUiqyQYmAaTO/BitRe/XWa4mMP5kdn9/725vby0+Pq3FJ74tZgKjFMLJbDaz+Pi0Fp/4tpgJjKdGsbvoE8Pnl57YdDp1g8HA8uCyaPGJb4uZTsyXQtR6izSg8G0xExgOrE/OEkxOrQjmf0NRxFbZ+J0nVTbE/G+BUX1TqVf9xIiRWCUTT4xSqN1uS/pKzRGjVIsSpAjmyx1/rRRNEExZLYqk9vpvBoV/6wvWftuu/AH9tji/A/9rwX4CoNKbBezrnxIAAAAASUVORK5CYII=;" vertex="1" parent="gNoDSgEm0qHazXfeq4_1-70">
          <mxGeometry x="20" y="20" width="21.6" height="20" as="geometry" />
        </mxCell>
        <mxCell id="gNoDSgEm0qHazXfeq4_1-74" value="" style="group" vertex="1" connectable="0" parent="1">
          <mxGeometry x="508.1" y="380" width="60.00000000000003" height="60" as="geometry" />
        </mxCell>
        <mxCell id="gNoDSgEm0qHazXfeq4_1-75" value="" style="whiteSpace=wrap;html=1;fillColor=#E1D5E7;" vertex="1" parent="gNoDSgEm0qHazXfeq4_1-74">
          <mxGeometry width="60" height="60" as="geometry" />
        </mxCell>
        <mxCell id="gNoDSgEm0qHazXfeq4_1-76" value="" style="group" vertex="1" connectable="0" parent="gNoDSgEm0qHazXfeq4_1-74">
          <mxGeometry x="9.200000000000017" y="10" width="41.60000000000002" height="40" as="geometry" />
        </mxCell>
        <mxCell id="gNoDSgEm0qHazXfeq4_1-77" value="" style="shape=image;verticalLabelPosition=bottom;labelBackgroundColor=default;verticalAlign=top;aspect=fixed;imageAspect=0;image=data:image/png,iVBORw0KGgoAAAANSUhEUgAAADYAAAAyCAYAAAAX1CjLAAABV2lDQ1BJQ0MgUHJvZmlsZQAAKJFtkE9LAlEUxY+l2R+LiJZGrsLFJKEGrQIzsEhonEwqWjSO0yiM0+s5EVIfon20a9O+IFy1a9MuKILW9QEECUqm+5xKrR5czo/DeZfLAXr6VcZML4CyZXMltRDa2NwK+V/RhwH4EERY1SosIctpiuBbu1/jAR6h99NiF3JHmZcLe/Jy/iqTG1mt/813vcGCXtFIP2giGuM24JGI5UObCT4mHud0FPGJYMPlc8F5l69bmaySJL4jHtWKaoH4mVjKd/hGB5fNA+3rBnF9QLfW10jHaIJII4UQlrAIhTSOFern/3y8lU9iDwxVcJRgoAibfiXIYTChEy/DgoYIJOIoZmhiouff/bW96iMwlyHYbnvZJ6AmA0OnbS88BQzvALezTOXqT6uehreyG4u6HOCA781x6hOAvwY0ueO8nzlOkzrspZ03+5+MAWDdKoYYuwAAAFZlWElmTU0AKgAAAAgAAYdpAAQAAAABAAAAGgAAAAAAA5KGAAcAAAASAAAARKACAAQAAAABAAAANqADAAQAAAABAAAAMgAAAABBU0NJSQAAAFNjcmVlbnNob3SLWX11AAAB1GlUWHRYTUw6Y29tLmFkb2JlLnhtcAAAAAAAPHg6eG1wbWV0YSB4bWxuczp4PSJhZG9iZTpuczptZXRhLyIgeDp4bXB0az0iWE1QIENvcmUgNi4wLjAiPgogICA8cmRmOlJERiB4bWxuczpyZGY9Imh0dHA6Ly93d3cudzMub3JnLzE5OTkvMDIvMjItcmRmLXN5bnRheC1ucyMiPgogICAgICA8cmRmOkRlc2NyaXB0aW9uIHJkZjphYm91dD0iIgogICAgICAgICAgICB4bWxuczpleGlmPSJodHRwOi8vbnMuYWRvYmUuY29tL2V4aWYvMS4wLyI+CiAgICAgICAgIDxleGlmOlBpeGVsWURpbWVuc2lvbj41MDwvZXhpZjpQaXhlbFlEaW1lbnNpb24+CiAgICAgICAgIDxleGlmOlBpeGVsWERpbWVuc2lvbj41NDwvZXhpZjpQaXhlbFhEaW1lbnNpb24+CiAgICAgICAgIDxleGlmOlVzZXJDb21tZW50PlNjcmVlbnNob3Q8L2V4aWY6VXNlckNvbW1lbnQ+CiAgICAgIDwvcmRmOkRlc2NyaXB0aW9uPgogICA8L3JkZjpSREY+CjwveDp4bXBtZXRhPgoow1cUAAADiUlEQVRoBe2a/04iMRDHi6DyBGjirxcgEKLv4DMb4xtooigPgEiC8jfG33d+yDXXdmd1Riu33t0kzbbdbzvz2cLsYKz9eDWXGFMvLy9OuJUo/+ywVqu5paUlxzW1RjrBGCja8/OzdLsyc/V6fR6Lv4aBiWCcFFBPT0+htpJ96bQIVAS7vr52V1dX81ZJml9BbW5uOtrGxkYhTBFsMpm409NTd3JyUlhQpYnd3V3XaDRsYGdnZ+7g4KBKHIVYgOLEJBNPTBIyx+fZtzLNV8zznfdNu78ZjPQqZSGtw4/oSGTW148ZDKhFg/EwrO9UE9j6+vr8iyploY+chHbNeDx2vmnXmMF6vZ4jGy3SyM58HIHTmhms2+26/f197f5ZdBQKvFctZgIr29iXYFxDI9H4Fs5b9eFabT8bGE81rS1JMrxrgAsNMIs+XKvtZwMD6uHhIfK7srJSgEIAmEUfbaocZAGjthyNRoXvAVXB1tbWvIXxWPXhWm0/G1i/33fHx8eR3729PcepARcaYBZ9uFbbzwp2eHgY+ZWgEHgwrT7aVDnIAubLrOXl5cgtySNNHAis+mhT5eA/2FsPioqftJ6eGHPSL1yr/i3fZfeynNja2prrdDoFH8xxLzWrPl2vGWcBozjG/NU7BiCdC3XpvTK9389yzQJGQDStWfXafUNdFjCqCF9NhJv7rJj+frPqwz21/SxgQFFOPT4+Rn5JJrzLUjCrPtpUOcgCxgkAdXd3V3ALVJotrfrCpoqJLGA3NzduOBy6y8vLyOX29rbb2dlxXEOz6sO12n4WMEqk8/NzsVZsNpsFMKteCxPqsoBxAhcXF+7o6Cjc2wHFiaVm1afrNeMsYNR+VBkkitCkH5nct+rDPbX9rGCrq6uR3/fAtPpoU+UgCxiZr+zE0lRPXFa9kiWSZQFrtVqltSL3UrPq0/WacRYwSiQK3rT2A0Aqtax6DUiqyQYmAaTO/BitRe/XWa4mMP5kdn9/725vby0+Pq3FJ74tZgKjFMLJbDaz+Pi0Fp/4tpgJjKdGsbvoE8Pnl57YdDp1g8HA8uCyaPGJb4uZTsyXQtR6izSg8G0xExgOrE/OEkxOrQjmf0NRxFbZ+J0nVTbE/G+BUX1TqVf9xIiRWCUTT4xSqN1uS/pKzRGjVIsSpAjmyx1/rRRNEExZLYqk9vpvBoV/6wvWftuu/AH9tji/A/9rwX4CoNKbBezrnxIAAAAASUVORK5CYII=;" vertex="1" parent="gNoDSgEm0qHazXfeq4_1-76">
          <mxGeometry width="21.6" height="20" as="geometry" />
        </mxCell>
        <mxCell id="gNoDSgEm0qHazXfeq4_1-78" value="" style="shape=image;verticalLabelPosition=bottom;labelBackgroundColor=default;verticalAlign=top;aspect=fixed;imageAspect=0;image=data:image/png,iVBORw0KGgoAAAANSUhEUgAAADYAAAAyCAYAAAAX1CjLAAABV2lDQ1BJQ0MgUHJvZmlsZQAAKJFtkE9LAlEUxY+l2R+LiJZGrsLFJKEGrQIzsEhonEwqWjSO0yiM0+s5EVIfon20a9O+IFy1a9MuKILW9QEECUqm+5xKrR5czo/DeZfLAXr6VcZML4CyZXMltRDa2NwK+V/RhwH4EERY1SosIctpiuBbu1/jAR6h99NiF3JHmZcLe/Jy/iqTG1mt/813vcGCXtFIP2giGuM24JGI5UObCT4mHud0FPGJYMPlc8F5l69bmaySJL4jHtWKaoH4mVjKd/hGB5fNA+3rBnF9QLfW10jHaIJII4UQlrAIhTSOFern/3y8lU9iDwxVcJRgoAibfiXIYTChEy/DgoYIJOIoZmhiouff/bW96iMwlyHYbnvZJ6AmA0OnbS88BQzvALezTOXqT6uehreyG4u6HOCA781x6hOAvwY0ueO8nzlOkzrspZ03+5+MAWDdKoYYuwAAAFZlWElmTU0AKgAAAAgAAYdpAAQAAAABAAAAGgAAAAAAA5KGAAcAAAASAAAARKACAAQAAAABAAAANqADAAQAAAABAAAAMgAAAABBU0NJSQAAAFNjcmVlbnNob3SLWX11AAAB1GlUWHRYTUw6Y29tLmFkb2JlLnhtcAAAAAAAPHg6eG1wbWV0YSB4bWxuczp4PSJhZG9iZTpuczptZXRhLyIgeDp4bXB0az0iWE1QIENvcmUgNi4wLjAiPgogICA8cmRmOlJERiB4bWxuczpyZGY9Imh0dHA6Ly93d3cudzMub3JnLzE5OTkvMDIvMjItcmRmLXN5bnRheC1ucyMiPgogICAgICA8cmRmOkRlc2NyaXB0aW9uIHJkZjphYm91dD0iIgogICAgICAgICAgICB4bWxuczpleGlmPSJodHRwOi8vbnMuYWRvYmUuY29tL2V4aWYvMS4wLyI+CiAgICAgICAgIDxleGlmOlBpeGVsWURpbWVuc2lvbj41MDwvZXhpZjpQaXhlbFlEaW1lbnNpb24+CiAgICAgICAgIDxleGlmOlBpeGVsWERpbWVuc2lvbj41NDwvZXhpZjpQaXhlbFhEaW1lbnNpb24+CiAgICAgICAgIDxleGlmOlVzZXJDb21tZW50PlNjcmVlbnNob3Q8L2V4aWY6VXNlckNvbW1lbnQ+CiAgICAgIDwvcmRmOkRlc2NyaXB0aW9uPgogICA8L3JkZjpSREY+CjwveDp4bXBtZXRhPgoow1cUAAADiUlEQVRoBe2a/04iMRDHi6DyBGjirxcgEKLv4DMb4xtooigPgEiC8jfG33d+yDXXdmd1Riu33t0kzbbdbzvz2cLsYKz9eDWXGFMvLy9OuJUo/+ywVqu5paUlxzW1RjrBGCja8/OzdLsyc/V6fR6Lv4aBiWCcFFBPT0+htpJ96bQIVAS7vr52V1dX81ZJml9BbW5uOtrGxkYhTBFsMpm409NTd3JyUlhQpYnd3V3XaDRsYGdnZ+7g4KBKHIVYgOLEJBNPTBIyx+fZtzLNV8zznfdNu78ZjPQqZSGtw4/oSGTW148ZDKhFg/EwrO9UE9j6+vr8iyploY+chHbNeDx2vmnXmMF6vZ4jGy3SyM58HIHTmhms2+26/f197f5ZdBQKvFctZgIr29iXYFxDI9H4Fs5b9eFabT8bGE81rS1JMrxrgAsNMIs+XKvtZwMD6uHhIfK7srJSgEIAmEUfbaocZAGjthyNRoXvAVXB1tbWvIXxWPXhWm0/G1i/33fHx8eR3729PcepARcaYBZ9uFbbzwp2eHgY+ZWgEHgwrT7aVDnIAubLrOXl5cgtySNNHAis+mhT5eA/2FsPioqftJ6eGHPSL1yr/i3fZfeynNja2prrdDoFH8xxLzWrPl2vGWcBozjG/NU7BiCdC3XpvTK9389yzQJGQDStWfXafUNdFjCqCF9NhJv7rJj+frPqwz21/SxgQFFOPT4+Rn5JJrzLUjCrPtpUOcgCxgkAdXd3V3ALVJotrfrCpoqJLGA3NzduOBy6y8vLyOX29rbb2dlxXEOz6sO12n4WMEqk8/NzsVZsNpsFMKteCxPqsoBxAhcXF+7o6Cjc2wHFiaVm1afrNeMsYNR+VBkkitCkH5nct+rDPbX9rGCrq6uR3/fAtPpoU+UgCxiZr+zE0lRPXFa9kiWSZQFrtVqltSL3UrPq0/WacRYwSiQK3rT2A0Aqtax6DUiqyQYmAaTO/BitRe/XWa4mMP5kdn9/725vby0+Pq3FJ74tZgKjFMLJbDaz+Pi0Fp/4tpgJjKdGsbvoE8Pnl57YdDp1g8HA8uCyaPGJb4uZTsyXQtR6izSg8G0xExgOrE/OEkxOrQjmf0NRxFbZ+J0nVTbE/G+BUX1TqVf9xIiRWCUTT4xSqN1uS/pKzRGjVIsSpAjmyx1/rRRNEExZLYqk9vpvBoV/6wvWftuu/AH9tji/A/9rwX4CoNKbBezrnxIAAAAASUVORK5CYII=;" vertex="1" parent="gNoDSgEm0qHazXfeq4_1-76">
          <mxGeometry x="10" y="10" width="21.6" height="20" as="geometry" />
        </mxCell>
        <mxCell id="gNoDSgEm0qHazXfeq4_1-79" value="" style="shape=image;verticalLabelPosition=bottom;labelBackgroundColor=default;verticalAlign=top;aspect=fixed;imageAspect=0;image=data:image/png,iVBORw0KGgoAAAANSUhEUgAAADYAAAAyCAYAAAAX1CjLAAABV2lDQ1BJQ0MgUHJvZmlsZQAAKJFtkE9LAlEUxY+l2R+LiJZGrsLFJKEGrQIzsEhonEwqWjSO0yiM0+s5EVIfon20a9O+IFy1a9MuKILW9QEECUqm+5xKrR5czo/DeZfLAXr6VcZML4CyZXMltRDa2NwK+V/RhwH4EERY1SosIctpiuBbu1/jAR6h99NiF3JHmZcLe/Jy/iqTG1mt/813vcGCXtFIP2giGuM24JGI5UObCT4mHud0FPGJYMPlc8F5l69bmaySJL4jHtWKaoH4mVjKd/hGB5fNA+3rBnF9QLfW10jHaIJII4UQlrAIhTSOFern/3y8lU9iDwxVcJRgoAibfiXIYTChEy/DgoYIJOIoZmhiouff/bW96iMwlyHYbnvZJ6AmA0OnbS88BQzvALezTOXqT6uehreyG4u6HOCA781x6hOAvwY0ueO8nzlOkzrspZ03+5+MAWDdKoYYuwAAAFZlWElmTU0AKgAAAAgAAYdpAAQAAAABAAAAGgAAAAAAA5KGAAcAAAASAAAARKACAAQAAAABAAAANqADAAQAAAABAAAAMgAAAABBU0NJSQAAAFNjcmVlbnNob3SLWX11AAAB1GlUWHRYTUw6Y29tLmFkb2JlLnhtcAAAAAAAPHg6eG1wbWV0YSB4bWxuczp4PSJhZG9iZTpuczptZXRhLyIgeDp4bXB0az0iWE1QIENvcmUgNi4wLjAiPgogICA8cmRmOlJERiB4bWxuczpyZGY9Imh0dHA6Ly93d3cudzMub3JnLzE5OTkvMDIvMjItcmRmLXN5bnRheC1ucyMiPgogICAgICA8cmRmOkRlc2NyaXB0aW9uIHJkZjphYm91dD0iIgogICAgICAgICAgICB4bWxuczpleGlmPSJodHRwOi8vbnMuYWRvYmUuY29tL2V4aWYvMS4wLyI+CiAgICAgICAgIDxleGlmOlBpeGVsWURpbWVuc2lvbj41MDwvZXhpZjpQaXhlbFlEaW1lbnNpb24+CiAgICAgICAgIDxleGlmOlBpeGVsWERpbWVuc2lvbj41NDwvZXhpZjpQaXhlbFhEaW1lbnNpb24+CiAgICAgICAgIDxleGlmOlVzZXJDb21tZW50PlNjcmVlbnNob3Q8L2V4aWY6VXNlckNvbW1lbnQ+CiAgICAgIDwvcmRmOkRlc2NyaXB0aW9uPgogICA8L3JkZjpSREY+CjwveDp4bXBtZXRhPgoow1cUAAADiUlEQVRoBe2a/04iMRDHi6DyBGjirxcgEKLv4DMb4xtooigPgEiC8jfG33d+yDXXdmd1Riu33t0kzbbdbzvz2cLsYKz9eDWXGFMvLy9OuJUo/+ywVqu5paUlxzW1RjrBGCja8/OzdLsyc/V6fR6Lv4aBiWCcFFBPT0+htpJ96bQIVAS7vr52V1dX81ZJml9BbW5uOtrGxkYhTBFsMpm409NTd3JyUlhQpYnd3V3XaDRsYGdnZ+7g4KBKHIVYgOLEJBNPTBIyx+fZtzLNV8zznfdNu78ZjPQqZSGtw4/oSGTW148ZDKhFg/EwrO9UE9j6+vr8iyploY+chHbNeDx2vmnXmMF6vZ4jGy3SyM58HIHTmhms2+26/f197f5ZdBQKvFctZgIr29iXYFxDI9H4Fs5b9eFabT8bGE81rS1JMrxrgAsNMIs+XKvtZwMD6uHhIfK7srJSgEIAmEUfbaocZAGjthyNRoXvAVXB1tbWvIXxWPXhWm0/G1i/33fHx8eR3729PcepARcaYBZ9uFbbzwp2eHgY+ZWgEHgwrT7aVDnIAubLrOXl5cgtySNNHAis+mhT5eA/2FsPioqftJ6eGHPSL1yr/i3fZfeynNja2prrdDoFH8xxLzWrPl2vGWcBozjG/NU7BiCdC3XpvTK9389yzQJGQDStWfXafUNdFjCqCF9NhJv7rJj+frPqwz21/SxgQFFOPT4+Rn5JJrzLUjCrPtpUOcgCxgkAdXd3V3ALVJotrfrCpoqJLGA3NzduOBy6y8vLyOX29rbb2dlxXEOz6sO12n4WMEqk8/NzsVZsNpsFMKteCxPqsoBxAhcXF+7o6Cjc2wHFiaVm1afrNeMsYNR+VBkkitCkH5nct+rDPbX9rGCrq6uR3/fAtPpoU+UgCxiZr+zE0lRPXFa9kiWSZQFrtVqltSL3UrPq0/WacRYwSiQK3rT2A0Aqtax6DUiqyQYmAaTO/BitRe/XWa4mMP5kdn9/725vby0+Pq3FJ74tZgKjFMLJbDaz+Pi0Fp/4tpgJjKdGsbvoE8Pnl57YdDp1g8HA8uCyaPGJb4uZTsyXQtR6izSg8G0xExgOrE/OEkxOrQjmf0NRxFbZ+J0nVTbE/G+BUX1TqVf9xIiRWCUTT4xSqN1uS/pKzRGjVIsSpAjmyx1/rRRNEExZLYqk9vpvBoV/6wvWftuu/AH9tji/A/9rwX4CoNKbBezrnxIAAAAASUVORK5CYII=;" vertex="1" parent="gNoDSgEm0qHazXfeq4_1-76">
          <mxGeometry x="20" y="20" width="21.6" height="20" as="geometry" />
        </mxCell>
        <mxCell id="gNoDSgEm0qHazXfeq4_1-80" value="" style="group" vertex="1" connectable="0" parent="1">
          <mxGeometry x="508.1" y="280" width="60.00000000000003" height="60" as="geometry" />
        </mxCell>
        <mxCell id="gNoDSgEm0qHazXfeq4_1-81" value="" style="whiteSpace=wrap;html=1;fillColor=#E1D5E7;" vertex="1" parent="gNoDSgEm0qHazXfeq4_1-80">
          <mxGeometry width="60" height="60" as="geometry" />
        </mxCell>
        <mxCell id="gNoDSgEm0qHazXfeq4_1-82" value="" style="group" vertex="1" connectable="0" parent="gNoDSgEm0qHazXfeq4_1-80">
          <mxGeometry x="9.200000000000017" y="10" width="41.60000000000002" height="40" as="geometry" />
        </mxCell>
        <mxCell id="gNoDSgEm0qHazXfeq4_1-83" value="" style="shape=image;verticalLabelPosition=bottom;labelBackgroundColor=default;verticalAlign=top;aspect=fixed;imageAspect=0;image=data:image/png,iVBORw0KGgoAAAANSUhEUgAAADYAAAAyCAYAAAAX1CjLAAABV2lDQ1BJQ0MgUHJvZmlsZQAAKJFtkE9LAlEUxY+l2R+LiJZGrsLFJKEGrQIzsEhonEwqWjSO0yiM0+s5EVIfon20a9O+IFy1a9MuKILW9QEECUqm+5xKrR5czo/DeZfLAXr6VcZML4CyZXMltRDa2NwK+V/RhwH4EERY1SosIctpiuBbu1/jAR6h99NiF3JHmZcLe/Jy/iqTG1mt/813vcGCXtFIP2giGuM24JGI5UObCT4mHud0FPGJYMPlc8F5l69bmaySJL4jHtWKaoH4mVjKd/hGB5fNA+3rBnF9QLfW10jHaIJII4UQlrAIhTSOFern/3y8lU9iDwxVcJRgoAibfiXIYTChEy/DgoYIJOIoZmhiouff/bW96iMwlyHYbnvZJ6AmA0OnbS88BQzvALezTOXqT6uehreyG4u6HOCA781x6hOAvwY0ueO8nzlOkzrspZ03+5+MAWDdKoYYuwAAAFZlWElmTU0AKgAAAAgAAYdpAAQAAAABAAAAGgAAAAAAA5KGAAcAAAASAAAARKACAAQAAAABAAAANqADAAQAAAABAAAAMgAAAABBU0NJSQAAAFNjcmVlbnNob3SLWX11AAAB1GlUWHRYTUw6Y29tLmFkb2JlLnhtcAAAAAAAPHg6eG1wbWV0YSB4bWxuczp4PSJhZG9iZTpuczptZXRhLyIgeDp4bXB0az0iWE1QIENvcmUgNi4wLjAiPgogICA8cmRmOlJERiB4bWxuczpyZGY9Imh0dHA6Ly93d3cudzMub3JnLzE5OTkvMDIvMjItcmRmLXN5bnRheC1ucyMiPgogICAgICA8cmRmOkRlc2NyaXB0aW9uIHJkZjphYm91dD0iIgogICAgICAgICAgICB4bWxuczpleGlmPSJodHRwOi8vbnMuYWRvYmUuY29tL2V4aWYvMS4wLyI+CiAgICAgICAgIDxleGlmOlBpeGVsWURpbWVuc2lvbj41MDwvZXhpZjpQaXhlbFlEaW1lbnNpb24+CiAgICAgICAgIDxleGlmOlBpeGVsWERpbWVuc2lvbj41NDwvZXhpZjpQaXhlbFhEaW1lbnNpb24+CiAgICAgICAgIDxleGlmOlVzZXJDb21tZW50PlNjcmVlbnNob3Q8L2V4aWY6VXNlckNvbW1lbnQ+CiAgICAgIDwvcmRmOkRlc2NyaXB0aW9uPgogICA8L3JkZjpSREY+CjwveDp4bXBtZXRhPgoow1cUAAADiUlEQVRoBe2a/04iMRDHi6DyBGjirxcgEKLv4DMb4xtooigPgEiC8jfG33d+yDXXdmd1Riu33t0kzbbdbzvz2cLsYKz9eDWXGFMvLy9OuJUo/+ywVqu5paUlxzW1RjrBGCja8/OzdLsyc/V6fR6Lv4aBiWCcFFBPT0+htpJ96bQIVAS7vr52V1dX81ZJml9BbW5uOtrGxkYhTBFsMpm409NTd3JyUlhQpYnd3V3XaDRsYGdnZ+7g4KBKHIVYgOLEJBNPTBIyx+fZtzLNV8zznfdNu78ZjPQqZSGtw4/oSGTW148ZDKhFg/EwrO9UE9j6+vr8iyploY+chHbNeDx2vmnXmMF6vZ4jGy3SyM58HIHTmhms2+26/f197f5ZdBQKvFctZgIr29iXYFxDI9H4Fs5b9eFabT8bGE81rS1JMrxrgAsNMIs+XKvtZwMD6uHhIfK7srJSgEIAmEUfbaocZAGjthyNRoXvAVXB1tbWvIXxWPXhWm0/G1i/33fHx8eR3729PcepARcaYBZ9uFbbzwp2eHgY+ZWgEHgwrT7aVDnIAubLrOXl5cgtySNNHAis+mhT5eA/2FsPioqftJ6eGHPSL1yr/i3fZfeynNja2prrdDoFH8xxLzWrPl2vGWcBozjG/NU7BiCdC3XpvTK9389yzQJGQDStWfXafUNdFjCqCF9NhJv7rJj+frPqwz21/SxgQFFOPT4+Rn5JJrzLUjCrPtpUOcgCxgkAdXd3V3ALVJotrfrCpoqJLGA3NzduOBy6y8vLyOX29rbb2dlxXEOz6sO12n4WMEqk8/NzsVZsNpsFMKteCxPqsoBxAhcXF+7o6Cjc2wHFiaVm1afrNeMsYNR+VBkkitCkH5nct+rDPbX9rGCrq6uR3/fAtPpoU+UgCxiZr+zE0lRPXFa9kiWSZQFrtVqltSL3UrPq0/WacRYwSiQK3rT2A0Aqtax6DUiqyQYmAaTO/BitRe/XWa4mMP5kdn9/725vby0+Pq3FJ74tZgKjFMLJbDaz+Pi0Fp/4tpgJjKdGsbvoE8Pnl57YdDp1g8HA8uCyaPGJb4uZTsyXQtR6izSg8G0xExgOrE/OEkxOrQjmf0NRxFbZ+J0nVTbE/G+BUX1TqVf9xIiRWCUTT4xSqN1uS/pKzRGjVIsSpAjmyx1/rRRNEExZLYqk9vpvBoV/6wvWftuu/AH9tji/A/9rwX4CoNKbBezrnxIAAAAASUVORK5CYII=;" vertex="1" parent="gNoDSgEm0qHazXfeq4_1-82">
          <mxGeometry width="21.6" height="20" as="geometry" />
        </mxCell>
        <mxCell id="gNoDSgEm0qHazXfeq4_1-84" value="" style="shape=image;verticalLabelPosition=bottom;labelBackgroundColor=default;verticalAlign=top;aspect=fixed;imageAspect=0;image=data:image/png,iVBORw0KGgoAAAANSUhEUgAAADYAAAAyCAYAAAAX1CjLAAABV2lDQ1BJQ0MgUHJvZmlsZQAAKJFtkE9LAlEUxY+l2R+LiJZGrsLFJKEGrQIzsEhonEwqWjSO0yiM0+s5EVIfon20a9O+IFy1a9MuKILW9QEECUqm+5xKrR5czo/DeZfLAXr6VcZML4CyZXMltRDa2NwK+V/RhwH4EERY1SosIctpiuBbu1/jAR6h99NiF3JHmZcLe/Jy/iqTG1mt/813vcGCXtFIP2giGuM24JGI5UObCT4mHud0FPGJYMPlc8F5l69bmaySJL4jHtWKaoH4mVjKd/hGB5fNA+3rBnF9QLfW10jHaIJII4UQlrAIhTSOFern/3y8lU9iDwxVcJRgoAibfiXIYTChEy/DgoYIJOIoZmhiouff/bW96iMwlyHYbnvZJ6AmA0OnbS88BQzvALezTOXqT6uehreyG4u6HOCA781x6hOAvwY0ueO8nzlOkzrspZ03+5+MAWDdKoYYuwAAAFZlWElmTU0AKgAAAAgAAYdpAAQAAAABAAAAGgAAAAAAA5KGAAcAAAASAAAARKACAAQAAAABAAAANqADAAQAAAABAAAAMgAAAABBU0NJSQAAAFNjcmVlbnNob3SLWX11AAAB1GlUWHRYTUw6Y29tLmFkb2JlLnhtcAAAAAAAPHg6eG1wbWV0YSB4bWxuczp4PSJhZG9iZTpuczptZXRhLyIgeDp4bXB0az0iWE1QIENvcmUgNi4wLjAiPgogICA8cmRmOlJERiB4bWxuczpyZGY9Imh0dHA6Ly93d3cudzMub3JnLzE5OTkvMDIvMjItcmRmLXN5bnRheC1ucyMiPgogICAgICA8cmRmOkRlc2NyaXB0aW9uIHJkZjphYm91dD0iIgogICAgICAgICAgICB4bWxuczpleGlmPSJodHRwOi8vbnMuYWRvYmUuY29tL2V4aWYvMS4wLyI+CiAgICAgICAgIDxleGlmOlBpeGVsWURpbWVuc2lvbj41MDwvZXhpZjpQaXhlbFlEaW1lbnNpb24+CiAgICAgICAgIDxleGlmOlBpeGVsWERpbWVuc2lvbj41NDwvZXhpZjpQaXhlbFhEaW1lbnNpb24+CiAgICAgICAgIDxleGlmOlVzZXJDb21tZW50PlNjcmVlbnNob3Q8L2V4aWY6VXNlckNvbW1lbnQ+CiAgICAgIDwvcmRmOkRlc2NyaXB0aW9uPgogICA8L3JkZjpSREY+CjwveDp4bXBtZXRhPgoow1cUAAADiUlEQVRoBe2a/04iMRDHi6DyBGjirxcgEKLv4DMb4xtooigPgEiC8jfG33d+yDXXdmd1Riu33t0kzbbdbzvz2cLsYKz9eDWXGFMvLy9OuJUo/+ywVqu5paUlxzW1RjrBGCja8/OzdLsyc/V6fR6Lv4aBiWCcFFBPT0+htpJ96bQIVAS7vr52V1dX81ZJml9BbW5uOtrGxkYhTBFsMpm409NTd3JyUlhQpYnd3V3XaDRsYGdnZ+7g4KBKHIVYgOLEJBNPTBIyx+fZtzLNV8zznfdNu78ZjPQqZSGtw4/oSGTW148ZDKhFg/EwrO9UE9j6+vr8iyploY+chHbNeDx2vmnXmMF6vZ4jGy3SyM58HIHTmhms2+26/f197f5ZdBQKvFctZgIr29iXYFxDI9H4Fs5b9eFabT8bGE81rS1JMrxrgAsNMIs+XKvtZwMD6uHhIfK7srJSgEIAmEUfbaocZAGjthyNRoXvAVXB1tbWvIXxWPXhWm0/G1i/33fHx8eR3729PcepARcaYBZ9uFbbzwp2eHgY+ZWgEHgwrT7aVDnIAubLrOXl5cgtySNNHAis+mhT5eA/2FsPioqftJ6eGHPSL1yr/i3fZfeynNja2prrdDoFH8xxLzWrPl2vGWcBozjG/NU7BiCdC3XpvTK9389yzQJGQDStWfXafUNdFjCqCF9NhJv7rJj+frPqwz21/SxgQFFOPT4+Rn5JJrzLUjCrPtpUOcgCxgkAdXd3V3ALVJotrfrCpoqJLGA3NzduOBy6y8vLyOX29rbb2dlxXEOz6sO12n4WMEqk8/NzsVZsNpsFMKteCxPqsoBxAhcXF+7o6Cjc2wHFiaVm1afrNeMsYNR+VBkkitCkH5nct+rDPbX9rGCrq6uR3/fAtPpoU+UgCxiZr+zE0lRPXFa9kiWSZQFrtVqltSL3UrPq0/WacRYwSiQK3rT2A0Aqtax6DUiqyQYmAaTO/BitRe/XWa4mMP5kdn9/725vby0+Pq3FJ74tZgKjFMLJbDaz+Pi0Fp/4tpgJjKdGsbvoE8Pnl57YdDp1g8HA8uCyaPGJb4uZTsyXQtR6izSg8G0xExgOrE/OEkxOrQjmf0NRxFbZ+J0nVTbE/G+BUX1TqVf9xIiRWCUTT4xSqN1uS/pKzRGjVIsSpAjmyx1/rRRNEExZLYqk9vpvBoV/6wvWftuu/AH9tji/A/9rwX4CoNKbBezrnxIAAAAASUVORK5CYII=;" vertex="1" parent="gNoDSgEm0qHazXfeq4_1-82">
          <mxGeometry x="10" y="10" width="21.6" height="20" as="geometry" />
        </mxCell>
        <mxCell id="gNoDSgEm0qHazXfeq4_1-85" value="" style="shape=image;verticalLabelPosition=bottom;labelBackgroundColor=default;verticalAlign=top;aspect=fixed;imageAspect=0;image=data:image/png,iVBORw0KGgoAAAANSUhEUgAAADYAAAAyCAYAAAAX1CjLAAABV2lDQ1BJQ0MgUHJvZmlsZQAAKJFtkE9LAlEUxY+l2R+LiJZGrsLFJKEGrQIzsEhonEwqWjSO0yiM0+s5EVIfon20a9O+IFy1a9MuKILW9QEECUqm+5xKrR5czo/DeZfLAXr6VcZML4CyZXMltRDa2NwK+V/RhwH4EERY1SosIctpiuBbu1/jAR6h99NiF3JHmZcLe/Jy/iqTG1mt/813vcGCXtFIP2giGuM24JGI5UObCT4mHud0FPGJYMPlc8F5l69bmaySJL4jHtWKaoH4mVjKd/hGB5fNA+3rBnF9QLfW10jHaIJII4UQlrAIhTSOFern/3y8lU9iDwxVcJRgoAibfiXIYTChEy/DgoYIJOIoZmhiouff/bW96iMwlyHYbnvZJ6AmA0OnbS88BQzvALezTOXqT6uehreyG4u6HOCA781x6hOAvwY0ueO8nzlOkzrspZ03+5+MAWDdKoYYuwAAAFZlWElmTU0AKgAAAAgAAYdpAAQAAAABAAAAGgAAAAAAA5KGAAcAAAASAAAARKACAAQAAAABAAAANqADAAQAAAABAAAAMgAAAABBU0NJSQAAAFNjcmVlbnNob3SLWX11AAAB1GlUWHRYTUw6Y29tLmFkb2JlLnhtcAAAAAAAPHg6eG1wbWV0YSB4bWxuczp4PSJhZG9iZTpuczptZXRhLyIgeDp4bXB0az0iWE1QIENvcmUgNi4wLjAiPgogICA8cmRmOlJERiB4bWxuczpyZGY9Imh0dHA6Ly93d3cudzMub3JnLzE5OTkvMDIvMjItcmRmLXN5bnRheC1ucyMiPgogICAgICA8cmRmOkRlc2NyaXB0aW9uIHJkZjphYm91dD0iIgogICAgICAgICAgICB4bWxuczpleGlmPSJodHRwOi8vbnMuYWRvYmUuY29tL2V4aWYvMS4wLyI+CiAgICAgICAgIDxleGlmOlBpeGVsWURpbWVuc2lvbj41MDwvZXhpZjpQaXhlbFlEaW1lbnNpb24+CiAgICAgICAgIDxleGlmOlBpeGVsWERpbWVuc2lvbj41NDwvZXhpZjpQaXhlbFhEaW1lbnNpb24+CiAgICAgICAgIDxleGlmOlVzZXJDb21tZW50PlNjcmVlbnNob3Q8L2V4aWY6VXNlckNvbW1lbnQ+CiAgICAgIDwvcmRmOkRlc2NyaXB0aW9uPgogICA8L3JkZjpSREY+CjwveDp4bXBtZXRhPgoow1cUAAADiUlEQVRoBe2a/04iMRDHi6DyBGjirxcgEKLv4DMb4xtooigPgEiC8jfG33d+yDXXdmd1Riu33t0kzbbdbzvz2cLsYKz9eDWXGFMvLy9OuJUo/+ywVqu5paUlxzW1RjrBGCja8/OzdLsyc/V6fR6Lv4aBiWCcFFBPT0+htpJ96bQIVAS7vr52V1dX81ZJml9BbW5uOtrGxkYhTBFsMpm409NTd3JyUlhQpYnd3V3XaDRsYGdnZ+7g4KBKHIVYgOLEJBNPTBIyx+fZtzLNV8zznfdNu78ZjPQqZSGtw4/oSGTW148ZDKhFg/EwrO9UE9j6+vr8iyploY+chHbNeDx2vmnXmMF6vZ4jGy3SyM58HIHTmhms2+26/f197f5ZdBQKvFctZgIr29iXYFxDI9H4Fs5b9eFabT8bGE81rS1JMrxrgAsNMIs+XKvtZwMD6uHhIfK7srJSgEIAmEUfbaocZAGjthyNRoXvAVXB1tbWvIXxWPXhWm0/G1i/33fHx8eR3729PcepARcaYBZ9uFbbzwp2eHgY+ZWgEHgwrT7aVDnIAubLrOXl5cgtySNNHAis+mhT5eA/2FsPioqftJ6eGHPSL1yr/i3fZfeynNja2prrdDoFH8xxLzWrPl2vGWcBozjG/NU7BiCdC3XpvTK9389yzQJGQDStWfXafUNdFjCqCF9NhJv7rJj+frPqwz21/SxgQFFOPT4+Rn5JJrzLUjCrPtpUOcgCxgkAdXd3V3ALVJotrfrCpoqJLGA3NzduOBy6y8vLyOX29rbb2dlxXEOz6sO12n4WMEqk8/NzsVZsNpsFMKteCxPqsoBxAhcXF+7o6Cjc2wHFiaVm1afrNeMsYNR+VBkkitCkH5nct+rDPbX9rGCrq6uR3/fAtPpoU+UgCxiZr+zE0lRPXFa9kiWSZQFrtVqltSL3UrPq0/WacRYwSiQK3rT2A0Aqtax6DUiqyQYmAaTO/BitRe/XWa4mMP5kdn9/725vby0+Pq3FJ74tZgKjFMLJbDaz+Pi0Fp/4tpgJjKdGsbvoE8Pnl57YdDp1g8HA8uCyaPGJb4uZTsyXQtR6izSg8G0xExgOrE/OEkxOrQjmf0NRxFbZ+J0nVTbE/G+BUX1TqVf9xIiRWCUTT4xSqN1uS/pKzRGjVIsSpAjmyx1/rRRNEExZLYqk9vpvBoV/6wvWftuu/AH9tji/A/9rwX4CoNKbBezrnxIAAAAASUVORK5CYII=;" vertex="1" parent="gNoDSgEm0qHazXfeq4_1-82">
          <mxGeometry x="20" y="20" width="21.6" height="20" as="geometry" />
        </mxCell>
        <mxCell id="gNoDSgEm0qHazXfeq4_1-86" value="" style="group" vertex="1" connectable="0" parent="1">
          <mxGeometry x="508.1" y="480" width="60.00000000000003" height="60" as="geometry" />
        </mxCell>
        <mxCell id="gNoDSgEm0qHazXfeq4_1-87" value="" style="whiteSpace=wrap;html=1;fillColor=#E1D5E7;" vertex="1" parent="gNoDSgEm0qHazXfeq4_1-86">
          <mxGeometry width="60" height="60" as="geometry" />
        </mxCell>
        <mxCell id="gNoDSgEm0qHazXfeq4_1-88" value="" style="group" vertex="1" connectable="0" parent="gNoDSgEm0qHazXfeq4_1-86">
          <mxGeometry x="9.200000000000017" y="10" width="41.60000000000002" height="40" as="geometry" />
        </mxCell>
        <mxCell id="gNoDSgEm0qHazXfeq4_1-89" value="" style="shape=image;verticalLabelPosition=bottom;labelBackgroundColor=default;verticalAlign=top;aspect=fixed;imageAspect=0;image=data:image/png,iVBORw0KGgoAAAANSUhEUgAAADYAAAAyCAYAAAAX1CjLAAABV2lDQ1BJQ0MgUHJvZmlsZQAAKJFtkE9LAlEUxY+l2R+LiJZGrsLFJKEGrQIzsEhonEwqWjSO0yiM0+s5EVIfon20a9O+IFy1a9MuKILW9QEECUqm+5xKrR5czo/DeZfLAXr6VcZML4CyZXMltRDa2NwK+V/RhwH4EERY1SosIctpiuBbu1/jAR6h99NiF3JHmZcLe/Jy/iqTG1mt/813vcGCXtFIP2giGuM24JGI5UObCT4mHud0FPGJYMPlc8F5l69bmaySJL4jHtWKaoH4mVjKd/hGB5fNA+3rBnF9QLfW10jHaIJII4UQlrAIhTSOFern/3y8lU9iDwxVcJRgoAibfiXIYTChEy/DgoYIJOIoZmhiouff/bW96iMwlyHYbnvZJ6AmA0OnbS88BQzvALezTOXqT6uehreyG4u6HOCA781x6hOAvwY0ueO8nzlOkzrspZ03+5+MAWDdKoYYuwAAAFZlWElmTU0AKgAAAAgAAYdpAAQAAAABAAAAGgAAAAAAA5KGAAcAAAASAAAARKACAAQAAAABAAAANqADAAQAAAABAAAAMgAAAABBU0NJSQAAAFNjcmVlbnNob3SLWX11AAAB1GlUWHRYTUw6Y29tLmFkb2JlLnhtcAAAAAAAPHg6eG1wbWV0YSB4bWxuczp4PSJhZG9iZTpuczptZXRhLyIgeDp4bXB0az0iWE1QIENvcmUgNi4wLjAiPgogICA8cmRmOlJERiB4bWxuczpyZGY9Imh0dHA6Ly93d3cudzMub3JnLzE5OTkvMDIvMjItcmRmLXN5bnRheC1ucyMiPgogICAgICA8cmRmOkRlc2NyaXB0aW9uIHJkZjphYm91dD0iIgogICAgICAgICAgICB4bWxuczpleGlmPSJodHRwOi8vbnMuYWRvYmUuY29tL2V4aWYvMS4wLyI+CiAgICAgICAgIDxleGlmOlBpeGVsWURpbWVuc2lvbj41MDwvZXhpZjpQaXhlbFlEaW1lbnNpb24+CiAgICAgICAgIDxleGlmOlBpeGVsWERpbWVuc2lvbj41NDwvZXhpZjpQaXhlbFhEaW1lbnNpb24+CiAgICAgICAgIDxleGlmOlVzZXJDb21tZW50PlNjcmVlbnNob3Q8L2V4aWY6VXNlckNvbW1lbnQ+CiAgICAgIDwvcmRmOkRlc2NyaXB0aW9uPgogICA8L3JkZjpSREY+CjwveDp4bXBtZXRhPgoow1cUAAADiUlEQVRoBe2a/04iMRDHi6DyBGjirxcgEKLv4DMb4xtooigPgEiC8jfG33d+yDXXdmd1Riu33t0kzbbdbzvz2cLsYKz9eDWXGFMvLy9OuJUo/+ywVqu5paUlxzW1RjrBGCja8/OzdLsyc/V6fR6Lv4aBiWCcFFBPT0+htpJ96bQIVAS7vr52V1dX81ZJml9BbW5uOtrGxkYhTBFsMpm409NTd3JyUlhQpYnd3V3XaDRsYGdnZ+7g4KBKHIVYgOLEJBNPTBIyx+fZtzLNV8zznfdNu78ZjPQqZSGtw4/oSGTW148ZDKhFg/EwrO9UE9j6+vr8iyploY+chHbNeDx2vmnXmMF6vZ4jGy3SyM58HIHTmhms2+26/f197f5ZdBQKvFctZgIr29iXYFxDI9H4Fs5b9eFabT8bGE81rS1JMrxrgAsNMIs+XKvtZwMD6uHhIfK7srJSgEIAmEUfbaocZAGjthyNRoXvAVXB1tbWvIXxWPXhWm0/G1i/33fHx8eR3729PcepARcaYBZ9uFbbzwp2eHgY+ZWgEHgwrT7aVDnIAubLrOXl5cgtySNNHAis+mhT5eA/2FsPioqftJ6eGHPSL1yr/i3fZfeynNja2prrdDoFH8xxLzWrPl2vGWcBozjG/NU7BiCdC3XpvTK9389yzQJGQDStWfXafUNdFjCqCF9NhJv7rJj+frPqwz21/SxgQFFOPT4+Rn5JJrzLUjCrPtpUOcgCxgkAdXd3V3ALVJotrfrCpoqJLGA3NzduOBy6y8vLyOX29rbb2dlxXEOz6sO12n4WMEqk8/NzsVZsNpsFMKteCxPqsoBxAhcXF+7o6Cjc2wHFiaVm1afrNeMsYNR+VBkkitCkH5nct+rDPbX9rGCrq6uR3/fAtPpoU+UgCxiZr+zE0lRPXFa9kiWSZQFrtVqltSL3UrPq0/WacRYwSiQK3rT2A0Aqtax6DUiqyQYmAaTO/BitRe/XWa4mMP5kdn9/725vby0+Pq3FJ74tZgKjFMLJbDaz+Pi0Fp/4tpgJjKdGsbvoE8Pnl57YdDp1g8HA8uCyaPGJb4uZTsyXQtR6izSg8G0xExgOrE/OEkxOrQjmf0NRxFbZ+J0nVTbE/G+BUX1TqVf9xIiRWCUTT4xSqN1uS/pKzRGjVIsSpAjmyx1/rRRNEExZLYqk9vpvBoV/6wvWftuu/AH9tji/A/9rwX4CoNKbBezrnxIAAAAASUVORK5CYII=;" vertex="1" parent="gNoDSgEm0qHazXfeq4_1-88">
          <mxGeometry width="21.6" height="20" as="geometry" />
        </mxCell>
        <mxCell id="gNoDSgEm0qHazXfeq4_1-90" value="" style="shape=image;verticalLabelPosition=bottom;labelBackgroundColor=default;verticalAlign=top;aspect=fixed;imageAspect=0;image=data:image/png,iVBORw0KGgoAAAANSUhEUgAAADYAAAAyCAYAAAAX1CjLAAABV2lDQ1BJQ0MgUHJvZmlsZQAAKJFtkE9LAlEUxY+l2R+LiJZGrsLFJKEGrQIzsEhonEwqWjSO0yiM0+s5EVIfon20a9O+IFy1a9MuKILW9QEECUqm+5xKrR5czo/DeZfLAXr6VcZML4CyZXMltRDa2NwK+V/RhwH4EERY1SosIctpiuBbu1/jAR6h99NiF3JHmZcLe/Jy/iqTG1mt/813vcGCXtFIP2giGuM24JGI5UObCT4mHud0FPGJYMPlc8F5l69bmaySJL4jHtWKaoH4mVjKd/hGB5fNA+3rBnF9QLfW10jHaIJII4UQlrAIhTSOFern/3y8lU9iDwxVcJRgoAibfiXIYTChEy/DgoYIJOIoZmhiouff/bW96iMwlyHYbnvZJ6AmA0OnbS88BQzvALezTOXqT6uehreyG4u6HOCA781x6hOAvwY0ueO8nzlOkzrspZ03+5+MAWDdKoYYuwAAAFZlWElmTU0AKgAAAAgAAYdpAAQAAAABAAAAGgAAAAAAA5KGAAcAAAASAAAARKACAAQAAAABAAAANqADAAQAAAABAAAAMgAAAABBU0NJSQAAAFNjcmVlbnNob3SLWX11AAAB1GlUWHRYTUw6Y29tLmFkb2JlLnhtcAAAAAAAPHg6eG1wbWV0YSB4bWxuczp4PSJhZG9iZTpuczptZXRhLyIgeDp4bXB0az0iWE1QIENvcmUgNi4wLjAiPgogICA8cmRmOlJERiB4bWxuczpyZGY9Imh0dHA6Ly93d3cudzMub3JnLzE5OTkvMDIvMjItcmRmLXN5bnRheC1ucyMiPgogICAgICA8cmRmOkRlc2NyaXB0aW9uIHJkZjphYm91dD0iIgogICAgICAgICAgICB4bWxuczpleGlmPSJodHRwOi8vbnMuYWRvYmUuY29tL2V4aWYvMS4wLyI+CiAgICAgICAgIDxleGlmOlBpeGVsWURpbWVuc2lvbj41MDwvZXhpZjpQaXhlbFlEaW1lbnNpb24+CiAgICAgICAgIDxleGlmOlBpeGVsWERpbWVuc2lvbj41NDwvZXhpZjpQaXhlbFhEaW1lbnNpb24+CiAgICAgICAgIDxleGlmOlVzZXJDb21tZW50PlNjcmVlbnNob3Q8L2V4aWY6VXNlckNvbW1lbnQ+CiAgICAgIDwvcmRmOkRlc2NyaXB0aW9uPgogICA8L3JkZjpSREY+CjwveDp4bXBtZXRhPgoow1cUAAADiUlEQVRoBe2a/04iMRDHi6DyBGjirxcgEKLv4DMb4xtooigPgEiC8jfG33d+yDXXdmd1Riu33t0kzbbdbzvz2cLsYKz9eDWXGFMvLy9OuJUo/+ywVqu5paUlxzW1RjrBGCja8/OzdLsyc/V6fR6Lv4aBiWCcFFBPT0+htpJ96bQIVAS7vr52V1dX81ZJml9BbW5uOtrGxkYhTBFsMpm409NTd3JyUlhQpYnd3V3XaDRsYGdnZ+7g4KBKHIVYgOLEJBNPTBIyx+fZtzLNV8zznfdNu78ZjPQqZSGtw4/oSGTW148ZDKhFg/EwrO9UE9j6+vr8iyploY+chHbNeDx2vmnXmMF6vZ4jGy3SyM58HIHTmhms2+26/f197f5ZdBQKvFctZgIr29iXYFxDI9H4Fs5b9eFabT8bGE81rS1JMrxrgAsNMIs+XKvtZwMD6uHhIfK7srJSgEIAmEUfbaocZAGjthyNRoXvAVXB1tbWvIXxWPXhWm0/G1i/33fHx8eR3729PcepARcaYBZ9uFbbzwp2eHgY+ZWgEHgwrT7aVDnIAubLrOXl5cgtySNNHAis+mhT5eA/2FsPioqftJ6eGHPSL1yr/i3fZfeynNja2prrdDoFH8xxLzWrPl2vGWcBozjG/NU7BiCdC3XpvTK9389yzQJGQDStWfXafUNdFjCqCF9NhJv7rJj+frPqwz21/SxgQFFOPT4+Rn5JJrzLUjCrPtpUOcgCxgkAdXd3V3ALVJotrfrCpoqJLGA3NzduOBy6y8vLyOX29rbb2dlxXEOz6sO12n4WMEqk8/NzsVZsNpsFMKteCxPqsoBxAhcXF+7o6Cjc2wHFiaVm1afrNeMsYNR+VBkkitCkH5nct+rDPbX9rGCrq6uR3/fAtPpoU+UgCxiZr+zE0lRPXFa9kiWSZQFrtVqltSL3UrPq0/WacRYwSiQK3rT2A0Aqtax6DUiqyQYmAaTO/BitRe/XWa4mMP5kdn9/725vby0+Pq3FJ74tZgKjFMLJbDaz+Pi0Fp/4tpgJjKdGsbvoE8Pnl57YdDp1g8HA8uCyaPGJb4uZTsyXQtR6izSg8G0xExgOrE/OEkxOrQjmf0NRxFbZ+J0nVTbE/G+BUX1TqVf9xIiRWCUTT4xSqN1uS/pKzRGjVIsSpAjmyx1/rRRNEExZLYqk9vpvBoV/6wvWftuu/AH9tji/A/9rwX4CoNKbBezrnxIAAAAASUVORK5CYII=;" vertex="1" parent="gNoDSgEm0qHazXfeq4_1-88">
          <mxGeometry x="10" y="10" width="21.6" height="20" as="geometry" />
        </mxCell>
        <mxCell id="gNoDSgEm0qHazXfeq4_1-91" value="" style="shape=image;verticalLabelPosition=bottom;labelBackgroundColor=default;verticalAlign=top;aspect=fixed;imageAspect=0;image=data:image/png,iVBORw0KGgoAAAANSUhEUgAAADYAAAAyCAYAAAAX1CjLAAABV2lDQ1BJQ0MgUHJvZmlsZQAAKJFtkE9LAlEUxY+l2R+LiJZGrsLFJKEGrQIzsEhonEwqWjSO0yiM0+s5EVIfon20a9O+IFy1a9MuKILW9QEECUqm+5xKrR5czo/DeZfLAXr6VcZML4CyZXMltRDa2NwK+V/RhwH4EERY1SosIctpiuBbu1/jAR6h99NiF3JHmZcLe/Jy/iqTG1mt/813vcGCXtFIP2giGuM24JGI5UObCT4mHud0FPGJYMPlc8F5l69bmaySJL4jHtWKaoH4mVjKd/hGB5fNA+3rBnF9QLfW10jHaIJII4UQlrAIhTSOFern/3y8lU9iDwxVcJRgoAibfiXIYTChEy/DgoYIJOIoZmhiouff/bW96iMwlyHYbnvZJ6AmA0OnbS88BQzvALezTOXqT6uehreyG4u6HOCA781x6hOAvwY0ueO8nzlOkzrspZ03+5+MAWDdKoYYuwAAAFZlWElmTU0AKgAAAAgAAYdpAAQAAAABAAAAGgAAAAAAA5KGAAcAAAASAAAARKACAAQAAAABAAAANqADAAQAAAABAAAAMgAAAABBU0NJSQAAAFNjcmVlbnNob3SLWX11AAAB1GlUWHRYTUw6Y29tLmFkb2JlLnhtcAAAAAAAPHg6eG1wbWV0YSB4bWxuczp4PSJhZG9iZTpuczptZXRhLyIgeDp4bXB0az0iWE1QIENvcmUgNi4wLjAiPgogICA8cmRmOlJERiB4bWxuczpyZGY9Imh0dHA6Ly93d3cudzMub3JnLzE5OTkvMDIvMjItcmRmLXN5bnRheC1ucyMiPgogICAgICA8cmRmOkRlc2NyaXB0aW9uIHJkZjphYm91dD0iIgogICAgICAgICAgICB4bWxuczpleGlmPSJodHRwOi8vbnMuYWRvYmUuY29tL2V4aWYvMS4wLyI+CiAgICAgICAgIDxleGlmOlBpeGVsWURpbWVuc2lvbj41MDwvZXhpZjpQaXhlbFlEaW1lbnNpb24+CiAgICAgICAgIDxleGlmOlBpeGVsWERpbWVuc2lvbj41NDwvZXhpZjpQaXhlbFhEaW1lbnNpb24+CiAgICAgICAgIDxleGlmOlVzZXJDb21tZW50PlNjcmVlbnNob3Q8L2V4aWY6VXNlckNvbW1lbnQ+CiAgICAgIDwvcmRmOkRlc2NyaXB0aW9uPgogICA8L3JkZjpSREY+CjwveDp4bXBtZXRhPgoow1cUAAADiUlEQVRoBe2a/04iMRDHi6DyBGjirxcgEKLv4DMb4xtooigPgEiC8jfG33d+yDXXdmd1Riu33t0kzbbdbzvz2cLsYKz9eDWXGFMvLy9OuJUo/+ywVqu5paUlxzW1RjrBGCja8/OzdLsyc/V6fR6Lv4aBiWCcFFBPT0+htpJ96bQIVAS7vr52V1dX81ZJml9BbW5uOtrGxkYhTBFsMpm409NTd3JyUlhQpYnd3V3XaDRsYGdnZ+7g4KBKHIVYgOLEJBNPTBIyx+fZtzLNV8zznfdNu78ZjPQqZSGtw4/oSGTW148ZDKhFg/EwrO9UE9j6+vr8iyploY+chHbNeDx2vmnXmMF6vZ4jGy3SyM58HIHTmhms2+26/f197f5ZdBQKvFctZgIr29iXYFxDI9H4Fs5b9eFabT8bGE81rS1JMrxrgAsNMIs+XKvtZwMD6uHhIfK7srJSgEIAmEUfbaocZAGjthyNRoXvAVXB1tbWvIXxWPXhWm0/G1i/33fHx8eR3729PcepARcaYBZ9uFbbzwp2eHgY+ZWgEHgwrT7aVDnIAubLrOXl5cgtySNNHAis+mhT5eA/2FsPioqftJ6eGHPSL1yr/i3fZfeynNja2prrdDoFH8xxLzWrPl2vGWcBozjG/NU7BiCdC3XpvTK9389yzQJGQDStWfXafUNdFjCqCF9NhJv7rJj+frPqwz21/SxgQFFOPT4+Rn5JJrzLUjCrPtpUOcgCxgkAdXd3V3ALVJotrfrCpoqJLGA3NzduOBy6y8vLyOX29rbb2dlxXEOz6sO12n4WMEqk8/NzsVZsNpsFMKteCxPqsoBxAhcXF+7o6Cjc2wHFiaVm1afrNeMsYNR+VBkkitCkH5nct+rDPbX9rGCrq6uR3/fAtPpoU+UgCxiZr+zE0lRPXFa9kiWSZQFrtVqltSL3UrPq0/WacRYwSiQK3rT2A0Aqtax6DUiqyQYmAaTO/BitRe/XWa4mMP5kdn9/725vby0+Pq3FJ74tZgKjFMLJbDaz+Pi0Fp/4tpgJjKdGsbvoE8Pnl57YdDp1g8HA8uCyaPGJb4uZTsyXQtR6izSg8G0xExgOrE/OEkxOrQjmf0NRxFbZ+J0nVTbE/G+BUX1TqVf9xIiRWCUTT4xSqN1uS/pKzRGjVIsSpAjmyx1/rRRNEExZLYqk9vpvBoV/6wvWftuu/AH9tji/A/9rwX4CoNKbBezrnxIAAAAASUVORK5CYII=;" vertex="1" parent="gNoDSgEm0qHazXfeq4_1-88">
          <mxGeometry x="20" y="20" width="21.6" height="20" as="geometry" />
        </mxCell>
        <mxCell id="gNoDSgEm0qHazXfeq4_1-118" value="" style="shape=image;verticalLabelPosition=bottom;labelBackgroundColor=default;verticalAlign=top;aspect=fixed;imageAspect=0;image=data:image/png,iVBORw0KGgoAAAANSUhEUgAAAPAAAADwCAYAAAA+VemSAAAABHNCSVQICAgIfAhkiAAAG+xJREFUeJzt3XucXFWVL/DfOo86VZV0B5J85H58cUGZ6wzXSzroZ9DhdUNi5JWOVx0ctBtGP2oqqIyRDnMdMCCOA2lUUKY7Phm68cNDEapBBJIwIDroFVINDI6IgAPhIUM6kKTrcc7Ze90/qgsCJJCk9z6n6vT6fgx/qKy9U92r1jl773UOIIQQQgghhBBCCCGEEEIIIYQQQgghhBBCCCGEEEIIIYQQQgghhBBCCCGEEEIIIYQQQgghZh6yFbg8zh8AcAqA0NYYe4QBABEBTzCgHMJjrLF52UJ6GMCTqc5NiGnybAUmYKGK41Nsxd9bzM1M1tT8zrr+nghxHMHz/Mddz7uXgbuVxq3/ZyE9gFbaC9HmrFXgsQqfF8fRGlvxTSEiMFofBKHRqNWLxdl3gHG1JtyyvIf+lO4Mhdg9x2LsjqhizAwwg5nBrBEE+bxS8fuVVv9Sn9z2zFiFN5Yr/GEAs9KeqxCvZO0SulO1LrUBRi4oIlbxIgIWjVV4AsDl7OKS3v9Fm9OcoxAtNiuwtcvz5LxUnWMVz1Uq/kJYrf2xXOGR6+/j/5727ISY8ZfQe2wqkV3Xd7WK++Jq9bGxcR4GkEt7amLmspnAGTWVyJ4PFccrrvm37bXyOJfSnpWYmSSBp4GZ4ft5Rys1VN7E/wHggLTnJGYWSeBpY7DW0Fq945pfbn+mXOFPpT0jMXPIIpYhzBp+kEcchd8eq/CPAARpz0lknyximcQMIoJS6kNjFX6gPM4HpT0lkW1SgS1g1lBKHRJH0f03VPg9ac9HZJdUYEuYNRyi2VG9+m83bOJj056PyCZZxLKotd2kVfSv5Qp/KO35iOyRBE6IiqMf3VDho9Oeh8gWuQdOUNSo3VneJPfEwhypwAnyPB9R1NhY3sRvS3suIhvsdSNRs9e2XbzUZZTuHFzXLRDhFgD/E0Aj7TmJzmaznVBXJ7fBdb3Y4hh7iNjzfd91X/rrvpjOCSc2M0Op+O3lCl/T20PLEx1cZI61Ennj/TwbjC5Q+ttJBLDWKDDjADAOJQeHM+Pw6o4X3p0vzHaaDQpAkjtfzXPUuTOX9dA3ExtUZE77XOOmYOxe7mIHR4Jwem3Htr8O8rPQ6jayjxDHIWYXigefsIAeS2BAkUEzOoFfqVzhlfXq5IW5fL6r1f9rExHB8byHehfQO6wOJDJLEngXyhU+nbX+BrPez3oSOw5cx121rIe+YXUgkUmSwLtHYxX+eqNe/TvPz1msxoSwUcVHjpzTDWC7pUFERsk+8O7xsh76vB8UD3dcb7O9LTFGkC+iXOHvWBpAZJhU4D3jlitc1lqdyFpbGUBrBc/PH7J8If3BygAik6QC7xnV20MnOY5rbcvHdT0Q4Vu24otskgq8l8bG+aI4ilbbiK21gu/nF/QupPtsxBfZIxV4Ly1bQGe7nn8JOeY/uqkq/HXjgUVmSQXeR2MVvkkpdSKz2XtirWLkgsJRy3roF0YDi0ySCryPlvXQMtd1HzW9Ou16PkC40GhQkVmSwPtOa2B5FJptKGJmRGHjr8bG+QSjgUUmSQJPw/IeeiBfmHW+6biO44IZXzUdV2SP3AMbUK7wZq3iN5k8rcXM8PzcB3p76AZjQUXmSAU2gbDSdEinucotrYbiNUkCG9C7gMYc13vQ5IIWM0Or+C3lcf6wsaAicySBTWGUYOG8dNxoXG48qMgMSWBDehfSXa7j3mu6CjuuN6u8ic8wFlRkiiSwQazxt9pwswODoXQs+8JilySBDeo9nB7w/NxGo4c7mivbs8vj/CVzQUVWSAIbxsDfRVFoITCfBSBvPrDoZJLAhi3voX8P8sXrTFdhFcddYxX+B3NBRRZIAttAWBNFpp/ZTlAqOuv63/N8w4FFB5MEtqB3AT0Y5GddYbbRgQFQ3qni7w0GFR1OEtgSZnwpjkKjT8JjBuqT279wfYXfYjKu6FySwJYsX0iPB/ni90xX4VxQhAucZzCo6GDSzGDX/tf9pvEMgXLmQhKisIZ8sevA3h563Fxc0YlsV2BK4U872er7uWHzVbgAQB69Iyz+wpdG+bMABgDUbY2xM2J4DDw43E8nJzHeXvCv+3VtkhzPN/nyNKVi5LzCwb3vkvcqzWTWXi9KwPw4rCW22ELkwPGDWlLj7YXIy+Uv0Ep92WS/sOf5IBfDAN5vLKjoODYvoe08AX23GABUsmPumd4euqBe2wGT3UrMjDgKl950Px9qLKjoOLIKnZBi15zPmn4AHjkOlMKw0aCio0gCJ6R3AV2mldpmoen/qBvG+UhjQdvccYO8eMlafnva82gXksAJcnO5VTbecugAQ8aDtqFFa/loVdu6Pm5su/+Er/OBac+nHdhM4Hbb0knd8gX0fc/zHzNdhaMwfGd5nJcaC9qGFl3Ex+naxJ2OF4Bcv1Cv18eXDPLb0p5X2mwmsN03Y3coBs41/TYHx3FAnN0H4B23lpfo+sQGx883z5OyBsD7aRX9eslaPiTt+aVJKnDCenvoh56Xe8B4FY7CPytX+EPGgraJ49byElWfuPXF5G1hDdbxPK2ju2dyJZYKnI5/UMrsjpfjOADhK0aDpmzRRXycqk3c5nh5wq7WDqaSWEX1e2bqPbEsYqVgWQ/d6OcC44+hVVH8P8YqfLqxoClatJaPftll8+5MXU5XJ7f9FsB/S2p+7UISOC2MlUrFZmMSwMD56PDbl0UX8V/p2sSdr5u8LazhuH7xmDXPPglgnvUJthG5B05J70L6uZ/L/9r0o3e0Um8dG+fPmwuarEUX8Xt1feIXe5y8LazhBrOdY87f8tSa7+LN9mbYXqQCp+sz2vC9MIPBjHMAGGxhTMaitfy/dX3il3udvC2s4fqF3M+fnXzwfRfzweZn2H5kEStFvT10j5cL1luowvuPVfiz5oLad9wgL9a1idv3OXlbWIOIuuM4/M3iwexvMUkFThkTzrTxMPjq5LZBAL7RwJYsXsvvU7WJ26advC2sAa3msoruznoSyz1wypYvoP/w/dxPTFfhID+LyhU+11xQO44b5MVxfeKW3W4V7avWPrEKf5Xly2m5hG4Dy3poZRxHRmMyM2qT289FGz8MfvEgL1XVifXGk7dlqhJHjWolqwtbcgndHv4UBIWriEz+OBhBvoixcb7YYFDTznRzRTOXzbszdU98x1NbHkEGt5gkgdvEsh5a0ahXYfLOg1mjUa+dAWCOsaAGbRigExwv/1Mbr2V9manV6WPWPPssMnbYQxK4fWwrzu66zHTTv+f5KI9z27Ybrh+gkxyveFMiSRzMdo694IVHsnTsUhax2ohD+LJScWi2CjOiRuPUsQofZCyoYRtW08muX7wxiSR2XL+YpVZEWcRqIycdRv/l+8Fa07/HruuCga+ajWrW+gFallQlzlIrolTgNrNjOX3dcdxJ01U4bNQ+Uh7nBcaCWjBViX9qdjFvFzLUiigVuM189HFshUMXmP74vOZjqdcaDWpB8564cGtSSdzprYiyiNWGehfQpZ7vb7XwGNol5QovMxbUkvWr6f1JJXGntyJKArenOgMXmt4fJccBEUYAFIwGtmD9anq/4xd+lkQSd3IrotwDt6neBbTW8/w/mT5iqWI1Z2ycrzMX1J71A3QC+YXEtpg6sRXRZgJ7RISk/oAcEBBY/PskjoFzTD+GlllDxer4coXPNhrYkg0DU1tMtutBh7Yi2ny52VIAJwEwe8h3N5jhANi8rp/a+ejgXitX+I9axQeaTmSlYuSCwim9PXSt0cCWLBnkMRVVT7Z67BIAyAEcd8Jxc0dsGKCH7Q42fXKZ2+bGKtyrtLqBDbccEhGiKESQL57U20M/NRrcksWDfCNHtZNMP5b3VcgBOd4Wcv33tHsSSwJ3gHKFn9QqfqPpKkxEiMIGgvysv+ldSFcbDW7JkkG+WUe145NIYjjuhOfl3n3bWfSo3cH2naxCdwAGTrWxkMPM8HMBwrB2VbnC/9f4ABasH6ATEtti6oBWREngDrC8h+50XXeT6UYHoJnErutBq/irY+PcEZfSSe4Tt3sroiRw5zjddNP/zri5xXTCT34TTpbHebG1gQyZ2iee8a2Icg/cQcrj/D0dx5+w8YbDFiKC1hq+n7tNM1YsX0iPWRvMgMVr+UYdV09KYnVaq6hanNX9Fzevov+0O9iekwTuLN1j4/yYiuO5NpMYaCZyHEXI5QvXMXDe8h76d6sDTkOiW0yg510//671A/SI3cH2jCRwhxmr8IejKLzWxv3wrhAR4jhCkC/cw4zvkoNblx3WPhWoJclKTI63xXH896xfnf4WkyRwBypX+Aqt4n7bVXhnrS8MFYVxUCw+5BJudx3cdcgb8dDBc+kpAFuQcgfaUf/EV3q6+lGyPY1WErv+X6ZdiSWBO5NfrvBDWsUH2b+Ubv6StAp+LQLqIRBGwGRDY8u2BkIUquz4tXqEurK8Pbs7zNCuC+c/n66+aXud4dj+zZ66nM7n8wvSvCf20hpYTEvkujiuXq096gcF4091JMKLCfBClfH8JOO/tjMmJhmRAhQDWrf+fz6I4iIQF9OuBioC3jiX8NQEYD2JWQPktFoR3wbgGYuj7Vban7mYhhvGeSnH8S0mqjBR8w8zMLGD8dRWjccnGLFu/pI4r6jE7YwIeGqC7ScxAJAD1dih7zz/DW9A8zYiUR3w4xCvpVzhM1QcXbav/34rISfrjMe3MB59TiNWgEtA853hnYkIeHqCsS2pJI5q4bFvnPe28z+JzZZHe/nQSQ4m7Bgb5/OjMPzS3qxMOwToqWr7hz9pPL2N4XV40r4SAXj6eca2WjJJzMzb/KDYk+TZ6az8rGa88iY+L47DNa+XxK3/+dnnNR56RmPLJOC7sP8LnqJnEkzipFsRM/xjm3nGxnlNFDbO29UZ4dY97tYdjN89pfHsdobrZDtxWwjA01uTu5xOshVxBvz4ZpZyhc+Ko3DQcRy0FrccB2hEwO+eVHh8gl+2yjxTJL2wlVQr4gz7Mc4MN1R4WX1yWznIF+EQ4+mtGvc9oRHGgDuD21eSTmJm3nb0G2YdanNhSxI4o3gz3nTTFv7lvX9oHPjHLRq+0xlbQLYRAc9sbd4TW/88yIGOalGha+6f/WwV/dHGEDP4+zjb6M3A9ZuAzVsZOVeSNx0MgP0wxnxbI8hJrAxacQUvC6sTZZ/rYJIXZLQkewlNUFGNvfy8wzeupoqtYaQCZ0xplM/UUbXs5YpIstmh3SWdvFpFkVuYd8TGs+0lLyAJnCmlUV4TNyYvaV4vS/K2EJqnspJL3jh0gznH3L6a/p/l0WQRKytKo3xe3Ki+7kGOmSi5gxxTlTeYc8zG1XS35dGaQyYxiLBr5QifH4fVL8lK1csle5Syec/rFuYdkUTlfXHYpAYSdqwY4TN0VNvnZoasSraZgaDDKtzC/IW273lfNXSSgwmzSlfwUhXXb5H73ZdLfMEqrMEpzjv09tX0W8ujvXr4pAcUZpR+yAeF259/1PXzkAR+SeJbRc3Ke9jtZ9P9lkfbJdkH7kwONDZ4uXwKW0XNrGg2/zNU3ICXm1V1PL9GQD3hybwo+UfqEFTcUF5h/hEbU0peQBK4I60c5cvjsH5wspWXQATEKoqDoOshALczcJeXKzw01NdOD7XDR5PaKvLy+x+zcTXdY3m0155KmoOLvVca4Q/GjR0/JsdNZDwigooj+PmuTQC+y4SfreubyY+Vbe3zdh+b1FbRa5EK3FlmA7yOXM/4g+xeqZW4uXzXdeTlzxvub/sHuyeSvCpuqKnK+yu7g+0ZSeAOUhrhS1Rcn2/3F5UA1nByhdvIy68Y6m//V6sklrxhFV5h/hFpXzbvTC6hO8SKUX5nXNt+v+Pa+84lcsCsq45f+OC6frrF2kCGLBnkm1RUPTGRy+awBqcwL7XV5t2RCtwhHMa/uJ5vb9WZCI4f3DzcRyfaGcCsJWv5Fh3VliaTvFU4xfmp7PO+Hmlm6AClK/hoFTcW2klegtYxXC//xY5K3ri2lNnyayBePB45f2E7Ji8gFbgjkIMrWVlIXiLoKIRf7P6b4T662vwA5i0Z5Jt1lEzyTrUEHmmzn3e6JIHbXGmEe1XUeIv5S0WCjkP4he6Thvvop4aDW7F4kG/UUe34ZJI3Dt1gzrEbE2xM2BfWErg0yksBnATA3mvld8IMB8Dmdf10cRLjJehStnA+QusIXqH7lE5J3iS3iqZaAttin/f1WEtgAo5SUf0ztuK/ekAHrpf7PYDMJPCKEf6EiuoHmj7gROTAD7rOGe6ja40GtmTJII+psHqy9YNeL7UEHtnulbfF5iV0lOj7a6HBQCOxARNAwD8aj0kOHD/42XAfGY9tw+LBqX3eBJJXN/d5rT7DyjS5B25TK0Z4lYpqB5iNSgDRjuE++pDZuHZMLVgdn9g+b3H+oRvbdLV5d2xuI8khkX2XJ+Ac0x8hs4bj5k4DUDUa2IKpfd5EFqxUWG0e0uiw5AVkH7gtlUb5cyqq7W/yspGI4AfFjcP99BNjQS1JdJ+32RL47nY7YbWnbCawdJnvg4tv5rk6Do1XXxVHUMBZRoNasGSQb0oqeadaAo/ceHb7nG3eW1KB28wjz2EVWHcZ/f4jgl/o+vG3+2jcXFDzphoTTkxun7f72HbpKtpXcg/cRj4FzI/j+irTazasFAhYbTaqWUsGeSypfl4VN5QbdCf26Feb5BK6jbgjvMYBFYzf++ZnXTvU175tgVOV9+TEWgKD/Y/o9MrbIpfQ7WNOWN36GdN75yqOMNRHnzIa1KDmPW9CJ6zCGtzC/MM6+Z73lWQfuE2sHOVvqqgBk/d/zerb9c8AXjAW1KAla/k2HdWXzPSWwOmQCtweDojqO/pNL96oOMRwP33BaFCDmHCVViGsLpd0QEvgdMgiVhsojfA/m37SBpEDv9B9Adr4eOmGAbrcDbr7Wcew8uuS4FsC0yKLWCk7Y5T/PG7s+KDZe19CFE7ycB9dYDCoFRtW06iX7z7NeBIn/JbAtEgFThkzLjVffQnBrLlfREKtnNO1foBGjFbiF1sC2+PRrzZJBU7RihF+VxROLjFdfclxtw730dcMBrVuw2oadYPujzGr6QWauud1gjlHZj15AVnEShUBl5l+QDsRgVzvK+iQ6ruzDavph06u6xTs62JeqyUwP+/wLF8270wSOCUrRvnouLHjL81uoRBcL3hyuI8uMRg0URtX07WU6/rIXq/I79wSmNEFq12Re+CUOMClZOcZz+cAsHyY2K6Nq+kaJ+g6tXk5vQe/Rh3eEjgdUoFTsGKET44akwuMVl8iuLn8w0P9NGIuaHo2DtBVbtDd97oLWxloCZwOWcRKgUO4wPS9L2sNML6IDq++O9swQFe+5hZTRloCp0MqcMJKo3xq3KgeZrr6+rni74f76cfmgraH9QM0ssskzlBL4HTIPXDSGF+BY/hj1xpKo22PTE7X+gEacfPdfcxx87/IWEvgdMgldIJKI9yvotpBpquvlys+8O3T6SZzQdvPhgG60gm6TwXr5lZRhloCp0MuoRMUh9VvgcxfmGiNzxkP2oY2DtBVTtDV5xbnv3em3vO+krQTJqQ0wmfouNFtul3Q9fN3DfXRHcaCtrkNA3Rl2nNoJ1KBExLWXrjUdLM+s4ZilIwGFR3FZgVO+MuBAMDs3owhpVE+V0cN13T1dfzCxuE+etBYUNFxrCUwA8+5ucITAOq2xtgZMTxmPJrEWHvJj+s7ziXH7EetVQTPzX/SaFDRcWxv9aSxldRWq98rR/mSOKqfaXLleere97qhDnlFirDH9iJWWyVTCvaPwlrJ7LcYIQ7rcL382UbDio4ki1gWlUb4HwmUMxmTiJCbtd8PhvrpEZNxRWeSBLbk0z/gt4a1F0pmL0IIcVgFa5xnMKjoYLIPbInr4ctAAKNbRwTkivt/bbifnjAXVHQyqcAWlK7gvwjr204z/agcMOpBFRcaDCo6nFRgGxx82fVyZqsvGF6ucMkln6DnDAYVHU46hgwrjfCfR/Vtv3Vc32BUAjnu9m//be4NSGhfXXQGuYQ271LXM7rwDABwXP9iSPKKV5AKbFBphN+pwur9ZjuOCCDs+M7HC10Gg4qMkApsEBG+a7pZf+rU1d8bDSoyQyqwIZ8e4aMQN35u9AVlRFBRPfz+p/cPzAUVWSIV2BCHMMwWTo7mCvt9zHhQkRlSgQ0oXcHLlKqXjT8qx88/MdRHbzUXVGSNVGADyMGQ8eKrNZDhB9UJM+QgxzSVRvm8OKy9yWhQIni5wn1DffQjo3FF5kgFnoYVI/zOqPrCGtNxWWvo5kPahXhNksDTQMBPXN/sAjERwQuKv1rXTzcbDSwySRJ4H5VG+SYdN95u+kF1SkVgxoDRoCKzJIH3QWmEB3XUONHoni8AECGX7/r5un76hdnAIqskgffSylG+SEXVs4wnLwBW8Yx5SLswQ1ah90JplC+Nw9rnrGyfE8HLz75luI/uMx9cZJUk8J5xS6Nc1lHjRFsDsIqhXXzeVnyRTZLAr6M0wguJUI6j+puNnrTaCRHBDWZfPdxPv7MygMgsOUr5Gkoj/LWovn2V4/mwlbytB9X9oDSvG8B2S4OIjJIKvAsrruDTWYffUHF9P8f1LCZvs/rmZ81dBUlesQ+kAu+kdAWvDOsvXOj5+a7m/q7d59I332+Uf2i4j95hdSCRWTO6ApdGuYsZRzqE02vbn/trrRpw/QA2tohejaDiEDknf3wCg4mMspbAK67k2cToYkr/9SpEYNIoaMYBIBzqMA4H4fD69i3v9vOznZgZfjA7ocRtYtbwC91nfquPHktsUJE51hLYYayqbXv2fHK82NYYe4yIXdf3yfFABMQAwIAXzEo0aV+ajgMvF9w01EffTHxwkSk2Xy/q+PlugNrkMn3qntbietQead73Bo8O9dFH0p2JyAJryUUAt/4jphBBaVVzgfcBmEx7OqLzyVnoBOk4gufPWjrUJ28WFGZIAifIy3UtWnca3ZX2PER22Exg2WMG0PoYXL/w4XWn07+mPBmRMe2xwJRVRNBxCC/oXjLcTxvSno7IHpsVeEYvXxERoHmHH3S/d91pkrzCDqnAFhARHC//MAhLh+WghrDIZgLPwHtgAljD9Qs3DPXTKQDCtGcksk0uoQ2h5nuM4OSKnx7qpw9AklckQC6hp41ap6v+8P2PF44F8GTaMxIzh+wDT0ez6mrygpXDfXQIJHlFwqQC7zUCqHmqKpfv+t53Pl44A3K5LFIiBzn2WPNSWatIuV5+NMh3HTTUT5+EJK9Ikc0KnIFFrOZ3EBHg+MEEmC4nJ3/JcD9tTnliQgCQbaRXo2YfFREhakwimD33DgBDw310M6SDSLSZGV+BiajZI0wAgRCHtXquuN8dIFztO8Gtw330TNpzFGJ3bDb0Nx9/0Q74xX80jzhOUSqC4+Ye94LgXta4WwMbv//xfAUd8uUjhM0KvMn189cg5UUeAsCMiAhPAFBMeMwFNl/2MXoYsu0jhBBCCCGEEEIIIYQQQgghhBBCCCGEEEIIIYQQQgghhBBCCCGEEEIIIYQQQgghhBBCCCGE6Dj/H+JNMpQvXWKMAAAAAElFTkSuQmCC;shadow=1;" vertex="1" parent="1">
          <mxGeometry x="620" y="310" width="70" height="70" as="geometry" />
        </mxCell>
        <mxCell id="gNoDSgEm0qHazXfeq4_1-119" value="BigQuery" style="sketch=0;html=1;verticalAlign=top;labelPosition=center;verticalLabelPosition=bottom;align=center;spacingTop=-6;fontSize=11;fontStyle=1;fontColor=#999999;shape=image;aspect=fixed;imageAspect=0;image=data:image/svg+xml,PHN2ZyB4bWxucz0iaHR0cDovL3d3dy53My5vcmcvMjAwMC9zdmciIHhtbG5zOnY9Imh0dHBzOi8vdmVjdGEuaW8vbmFubyIgd2lkdGg9IjIwLjAwMTA0NTIyNzA1MDc4IiBoZWlnaHQ9IjIwLjAwMTA0NTIyNzA1MDc4IiBmaWxsLXJ1bGU9ImV2ZW5vZGQiIHZpZXdCb3g9IjAgMCAyMC4wMDEwNDUyMjcwNTA3OCAyMC4wMDEwNDUyMjcwNTA3OCI+JiN4YTsJPHN0eWxlIHR5cGU9InRleHQvY3NzIj4mI3hhOwkuc3Qwe2ZpbGw6I2FlY2JmYTt9JiN4YTsJLnN0MXtmaWxsOiM2NjlkZjY7fSYjeGE7CS5zdDJ7ZmlsbDojNDI4NWY0O30mI3hhOwk8L3N0eWxlPiYjeGE7CTxwYXRoIGNsYXNzPSJzdDAiIGQ9Ik00LjczIDguODN2Mi42M2E0LjkxIDQuOTEgMCAwIDAgMS43MSAxLjc0VjguODN6Ii8+JiN4YTsJPHBhdGggY2xhc3M9InN0MSIgZD0iTTcuODkgNi40MXY3LjUzQTcuNjIgNy42MiAwIDAgMCA5IDE0YTggOCAwIDAgMCAxIDBWNi40MXoiLz4mI3hhOwk8cGF0aCBjbGFzcz0ic3QwIiBkPSJNMTEuNjQgOS44NnYzLjI5YTUgNSAwIDAgMCAxLjctMS44MlY5Ljg2eiIvPiYjeGE7CTxwYXRoIGNsYXNzPSJzdDIiIGQ9Ik0xNS43NCAxNC4zMmwtMS40MiAxLjQyYS40Mi40MiAwIDAgMCAwIC42bDMuNTQgMy41NGEuNDIuNDIgMCAwIDAgLjU5IDBsMS40My0xLjQzYS40Mi40MiAwIDAgMCAwLS41OWwtMy41NC0zLjU0YS40Mi40MiAwIDAgMC0uNiAwIi8+JiN4YTsJPHBhdGggY2xhc3M9InN0MSIgZD0iTTkgMGE5IDkgMCAxIDAgMCAxOEE5IDkgMCAxIDAgOSAwbTAgMTUuNjlhNi42OCA2LjY4IDAgMCAxIC4wMDctMTMuMzYgNi42OCA2LjY4IDAgMCAxIDQuNzI3IDExLjQwM0E2LjY4IDYuNjggMCAwIDEgOSAxNS42OSIvPiYjeGE7PC9zdmc+;" vertex="1" parent="1">
          <mxGeometry x="718.1" y="70" width="42" height="42" as="geometry" />
        </mxCell>
        <mxCell id="gNoDSgEm0qHazXfeq4_1-120" value="&lt;b&gt;&lt;font style=&quot;font-size: 24px;&quot;&gt;DW&lt;/font&gt;&lt;/b&gt;" style="whiteSpace=wrap;html=1;fillColor=#ffe6cc;strokeColor=#d79b00;" vertex="1" parent="1">
          <mxGeometry x="690" y="160" width="120" height="400" as="geometry" />
        </mxCell>
        <mxCell id="gNoDSgEm0qHazXfeq4_1-121" value="" style="group" vertex="1" connectable="0" parent="1">
          <mxGeometry x="718.1" y="181" width="60.00000000000003" height="60" as="geometry" />
        </mxCell>
        <mxCell id="gNoDSgEm0qHazXfeq4_1-122" value="" style="whiteSpace=wrap;html=1;fillColor=#E1D5E7;" vertex="1" parent="gNoDSgEm0qHazXfeq4_1-121">
          <mxGeometry width="60" height="60" as="geometry" />
        </mxCell>
        <mxCell id="gNoDSgEm0qHazXfeq4_1-123" value="" style="group" vertex="1" connectable="0" parent="gNoDSgEm0qHazXfeq4_1-121">
          <mxGeometry x="9.200000000000017" y="10" width="41.60000000000002" height="40" as="geometry" />
        </mxCell>
        <mxCell id="gNoDSgEm0qHazXfeq4_1-124" value="" style="shape=image;verticalLabelPosition=bottom;labelBackgroundColor=default;verticalAlign=top;aspect=fixed;imageAspect=0;image=data:image/png,iVBORw0KGgoAAAANSUhEUgAAADYAAAAyCAYAAAAX1CjLAAABV2lDQ1BJQ0MgUHJvZmlsZQAAKJFtkE9LAlEUxY+l2R+LiJZGrsLFJKEGrQIzsEhonEwqWjSO0yiM0+s5EVIfon20a9O+IFy1a9MuKILW9QEECUqm+5xKrR5czo/DeZfLAXr6VcZML4CyZXMltRDa2NwK+V/RhwH4EERY1SosIctpiuBbu1/jAR6h99NiF3JHmZcLe/Jy/iqTG1mt/813vcGCXtFIP2giGuM24JGI5UObCT4mHud0FPGJYMPlc8F5l69bmaySJL4jHtWKaoH4mVjKd/hGB5fNA+3rBnF9QLfW10jHaIJII4UQlrAIhTSOFern/3y8lU9iDwxVcJRgoAibfiXIYTChEy/DgoYIJOIoZmhiouff/bW96iMwlyHYbnvZJ6AmA0OnbS88BQzvALezTOXqT6uehreyG4u6HOCA781x6hOAvwY0ueO8nzlOkzrspZ03+5+MAWDdKoYYuwAAAFZlWElmTU0AKgAAAAgAAYdpAAQAAAABAAAAGgAAAAAAA5KGAAcAAAASAAAARKACAAQAAAABAAAANqADAAQAAAABAAAAMgAAAABBU0NJSQAAAFNjcmVlbnNob3SLWX11AAAB1GlUWHRYTUw6Y29tLmFkb2JlLnhtcAAAAAAAPHg6eG1wbWV0YSB4bWxuczp4PSJhZG9iZTpuczptZXRhLyIgeDp4bXB0az0iWE1QIENvcmUgNi4wLjAiPgogICA8cmRmOlJERiB4bWxuczpyZGY9Imh0dHA6Ly93d3cudzMub3JnLzE5OTkvMDIvMjItcmRmLXN5bnRheC1ucyMiPgogICAgICA8cmRmOkRlc2NyaXB0aW9uIHJkZjphYm91dD0iIgogICAgICAgICAgICB4bWxuczpleGlmPSJodHRwOi8vbnMuYWRvYmUuY29tL2V4aWYvMS4wLyI+CiAgICAgICAgIDxleGlmOlBpeGVsWURpbWVuc2lvbj41MDwvZXhpZjpQaXhlbFlEaW1lbnNpb24+CiAgICAgICAgIDxleGlmOlBpeGVsWERpbWVuc2lvbj41NDwvZXhpZjpQaXhlbFhEaW1lbnNpb24+CiAgICAgICAgIDxleGlmOlVzZXJDb21tZW50PlNjcmVlbnNob3Q8L2V4aWY6VXNlckNvbW1lbnQ+CiAgICAgIDwvcmRmOkRlc2NyaXB0aW9uPgogICA8L3JkZjpSREY+CjwveDp4bXBtZXRhPgoow1cUAAADiUlEQVRoBe2a/04iMRDHi6DyBGjirxcgEKLv4DMb4xtooigPgEiC8jfG33d+yDXXdmd1Riu33t0kzbbdbzvz2cLsYKz9eDWXGFMvLy9OuJUo/+ywVqu5paUlxzW1RjrBGCja8/OzdLsyc/V6fR6Lv4aBiWCcFFBPT0+htpJ96bQIVAS7vr52V1dX81ZJml9BbW5uOtrGxkYhTBFsMpm409NTd3JyUlhQpYnd3V3XaDRsYGdnZ+7g4KBKHIVYgOLEJBNPTBIyx+fZtzLNV8zznfdNu78ZjPQqZSGtw4/oSGTW148ZDKhFg/EwrO9UE9j6+vr8iyploY+chHbNeDx2vmnXmMF6vZ4jGy3SyM58HIHTmhms2+26/f197f5ZdBQKvFctZgIr29iXYFxDI9H4Fs5b9eFabT8bGE81rS1JMrxrgAsNMIs+XKvtZwMD6uHhIfK7srJSgEIAmEUfbaocZAGjthyNRoXvAVXB1tbWvIXxWPXhWm0/G1i/33fHx8eR3729PcepARcaYBZ9uFbbzwp2eHgY+ZWgEHgwrT7aVDnIAubLrOXl5cgtySNNHAis+mhT5eA/2FsPioqftJ6eGHPSL1yr/i3fZfeynNja2prrdDoFH8xxLzWrPl2vGWcBozjG/NU7BiCdC3XpvTK9389yzQJGQDStWfXafUNdFjCqCF9NhJv7rJj+frPqwz21/SxgQFFOPT4+Rn5JJrzLUjCrPtpUOcgCxgkAdXd3V3ALVJotrfrCpoqJLGA3NzduOBy6y8vLyOX29rbb2dlxXEOz6sO12n4WMEqk8/NzsVZsNpsFMKteCxPqsoBxAhcXF+7o6Cjc2wHFiaVm1afrNeMsYNR+VBkkitCkH5nct+rDPbX9rGCrq6uR3/fAtPpoU+UgCxiZr+zE0lRPXFa9kiWSZQFrtVqltSL3UrPq0/WacRYwSiQK3rT2A0Aqtax6DUiqyQYmAaTO/BitRe/XWa4mMP5kdn9/725vby0+Pq3FJ74tZgKjFMLJbDaz+Pi0Fp/4tpgJjKdGsbvoE8Pnl57YdDp1g8HA8uCyaPGJb4uZTsyXQtR6izSg8G0xExgOrE/OEkxOrQjmf0NRxFbZ+J0nVTbE/G+BUX1TqVf9xIiRWCUTT4xSqN1uS/pKzRGjVIsSpAjmyx1/rRRNEExZLYqk9vpvBoV/6wvWftuu/AH9tji/A/9rwX4CoNKbBezrnxIAAAAASUVORK5CYII=;" vertex="1" parent="gNoDSgEm0qHazXfeq4_1-123">
          <mxGeometry width="21.6" height="20" as="geometry" />
        </mxCell>
        <mxCell id="gNoDSgEm0qHazXfeq4_1-125" value="" style="shape=image;verticalLabelPosition=bottom;labelBackgroundColor=default;verticalAlign=top;aspect=fixed;imageAspect=0;image=data:image/png,iVBORw0KGgoAAAANSUhEUgAAADYAAAAyCAYAAAAX1CjLAAABV2lDQ1BJQ0MgUHJvZmlsZQAAKJFtkE9LAlEUxY+l2R+LiJZGrsLFJKEGrQIzsEhonEwqWjSO0yiM0+s5EVIfon20a9O+IFy1a9MuKILW9QEECUqm+5xKrR5czo/DeZfLAXr6VcZML4CyZXMltRDa2NwK+V/RhwH4EERY1SosIctpiuBbu1/jAR6h99NiF3JHmZcLe/Jy/iqTG1mt/813vcGCXtFIP2giGuM24JGI5UObCT4mHud0FPGJYMPlc8F5l69bmaySJL4jHtWKaoH4mVjKd/hGB5fNA+3rBnF9QLfW10jHaIJII4UQlrAIhTSOFern/3y8lU9iDwxVcJRgoAibfiXIYTChEy/DgoYIJOIoZmhiouff/bW96iMwlyHYbnvZJ6AmA0OnbS88BQzvALezTOXqT6uehreyG4u6HOCA781x6hOAvwY0ueO8nzlOkzrspZ03+5+MAWDdKoYYuwAAAFZlWElmTU0AKgAAAAgAAYdpAAQAAAABAAAAGgAAAAAAA5KGAAcAAAASAAAARKACAAQAAAABAAAANqADAAQAAAABAAAAMgAAAABBU0NJSQAAAFNjcmVlbnNob3SLWX11AAAB1GlUWHRYTUw6Y29tLmFkb2JlLnhtcAAAAAAAPHg6eG1wbWV0YSB4bWxuczp4PSJhZG9iZTpuczptZXRhLyIgeDp4bXB0az0iWE1QIENvcmUgNi4wLjAiPgogICA8cmRmOlJERiB4bWxuczpyZGY9Imh0dHA6Ly93d3cudzMub3JnLzE5OTkvMDIvMjItcmRmLXN5bnRheC1ucyMiPgogICAgICA8cmRmOkRlc2NyaXB0aW9uIHJkZjphYm91dD0iIgogICAgICAgICAgICB4bWxuczpleGlmPSJodHRwOi8vbnMuYWRvYmUuY29tL2V4aWYvMS4wLyI+CiAgICAgICAgIDxleGlmOlBpeGVsWURpbWVuc2lvbj41MDwvZXhpZjpQaXhlbFlEaW1lbnNpb24+CiAgICAgICAgIDxleGlmOlBpeGVsWERpbWVuc2lvbj41NDwvZXhpZjpQaXhlbFhEaW1lbnNpb24+CiAgICAgICAgIDxleGlmOlVzZXJDb21tZW50PlNjcmVlbnNob3Q8L2V4aWY6VXNlckNvbW1lbnQ+CiAgICAgIDwvcmRmOkRlc2NyaXB0aW9uPgogICA8L3JkZjpSREY+CjwveDp4bXBtZXRhPgoow1cUAAADiUlEQVRoBe2a/04iMRDHi6DyBGjirxcgEKLv4DMb4xtooigPgEiC8jfG33d+yDXXdmd1Riu33t0kzbbdbzvz2cLsYKz9eDWXGFMvLy9OuJUo/+ywVqu5paUlxzW1RjrBGCja8/OzdLsyc/V6fR6Lv4aBiWCcFFBPT0+htpJ96bQIVAS7vr52V1dX81ZJml9BbW5uOtrGxkYhTBFsMpm409NTd3JyUlhQpYnd3V3XaDRsYGdnZ+7g4KBKHIVYgOLEJBNPTBIyx+fZtzLNV8zznfdNu78ZjPQqZSGtw4/oSGTW148ZDKhFg/EwrO9UE9j6+vr8iyploY+chHbNeDx2vmnXmMF6vZ4jGy3SyM58HIHTmhms2+26/f197f5ZdBQKvFctZgIr29iXYFxDI9H4Fs5b9eFabT8bGE81rS1JMrxrgAsNMIs+XKvtZwMD6uHhIfK7srJSgEIAmEUfbaocZAGjthyNRoXvAVXB1tbWvIXxWPXhWm0/G1i/33fHx8eR3729PcepARcaYBZ9uFbbzwp2eHgY+ZWgEHgwrT7aVDnIAubLrOXl5cgtySNNHAis+mhT5eA/2FsPioqftJ6eGHPSL1yr/i3fZfeynNja2prrdDoFH8xxLzWrPl2vGWcBozjG/NU7BiCdC3XpvTK9389yzQJGQDStWfXafUNdFjCqCF9NhJv7rJj+frPqwz21/SxgQFFOPT4+Rn5JJrzLUjCrPtpUOcgCxgkAdXd3V3ALVJotrfrCpoqJLGA3NzduOBy6y8vLyOX29rbb2dlxXEOz6sO12n4WMEqk8/NzsVZsNpsFMKteCxPqsoBxAhcXF+7o6Cjc2wHFiaVm1afrNeMsYNR+VBkkitCkH5nct+rDPbX9rGCrq6uR3/fAtPpoU+UgCxiZr+zE0lRPXFa9kiWSZQFrtVqltSL3UrPq0/WacRYwSiQK3rT2A0Aqtax6DUiqyQYmAaTO/BitRe/XWa4mMP5kdn9/725vby0+Pq3FJ74tZgKjFMLJbDaz+Pi0Fp/4tpgJjKdGsbvoE8Pnl57YdDp1g8HA8uCyaPGJb4uZTsyXQtR6izSg8G0xExgOrE/OEkxOrQjmf0NRxFbZ+J0nVTbE/G+BUX1TqVf9xIiRWCUTT4xSqN1uS/pKzRGjVIsSpAjmyx1/rRRNEExZLYqk9vpvBoV/6wvWftuu/AH9tji/A/9rwX4CoNKbBezrnxIAAAAASUVORK5CYII=;" vertex="1" parent="gNoDSgEm0qHazXfeq4_1-123">
          <mxGeometry x="10" y="10" width="21.6" height="20" as="geometry" />
        </mxCell>
        <mxCell id="gNoDSgEm0qHazXfeq4_1-126" value="" style="shape=image;verticalLabelPosition=bottom;labelBackgroundColor=default;verticalAlign=top;aspect=fixed;imageAspect=0;image=data:image/png,iVBORw0KGgoAAAANSUhEUgAAADYAAAAyCAYAAAAX1CjLAAABV2lDQ1BJQ0MgUHJvZmlsZQAAKJFtkE9LAlEUxY+l2R+LiJZGrsLFJKEGrQIzsEhonEwqWjSO0yiM0+s5EVIfon20a9O+IFy1a9MuKILW9QEECUqm+5xKrR5czo/DeZfLAXr6VcZML4CyZXMltRDa2NwK+V/RhwH4EERY1SosIctpiuBbu1/jAR6h99NiF3JHmZcLe/Jy/iqTG1mt/813vcGCXtFIP2giGuM24JGI5UObCT4mHud0FPGJYMPlc8F5l69bmaySJL4jHtWKaoH4mVjKd/hGB5fNA+3rBnF9QLfW10jHaIJII4UQlrAIhTSOFern/3y8lU9iDwxVcJRgoAibfiXIYTChEy/DgoYIJOIoZmhiouff/bW96iMwlyHYbnvZJ6AmA0OnbS88BQzvALezTOXqT6uehreyG4u6HOCA781x6hOAvwY0ueO8nzlOkzrspZ03+5+MAWDdKoYYuwAAAFZlWElmTU0AKgAAAAgAAYdpAAQAAAABAAAAGgAAAAAAA5KGAAcAAAASAAAARKACAAQAAAABAAAANqADAAQAAAABAAAAMgAAAABBU0NJSQAAAFNjcmVlbnNob3SLWX11AAAB1GlUWHRYTUw6Y29tLmFkb2JlLnhtcAAAAAAAPHg6eG1wbWV0YSB4bWxuczp4PSJhZG9iZTpuczptZXRhLyIgeDp4bXB0az0iWE1QIENvcmUgNi4wLjAiPgogICA8cmRmOlJERiB4bWxuczpyZGY9Imh0dHA6Ly93d3cudzMub3JnLzE5OTkvMDIvMjItcmRmLXN5bnRheC1ucyMiPgogICAgICA8cmRmOkRlc2NyaXB0aW9uIHJkZjphYm91dD0iIgogICAgICAgICAgICB4bWxuczpleGlmPSJodHRwOi8vbnMuYWRvYmUuY29tL2V4aWYvMS4wLyI+CiAgICAgICAgIDxleGlmOlBpeGVsWURpbWVuc2lvbj41MDwvZXhpZjpQaXhlbFlEaW1lbnNpb24+CiAgICAgICAgIDxleGlmOlBpeGVsWERpbWVuc2lvbj41NDwvZXhpZjpQaXhlbFhEaW1lbnNpb24+CiAgICAgICAgIDxleGlmOlVzZXJDb21tZW50PlNjcmVlbnNob3Q8L2V4aWY6VXNlckNvbW1lbnQ+CiAgICAgIDwvcmRmOkRlc2NyaXB0aW9uPgogICA8L3JkZjpSREY+CjwveDp4bXBtZXRhPgoow1cUAAADiUlEQVRoBe2a/04iMRDHi6DyBGjirxcgEKLv4DMb4xtooigPgEiC8jfG33d+yDXXdmd1Riu33t0kzbbdbzvz2cLsYKz9eDWXGFMvLy9OuJUo/+ywVqu5paUlxzW1RjrBGCja8/OzdLsyc/V6fR6Lv4aBiWCcFFBPT0+htpJ96bQIVAS7vr52V1dX81ZJml9BbW5uOtrGxkYhTBFsMpm409NTd3JyUlhQpYnd3V3XaDRsYGdnZ+7g4KBKHIVYgOLEJBNPTBIyx+fZtzLNV8zznfdNu78ZjPQqZSGtw4/oSGTW148ZDKhFg/EwrO9UE9j6+vr8iyploY+chHbNeDx2vmnXmMF6vZ4jGy3SyM58HIHTmhms2+26/f197f5ZdBQKvFctZgIr29iXYFxDI9H4Fs5b9eFabT8bGE81rS1JMrxrgAsNMIs+XKvtZwMD6uHhIfK7srJSgEIAmEUfbaocZAGjthyNRoXvAVXB1tbWvIXxWPXhWm0/G1i/33fHx8eR3729PcepARcaYBZ9uFbbzwp2eHgY+ZWgEHgwrT7aVDnIAubLrOXl5cgtySNNHAis+mhT5eA/2FsPioqftJ6eGHPSL1yr/i3fZfeynNja2prrdDoFH8xxLzWrPl2vGWcBozjG/NU7BiCdC3XpvTK9389yzQJGQDStWfXafUNdFjCqCF9NhJv7rJj+frPqwz21/SxgQFFOPT4+Rn5JJrzLUjCrPtpUOcgCxgkAdXd3V3ALVJotrfrCpoqJLGA3NzduOBy6y8vLyOX29rbb2dlxXEOz6sO12n4WMEqk8/NzsVZsNpsFMKteCxPqsoBxAhcXF+7o6Cjc2wHFiaVm1afrNeMsYNR+VBkkitCkH5nct+rDPbX9rGCrq6uR3/fAtPpoU+UgCxiZr+zE0lRPXFa9kiWSZQFrtVqltSL3UrPq0/WacRYwSiQK3rT2A0Aqtax6DUiqyQYmAaTO/BitRe/XWa4mMP5kdn9/725vby0+Pq3FJ74tZgKjFMLJbDaz+Pi0Fp/4tpgJjKdGsbvoE8Pnl57YdDp1g8HA8uCyaPGJb4uZTsyXQtR6izSg8G0xExgOrE/OEkxOrQjmf0NRxFbZ+J0nVTbE/G+BUX1TqVf9xIiRWCUTT4xSqN1uS/pKzRGjVIsSpAjmyx1/rRRNEExZLYqk9vpvBoV/6wvWftuu/AH9tji/A/9rwX4CoNKbBezrnxIAAAAASUVORK5CYII=;" vertex="1" parent="gNoDSgEm0qHazXfeq4_1-123">
          <mxGeometry x="20" y="20" width="21.6" height="20" as="geometry" />
        </mxCell>
        <mxCell id="gNoDSgEm0qHazXfeq4_1-127" value="" style="group" vertex="1" connectable="0" parent="1">
          <mxGeometry x="718.1" y="380" width="60.00000000000003" height="60" as="geometry" />
        </mxCell>
        <mxCell id="gNoDSgEm0qHazXfeq4_1-128" value="" style="whiteSpace=wrap;html=1;fillColor=#E1D5E7;" vertex="1" parent="gNoDSgEm0qHazXfeq4_1-127">
          <mxGeometry width="60" height="60" as="geometry" />
        </mxCell>
        <mxCell id="gNoDSgEm0qHazXfeq4_1-129" value="" style="group" vertex="1" connectable="0" parent="gNoDSgEm0qHazXfeq4_1-127">
          <mxGeometry x="9.200000000000017" y="10" width="41.60000000000002" height="40" as="geometry" />
        </mxCell>
        <mxCell id="gNoDSgEm0qHazXfeq4_1-130" value="" style="shape=image;verticalLabelPosition=bottom;labelBackgroundColor=default;verticalAlign=top;aspect=fixed;imageAspect=0;image=data:image/png,iVBORw0KGgoAAAANSUhEUgAAADYAAAAyCAYAAAAX1CjLAAABV2lDQ1BJQ0MgUHJvZmlsZQAAKJFtkE9LAlEUxY+l2R+LiJZGrsLFJKEGrQIzsEhonEwqWjSO0yiM0+s5EVIfon20a9O+IFy1a9MuKILW9QEECUqm+5xKrR5czo/DeZfLAXr6VcZML4CyZXMltRDa2NwK+V/RhwH4EERY1SosIctpiuBbu1/jAR6h99NiF3JHmZcLe/Jy/iqTG1mt/813vcGCXtFIP2giGuM24JGI5UObCT4mHud0FPGJYMPlc8F5l69bmaySJL4jHtWKaoH4mVjKd/hGB5fNA+3rBnF9QLfW10jHaIJII4UQlrAIhTSOFern/3y8lU9iDwxVcJRgoAibfiXIYTChEy/DgoYIJOIoZmhiouff/bW96iMwlyHYbnvZJ6AmA0OnbS88BQzvALezTOXqT6uehreyG4u6HOCA781x6hOAvwY0ueO8nzlOkzrspZ03+5+MAWDdKoYYuwAAAFZlWElmTU0AKgAAAAgAAYdpAAQAAAABAAAAGgAAAAAAA5KGAAcAAAASAAAARKACAAQAAAABAAAANqADAAQAAAABAAAAMgAAAABBU0NJSQAAAFNjcmVlbnNob3SLWX11AAAB1GlUWHRYTUw6Y29tLmFkb2JlLnhtcAAAAAAAPHg6eG1wbWV0YSB4bWxuczp4PSJhZG9iZTpuczptZXRhLyIgeDp4bXB0az0iWE1QIENvcmUgNi4wLjAiPgogICA8cmRmOlJERiB4bWxuczpyZGY9Imh0dHA6Ly93d3cudzMub3JnLzE5OTkvMDIvMjItcmRmLXN5bnRheC1ucyMiPgogICAgICA8cmRmOkRlc2NyaXB0aW9uIHJkZjphYm91dD0iIgogICAgICAgICAgICB4bWxuczpleGlmPSJodHRwOi8vbnMuYWRvYmUuY29tL2V4aWYvMS4wLyI+CiAgICAgICAgIDxleGlmOlBpeGVsWURpbWVuc2lvbj41MDwvZXhpZjpQaXhlbFlEaW1lbnNpb24+CiAgICAgICAgIDxleGlmOlBpeGVsWERpbWVuc2lvbj41NDwvZXhpZjpQaXhlbFhEaW1lbnNpb24+CiAgICAgICAgIDxleGlmOlVzZXJDb21tZW50PlNjcmVlbnNob3Q8L2V4aWY6VXNlckNvbW1lbnQ+CiAgICAgIDwvcmRmOkRlc2NyaXB0aW9uPgogICA8L3JkZjpSREY+CjwveDp4bXBtZXRhPgoow1cUAAADiUlEQVRoBe2a/04iMRDHi6DyBGjirxcgEKLv4DMb4xtooigPgEiC8jfG33d+yDXXdmd1Riu33t0kzbbdbzvz2cLsYKz9eDWXGFMvLy9OuJUo/+ywVqu5paUlxzW1RjrBGCja8/OzdLsyc/V6fR6Lv4aBiWCcFFBPT0+htpJ96bQIVAS7vr52V1dX81ZJml9BbW5uOtrGxkYhTBFsMpm409NTd3JyUlhQpYnd3V3XaDRsYGdnZ+7g4KBKHIVYgOLEJBNPTBIyx+fZtzLNV8zznfdNu78ZjPQqZSGtw4/oSGTW148ZDKhFg/EwrO9UE9j6+vr8iyploY+chHbNeDx2vmnXmMF6vZ4jGy3SyM58HIHTmhms2+26/f197f5ZdBQKvFctZgIr29iXYFxDI9H4Fs5b9eFabT8bGE81rS1JMrxrgAsNMIs+XKvtZwMD6uHhIfK7srJSgEIAmEUfbaocZAGjthyNRoXvAVXB1tbWvIXxWPXhWm0/G1i/33fHx8eR3729PcepARcaYBZ9uFbbzwp2eHgY+ZWgEHgwrT7aVDnIAubLrOXl5cgtySNNHAis+mhT5eA/2FsPioqftJ6eGHPSL1yr/i3fZfeynNja2prrdDoFH8xxLzWrPl2vGWcBozjG/NU7BiCdC3XpvTK9389yzQJGQDStWfXafUNdFjCqCF9NhJv7rJj+frPqwz21/SxgQFFOPT4+Rn5JJrzLUjCrPtpUOcgCxgkAdXd3V3ALVJotrfrCpoqJLGA3NzduOBy6y8vLyOX29rbb2dlxXEOz6sO12n4WMEqk8/NzsVZsNpsFMKteCxPqsoBxAhcXF+7o6Cjc2wHFiaVm1afrNeMsYNR+VBkkitCkH5nct+rDPbX9rGCrq6uR3/fAtPpoU+UgCxiZr+zE0lRPXFa9kiWSZQFrtVqltSL3UrPq0/WacRYwSiQK3rT2A0Aqtax6DUiqyQYmAaTO/BitRe/XWa4mMP5kdn9/725vby0+Pq3FJ74tZgKjFMLJbDaz+Pi0Fp/4tpgJjKdGsbvoE8Pnl57YdDp1g8HA8uCyaPGJb4uZTsyXQtR6izSg8G0xExgOrE/OEkxOrQjmf0NRxFbZ+J0nVTbE/G+BUX1TqVf9xIiRWCUTT4xSqN1uS/pKzRGjVIsSpAjmyx1/rRRNEExZLYqk9vpvBoV/6wvWftuu/AH9tji/A/9rwX4CoNKbBezrnxIAAAAASUVORK5CYII=;" vertex="1" parent="gNoDSgEm0qHazXfeq4_1-129">
          <mxGeometry width="21.6" height="20" as="geometry" />
        </mxCell>
        <mxCell id="gNoDSgEm0qHazXfeq4_1-131" value="" style="shape=image;verticalLabelPosition=bottom;labelBackgroundColor=default;verticalAlign=top;aspect=fixed;imageAspect=0;image=data:image/png,iVBORw0KGgoAAAANSUhEUgAAADYAAAAyCAYAAAAX1CjLAAABV2lDQ1BJQ0MgUHJvZmlsZQAAKJFtkE9LAlEUxY+l2R+LiJZGrsLFJKEGrQIzsEhonEwqWjSO0yiM0+s5EVIfon20a9O+IFy1a9MuKILW9QEECUqm+5xKrR5czo/DeZfLAXr6VcZML4CyZXMltRDa2NwK+V/RhwH4EERY1SosIctpiuBbu1/jAR6h99NiF3JHmZcLe/Jy/iqTG1mt/813vcGCXtFIP2giGuM24JGI5UObCT4mHud0FPGJYMPlc8F5l69bmaySJL4jHtWKaoH4mVjKd/hGB5fNA+3rBnF9QLfW10jHaIJII4UQlrAIhTSOFern/3y8lU9iDwxVcJRgoAibfiXIYTChEy/DgoYIJOIoZmhiouff/bW96iMwlyHYbnvZJ6AmA0OnbS88BQzvALezTOXqT6uehreyG4u6HOCA781x6hOAvwY0ueO8nzlOkzrspZ03+5+MAWDdKoYYuwAAAFZlWElmTU0AKgAAAAgAAYdpAAQAAAABAAAAGgAAAAAAA5KGAAcAAAASAAAARKACAAQAAAABAAAANqADAAQAAAABAAAAMgAAAABBU0NJSQAAAFNjcmVlbnNob3SLWX11AAAB1GlUWHRYTUw6Y29tLmFkb2JlLnhtcAAAAAAAPHg6eG1wbWV0YSB4bWxuczp4PSJhZG9iZTpuczptZXRhLyIgeDp4bXB0az0iWE1QIENvcmUgNi4wLjAiPgogICA8cmRmOlJERiB4bWxuczpyZGY9Imh0dHA6Ly93d3cudzMub3JnLzE5OTkvMDIvMjItcmRmLXN5bnRheC1ucyMiPgogICAgICA8cmRmOkRlc2NyaXB0aW9uIHJkZjphYm91dD0iIgogICAgICAgICAgICB4bWxuczpleGlmPSJodHRwOi8vbnMuYWRvYmUuY29tL2V4aWYvMS4wLyI+CiAgICAgICAgIDxleGlmOlBpeGVsWURpbWVuc2lvbj41MDwvZXhpZjpQaXhlbFlEaW1lbnNpb24+CiAgICAgICAgIDxleGlmOlBpeGVsWERpbWVuc2lvbj41NDwvZXhpZjpQaXhlbFhEaW1lbnNpb24+CiAgICAgICAgIDxleGlmOlVzZXJDb21tZW50PlNjcmVlbnNob3Q8L2V4aWY6VXNlckNvbW1lbnQ+CiAgICAgIDwvcmRmOkRlc2NyaXB0aW9uPgogICA8L3JkZjpSREY+CjwveDp4bXBtZXRhPgoow1cUAAADiUlEQVRoBe2a/04iMRDHi6DyBGjirxcgEKLv4DMb4xtooigPgEiC8jfG33d+yDXXdmd1Riu33t0kzbbdbzvz2cLsYKz9eDWXGFMvLy9OuJUo/+ywVqu5paUlxzW1RjrBGCja8/OzdLsyc/V6fR6Lv4aBiWCcFFBPT0+htpJ96bQIVAS7vr52V1dX81ZJml9BbW5uOtrGxkYhTBFsMpm409NTd3JyUlhQpYnd3V3XaDRsYGdnZ+7g4KBKHIVYgOLEJBNPTBIyx+fZtzLNV8zznfdNu78ZjPQqZSGtw4/oSGTW148ZDKhFg/EwrO9UE9j6+vr8iyploY+chHbNeDx2vmnXmMF6vZ4jGy3SyM58HIHTmhms2+26/f197f5ZdBQKvFctZgIr29iXYFxDI9H4Fs5b9eFabT8bGE81rS1JMrxrgAsNMIs+XKvtZwMD6uHhIfK7srJSgEIAmEUfbaocZAGjthyNRoXvAVXB1tbWvIXxWPXhWm0/G1i/33fHx8eR3729PcepARcaYBZ9uFbbzwp2eHgY+ZWgEHgwrT7aVDnIAubLrOXl5cgtySNNHAis+mhT5eA/2FsPioqftJ6eGHPSL1yr/i3fZfeynNja2prrdDoFH8xxLzWrPl2vGWcBozjG/NU7BiCdC3XpvTK9389yzQJGQDStWfXafUNdFjCqCF9NhJv7rJj+frPqwz21/SxgQFFOPT4+Rn5JJrzLUjCrPtpUOcgCxgkAdXd3V3ALVJotrfrCpoqJLGA3NzduOBy6y8vLyOX29rbb2dlxXEOz6sO12n4WMEqk8/NzsVZsNpsFMKteCxPqsoBxAhcXF+7o6Cjc2wHFiaVm1afrNeMsYNR+VBkkitCkH5nct+rDPbX9rGCrq6uR3/fAtPpoU+UgCxiZr+zE0lRPXFa9kiWSZQFrtVqltSL3UrPq0/WacRYwSiQK3rT2A0Aqtax6DUiqyQYmAaTO/BitRe/XWa4mMP5kdn9/725vby0+Pq3FJ74tZgKjFMLJbDaz+Pi0Fp/4tpgJjKdGsbvoE8Pnl57YdDp1g8HA8uCyaPGJb4uZTsyXQtR6izSg8G0xExgOrE/OEkxOrQjmf0NRxFbZ+J0nVTbE/G+BUX1TqVf9xIiRWCUTT4xSqN1uS/pKzRGjVIsSpAjmyx1/rRRNEExZLYqk9vpvBoV/6wvWftuu/AH9tji/A/9rwX4CoNKbBezrnxIAAAAASUVORK5CYII=;" vertex="1" parent="gNoDSgEm0qHazXfeq4_1-129">
          <mxGeometry x="10" y="10" width="21.6" height="20" as="geometry" />
        </mxCell>
        <mxCell id="gNoDSgEm0qHazXfeq4_1-132" value="" style="shape=image;verticalLabelPosition=bottom;labelBackgroundColor=default;verticalAlign=top;aspect=fixed;imageAspect=0;image=data:image/png,iVBORw0KGgoAAAANSUhEUgAAADYAAAAyCAYAAAAX1CjLAAABV2lDQ1BJQ0MgUHJvZmlsZQAAKJFtkE9LAlEUxY+l2R+LiJZGrsLFJKEGrQIzsEhonEwqWjSO0yiM0+s5EVIfon20a9O+IFy1a9MuKILW9QEECUqm+5xKrR5czo/DeZfLAXr6VcZML4CyZXMltRDa2NwK+V/RhwH4EERY1SosIctpiuBbu1/jAR6h99NiF3JHmZcLe/Jy/iqTG1mt/813vcGCXtFIP2giGuM24JGI5UObCT4mHud0FPGJYMPlc8F5l69bmaySJL4jHtWKaoH4mVjKd/hGB5fNA+3rBnF9QLfW10jHaIJII4UQlrAIhTSOFern/3y8lU9iDwxVcJRgoAibfiXIYTChEy/DgoYIJOIoZmhiouff/bW96iMwlyHYbnvZJ6AmA0OnbS88BQzvALezTOXqT6uehreyG4u6HOCA781x6hOAvwY0ueO8nzlOkzrspZ03+5+MAWDdKoYYuwAAAFZlWElmTU0AKgAAAAgAAYdpAAQAAAABAAAAGgAAAAAAA5KGAAcAAAASAAAARKACAAQAAAABAAAANqADAAQAAAABAAAAMgAAAABBU0NJSQAAAFNjcmVlbnNob3SLWX11AAAB1GlUWHRYTUw6Y29tLmFkb2JlLnhtcAAAAAAAPHg6eG1wbWV0YSB4bWxuczp4PSJhZG9iZTpuczptZXRhLyIgeDp4bXB0az0iWE1QIENvcmUgNi4wLjAiPgogICA8cmRmOlJERiB4bWxuczpyZGY9Imh0dHA6Ly93d3cudzMub3JnLzE5OTkvMDIvMjItcmRmLXN5bnRheC1ucyMiPgogICAgICA8cmRmOkRlc2NyaXB0aW9uIHJkZjphYm91dD0iIgogICAgICAgICAgICB4bWxuczpleGlmPSJodHRwOi8vbnMuYWRvYmUuY29tL2V4aWYvMS4wLyI+CiAgICAgICAgIDxleGlmOlBpeGVsWURpbWVuc2lvbj41MDwvZXhpZjpQaXhlbFlEaW1lbnNpb24+CiAgICAgICAgIDxleGlmOlBpeGVsWERpbWVuc2lvbj41NDwvZXhpZjpQaXhlbFhEaW1lbnNpb24+CiAgICAgICAgIDxleGlmOlVzZXJDb21tZW50PlNjcmVlbnNob3Q8L2V4aWY6VXNlckNvbW1lbnQ+CiAgICAgIDwvcmRmOkRlc2NyaXB0aW9uPgogICA8L3JkZjpSREY+CjwveDp4bXBtZXRhPgoow1cUAAADiUlEQVRoBe2a/04iMRDHi6DyBGjirxcgEKLv4DMb4xtooigPgEiC8jfG33d+yDXXdmd1Riu33t0kzbbdbzvz2cLsYKz9eDWXGFMvLy9OuJUo/+ywVqu5paUlxzW1RjrBGCja8/OzdLsyc/V6fR6Lv4aBiWCcFFBPT0+htpJ96bQIVAS7vr52V1dX81ZJml9BbW5uOtrGxkYhTBFsMpm409NTd3JyUlhQpYnd3V3XaDRsYGdnZ+7g4KBKHIVYgOLEJBNPTBIyx+fZtzLNV8zznfdNu78ZjPQqZSGtw4/oSGTW148ZDKhFg/EwrO9UE9j6+vr8iyploY+chHbNeDx2vmnXmMF6vZ4jGy3SyM58HIHTmhms2+26/f197f5ZdBQKvFctZgIr29iXYFxDI9H4Fs5b9eFabT8bGE81rS1JMrxrgAsNMIs+XKvtZwMD6uHhIfK7srJSgEIAmEUfbaocZAGjthyNRoXvAVXB1tbWvIXxWPXhWm0/G1i/33fHx8eR3729PcepARcaYBZ9uFbbzwp2eHgY+ZWgEHgwrT7aVDnIAubLrOXl5cgtySNNHAis+mhT5eA/2FsPioqftJ6eGHPSL1yr/i3fZfeynNja2prrdDoFH8xxLzWrPl2vGWcBozjG/NU7BiCdC3XpvTK9389yzQJGQDStWfXafUNdFjCqCF9NhJv7rJj+frPqwz21/SxgQFFOPT4+Rn5JJrzLUjCrPtpUOcgCxgkAdXd3V3ALVJotrfrCpoqJLGA3NzduOBy6y8vLyOX29rbb2dlxXEOz6sO12n4WMEqk8/NzsVZsNpsFMKteCxPqsoBxAhcXF+7o6Cjc2wHFiaVm1afrNeMsYNR+VBkkitCkH5nct+rDPbX9rGCrq6uR3/fAtPpoU+UgCxiZr+zE0lRPXFa9kiWSZQFrtVqltSL3UrPq0/WacRYwSiQK3rT2A0Aqtax6DUiqyQYmAaTO/BitRe/XWa4mMP5kdn9/725vby0+Pq3FJ74tZgKjFMLJbDaz+Pi0Fp/4tpgJjKdGsbvoE8Pnl57YdDp1g8HA8uCyaPGJb4uZTsyXQtR6izSg8G0xExgOrE/OEkxOrQjmf0NRxFbZ+J0nVTbE/G+BUX1TqVf9xIiRWCUTT4xSqN1uS/pKzRGjVIsSpAjmyx1/rRRNEExZLYqk9vpvBoV/6wvWftuu/AH9tji/A/9rwX4CoNKbBezrnxIAAAAASUVORK5CYII=;" vertex="1" parent="gNoDSgEm0qHazXfeq4_1-129">
          <mxGeometry x="20" y="20" width="21.6" height="20" as="geometry" />
        </mxCell>
        <mxCell id="gNoDSgEm0qHazXfeq4_1-133" value="" style="group" vertex="1" connectable="0" parent="1">
          <mxGeometry x="718.1" y="280" width="60.00000000000003" height="60" as="geometry" />
        </mxCell>
        <mxCell id="gNoDSgEm0qHazXfeq4_1-134" value="" style="whiteSpace=wrap;html=1;fillColor=#E1D5E7;" vertex="1" parent="gNoDSgEm0qHazXfeq4_1-133">
          <mxGeometry width="60" height="60" as="geometry" />
        </mxCell>
        <mxCell id="gNoDSgEm0qHazXfeq4_1-135" value="" style="group" vertex="1" connectable="0" parent="gNoDSgEm0qHazXfeq4_1-133">
          <mxGeometry x="9.200000000000017" y="10" width="41.60000000000002" height="40" as="geometry" />
        </mxCell>
        <mxCell id="gNoDSgEm0qHazXfeq4_1-136" value="" style="shape=image;verticalLabelPosition=bottom;labelBackgroundColor=default;verticalAlign=top;aspect=fixed;imageAspect=0;image=data:image/png,iVBORw0KGgoAAAANSUhEUgAAADYAAAAyCAYAAAAX1CjLAAABV2lDQ1BJQ0MgUHJvZmlsZQAAKJFtkE9LAlEUxY+l2R+LiJZGrsLFJKEGrQIzsEhonEwqWjSO0yiM0+s5EVIfon20a9O+IFy1a9MuKILW9QEECUqm+5xKrR5czo/DeZfLAXr6VcZML4CyZXMltRDa2NwK+V/RhwH4EERY1SosIctpiuBbu1/jAR6h99NiF3JHmZcLe/Jy/iqTG1mt/813vcGCXtFIP2giGuM24JGI5UObCT4mHud0FPGJYMPlc8F5l69bmaySJL4jHtWKaoH4mVjKd/hGB5fNA+3rBnF9QLfW10jHaIJII4UQlrAIhTSOFern/3y8lU9iDwxVcJRgoAibfiXIYTChEy/DgoYIJOIoZmhiouff/bW96iMwlyHYbnvZJ6AmA0OnbS88BQzvALezTOXqT6uehreyG4u6HOCA781x6hOAvwY0ueO8nzlOkzrspZ03+5+MAWDdKoYYuwAAAFZlWElmTU0AKgAAAAgAAYdpAAQAAAABAAAAGgAAAAAAA5KGAAcAAAASAAAARKACAAQAAAABAAAANqADAAQAAAABAAAAMgAAAABBU0NJSQAAAFNjcmVlbnNob3SLWX11AAAB1GlUWHRYTUw6Y29tLmFkb2JlLnhtcAAAAAAAPHg6eG1wbWV0YSB4bWxuczp4PSJhZG9iZTpuczptZXRhLyIgeDp4bXB0az0iWE1QIENvcmUgNi4wLjAiPgogICA8cmRmOlJERiB4bWxuczpyZGY9Imh0dHA6Ly93d3cudzMub3JnLzE5OTkvMDIvMjItcmRmLXN5bnRheC1ucyMiPgogICAgICA8cmRmOkRlc2NyaXB0aW9uIHJkZjphYm91dD0iIgogICAgICAgICAgICB4bWxuczpleGlmPSJodHRwOi8vbnMuYWRvYmUuY29tL2V4aWYvMS4wLyI+CiAgICAgICAgIDxleGlmOlBpeGVsWURpbWVuc2lvbj41MDwvZXhpZjpQaXhlbFlEaW1lbnNpb24+CiAgICAgICAgIDxleGlmOlBpeGVsWERpbWVuc2lvbj41NDwvZXhpZjpQaXhlbFhEaW1lbnNpb24+CiAgICAgICAgIDxleGlmOlVzZXJDb21tZW50PlNjcmVlbnNob3Q8L2V4aWY6VXNlckNvbW1lbnQ+CiAgICAgIDwvcmRmOkRlc2NyaXB0aW9uPgogICA8L3JkZjpSREY+CjwveDp4bXBtZXRhPgoow1cUAAADiUlEQVRoBe2a/04iMRDHi6DyBGjirxcgEKLv4DMb4xtooigPgEiC8jfG33d+yDXXdmd1Riu33t0kzbbdbzvz2cLsYKz9eDWXGFMvLy9OuJUo/+ywVqu5paUlxzW1RjrBGCja8/OzdLsyc/V6fR6Lv4aBiWCcFFBPT0+htpJ96bQIVAS7vr52V1dX81ZJml9BbW5uOtrGxkYhTBFsMpm409NTd3JyUlhQpYnd3V3XaDRsYGdnZ+7g4KBKHIVYgOLEJBNPTBIyx+fZtzLNV8zznfdNu78ZjPQqZSGtw4/oSGTW148ZDKhFg/EwrO9UE9j6+vr8iyploY+chHbNeDx2vmnXmMF6vZ4jGy3SyM58HIHTmhms2+26/f197f5ZdBQKvFctZgIr29iXYFxDI9H4Fs5b9eFabT8bGE81rS1JMrxrgAsNMIs+XKvtZwMD6uHhIfK7srJSgEIAmEUfbaocZAGjthyNRoXvAVXB1tbWvIXxWPXhWm0/G1i/33fHx8eR3729PcepARcaYBZ9uFbbzwp2eHgY+ZWgEHgwrT7aVDnIAubLrOXl5cgtySNNHAis+mhT5eA/2FsPioqftJ6eGHPSL1yr/i3fZfeynNja2prrdDoFH8xxLzWrPl2vGWcBozjG/NU7BiCdC3XpvTK9389yzQJGQDStWfXafUNdFjCqCF9NhJv7rJj+frPqwz21/SxgQFFOPT4+Rn5JJrzLUjCrPtpUOcgCxgkAdXd3V3ALVJotrfrCpoqJLGA3NzduOBy6y8vLyOX29rbb2dlxXEOz6sO12n4WMEqk8/NzsVZsNpsFMKteCxPqsoBxAhcXF+7o6Cjc2wHFiaVm1afrNeMsYNR+VBkkitCkH5nct+rDPbX9rGCrq6uR3/fAtPpoU+UgCxiZr+zE0lRPXFa9kiWSZQFrtVqltSL3UrPq0/WacRYwSiQK3rT2A0Aqtax6DUiqyQYmAaTO/BitRe/XWa4mMP5kdn9/725vby0+Pq3FJ74tZgKjFMLJbDaz+Pi0Fp/4tpgJjKdGsbvoE8Pnl57YdDp1g8HA8uCyaPGJb4uZTsyXQtR6izSg8G0xExgOrE/OEkxOrQjmf0NRxFbZ+J0nVTbE/G+BUX1TqVf9xIiRWCUTT4xSqN1uS/pKzRGjVIsSpAjmyx1/rRRNEExZLYqk9vpvBoV/6wvWftuu/AH9tji/A/9rwX4CoNKbBezrnxIAAAAASUVORK5CYII=;" vertex="1" parent="gNoDSgEm0qHazXfeq4_1-135">
          <mxGeometry width="21.6" height="20" as="geometry" />
        </mxCell>
        <mxCell id="gNoDSgEm0qHazXfeq4_1-137" value="" style="shape=image;verticalLabelPosition=bottom;labelBackgroundColor=default;verticalAlign=top;aspect=fixed;imageAspect=0;image=data:image/png,iVBORw0KGgoAAAANSUhEUgAAADYAAAAyCAYAAAAX1CjLAAABV2lDQ1BJQ0MgUHJvZmlsZQAAKJFtkE9LAlEUxY+l2R+LiJZGrsLFJKEGrQIzsEhonEwqWjSO0yiM0+s5EVIfon20a9O+IFy1a9MuKILW9QEECUqm+5xKrR5czo/DeZfLAXr6VcZML4CyZXMltRDa2NwK+V/RhwH4EERY1SosIctpiuBbu1/jAR6h99NiF3JHmZcLe/Jy/iqTG1mt/813vcGCXtFIP2giGuM24JGI5UObCT4mHud0FPGJYMPlc8F5l69bmaySJL4jHtWKaoH4mVjKd/hGB5fNA+3rBnF9QLfW10jHaIJII4UQlrAIhTSOFern/3y8lU9iDwxVcJRgoAibfiXIYTChEy/DgoYIJOIoZmhiouff/bW96iMwlyHYbnvZJ6AmA0OnbS88BQzvALezTOXqT6uehreyG4u6HOCA781x6hOAvwY0ueO8nzlOkzrspZ03+5+MAWDdKoYYuwAAAFZlWElmTU0AKgAAAAgAAYdpAAQAAAABAAAAGgAAAAAAA5KGAAcAAAASAAAARKACAAQAAAABAAAANqADAAQAAAABAAAAMgAAAABBU0NJSQAAAFNjcmVlbnNob3SLWX11AAAB1GlUWHRYTUw6Y29tLmFkb2JlLnhtcAAAAAAAPHg6eG1wbWV0YSB4bWxuczp4PSJhZG9iZTpuczptZXRhLyIgeDp4bXB0az0iWE1QIENvcmUgNi4wLjAiPgogICA8cmRmOlJERiB4bWxuczpyZGY9Imh0dHA6Ly93d3cudzMub3JnLzE5OTkvMDIvMjItcmRmLXN5bnRheC1ucyMiPgogICAgICA8cmRmOkRlc2NyaXB0aW9uIHJkZjphYm91dD0iIgogICAgICAgICAgICB4bWxuczpleGlmPSJodHRwOi8vbnMuYWRvYmUuY29tL2V4aWYvMS4wLyI+CiAgICAgICAgIDxleGlmOlBpeGVsWURpbWVuc2lvbj41MDwvZXhpZjpQaXhlbFlEaW1lbnNpb24+CiAgICAgICAgIDxleGlmOlBpeGVsWERpbWVuc2lvbj41NDwvZXhpZjpQaXhlbFhEaW1lbnNpb24+CiAgICAgICAgIDxleGlmOlVzZXJDb21tZW50PlNjcmVlbnNob3Q8L2V4aWY6VXNlckNvbW1lbnQ+CiAgICAgIDwvcmRmOkRlc2NyaXB0aW9uPgogICA8L3JkZjpSREY+CjwveDp4bXBtZXRhPgoow1cUAAADiUlEQVRoBe2a/04iMRDHi6DyBGjirxcgEKLv4DMb4xtooigPgEiC8jfG33d+yDXXdmd1Riu33t0kzbbdbzvz2cLsYKz9eDWXGFMvLy9OuJUo/+ywVqu5paUlxzW1RjrBGCja8/OzdLsyc/V6fR6Lv4aBiWCcFFBPT0+htpJ96bQIVAS7vr52V1dX81ZJml9BbW5uOtrGxkYhTBFsMpm409NTd3JyUlhQpYnd3V3XaDRsYGdnZ+7g4KBKHIVYgOLEJBNPTBIyx+fZtzLNV8zznfdNu78ZjPQqZSGtw4/oSGTW148ZDKhFg/EwrO9UE9j6+vr8iyploY+chHbNeDx2vmnXmMF6vZ4jGy3SyM58HIHTmhms2+26/f197f5ZdBQKvFctZgIr29iXYFxDI9H4Fs5b9eFabT8bGE81rS1JMrxrgAsNMIs+XKvtZwMD6uHhIfK7srJSgEIAmEUfbaocZAGjthyNRoXvAVXB1tbWvIXxWPXhWm0/G1i/33fHx8eR3729PcepARcaYBZ9uFbbzwp2eHgY+ZWgEHgwrT7aVDnIAubLrOXl5cgtySNNHAis+mhT5eA/2FsPioqftJ6eGHPSL1yr/i3fZfeynNja2prrdDoFH8xxLzWrPl2vGWcBozjG/NU7BiCdC3XpvTK9389yzQJGQDStWfXafUNdFjCqCF9NhJv7rJj+frPqwz21/SxgQFFOPT4+Rn5JJrzLUjCrPtpUOcgCxgkAdXd3V3ALVJotrfrCpoqJLGA3NzduOBy6y8vLyOX29rbb2dlxXEOz6sO12n4WMEqk8/NzsVZsNpsFMKteCxPqsoBxAhcXF+7o6Cjc2wHFiaVm1afrNeMsYNR+VBkkitCkH5nct+rDPbX9rGCrq6uR3/fAtPpoU+UgCxiZr+zE0lRPXFa9kiWSZQFrtVqltSL3UrPq0/WacRYwSiQK3rT2A0Aqtax6DUiqyQYmAaTO/BitRe/XWa4mMP5kdn9/725vby0+Pq3FJ74tZgKjFMLJbDaz+Pi0Fp/4tpgJjKdGsbvoE8Pnl57YdDp1g8HA8uCyaPGJb4uZTsyXQtR6izSg8G0xExgOrE/OEkxOrQjmf0NRxFbZ+J0nVTbE/G+BUX1TqVf9xIiRWCUTT4xSqN1uS/pKzRGjVIsSpAjmyx1/rRRNEExZLYqk9vpvBoV/6wvWftuu/AH9tji/A/9rwX4CoNKbBezrnxIAAAAASUVORK5CYII=;" vertex="1" parent="gNoDSgEm0qHazXfeq4_1-135">
          <mxGeometry x="10" y="10" width="21.6" height="20" as="geometry" />
        </mxCell>
        <mxCell id="gNoDSgEm0qHazXfeq4_1-138" value="" style="shape=image;verticalLabelPosition=bottom;labelBackgroundColor=default;verticalAlign=top;aspect=fixed;imageAspect=0;image=data:image/png,iVBORw0KGgoAAAANSUhEUgAAADYAAAAyCAYAAAAX1CjLAAABV2lDQ1BJQ0MgUHJvZmlsZQAAKJFtkE9LAlEUxY+l2R+LiJZGrsLFJKEGrQIzsEhonEwqWjSO0yiM0+s5EVIfon20a9O+IFy1a9MuKILW9QEECUqm+5xKrR5czo/DeZfLAXr6VcZML4CyZXMltRDa2NwK+V/RhwH4EERY1SosIctpiuBbu1/jAR6h99NiF3JHmZcLe/Jy/iqTG1mt/813vcGCXtFIP2giGuM24JGI5UObCT4mHud0FPGJYMPlc8F5l69bmaySJL4jHtWKaoH4mVjKd/hGB5fNA+3rBnF9QLfW10jHaIJII4UQlrAIhTSOFern/3y8lU9iDwxVcJRgoAibfiXIYTChEy/DgoYIJOIoZmhiouff/bW96iMwlyHYbnvZJ6AmA0OnbS88BQzvALezTOXqT6uehreyG4u6HOCA781x6hOAvwY0ueO8nzlOkzrspZ03+5+MAWDdKoYYuwAAAFZlWElmTU0AKgAAAAgAAYdpAAQAAAABAAAAGgAAAAAAA5KGAAcAAAASAAAARKACAAQAAAABAAAANqADAAQAAAABAAAAMgAAAABBU0NJSQAAAFNjcmVlbnNob3SLWX11AAAB1GlUWHRYTUw6Y29tLmFkb2JlLnhtcAAAAAAAPHg6eG1wbWV0YSB4bWxuczp4PSJhZG9iZTpuczptZXRhLyIgeDp4bXB0az0iWE1QIENvcmUgNi4wLjAiPgogICA8cmRmOlJERiB4bWxuczpyZGY9Imh0dHA6Ly93d3cudzMub3JnLzE5OTkvMDIvMjItcmRmLXN5bnRheC1ucyMiPgogICAgICA8cmRmOkRlc2NyaXB0aW9uIHJkZjphYm91dD0iIgogICAgICAgICAgICB4bWxuczpleGlmPSJodHRwOi8vbnMuYWRvYmUuY29tL2V4aWYvMS4wLyI+CiAgICAgICAgIDxleGlmOlBpeGVsWURpbWVuc2lvbj41MDwvZXhpZjpQaXhlbFlEaW1lbnNpb24+CiAgICAgICAgIDxleGlmOlBpeGVsWERpbWVuc2lvbj41NDwvZXhpZjpQaXhlbFhEaW1lbnNpb24+CiAgICAgICAgIDxleGlmOlVzZXJDb21tZW50PlNjcmVlbnNob3Q8L2V4aWY6VXNlckNvbW1lbnQ+CiAgICAgIDwvcmRmOkRlc2NyaXB0aW9uPgogICA8L3JkZjpSREY+CjwveDp4bXBtZXRhPgoow1cUAAADiUlEQVRoBe2a/04iMRDHi6DyBGjirxcgEKLv4DMb4xtooigPgEiC8jfG33d+yDXXdmd1Riu33t0kzbbdbzvz2cLsYKz9eDWXGFMvLy9OuJUo/+ywVqu5paUlxzW1RjrBGCja8/OzdLsyc/V6fR6Lv4aBiWCcFFBPT0+htpJ96bQIVAS7vr52V1dX81ZJml9BbW5uOtrGxkYhTBFsMpm409NTd3JyUlhQpYnd3V3XaDRsYGdnZ+7g4KBKHIVYgOLEJBNPTBIyx+fZtzLNV8zznfdNu78ZjPQqZSGtw4/oSGTW148ZDKhFg/EwrO9UE9j6+vr8iyploY+chHbNeDx2vmnXmMF6vZ4jGy3SyM58HIHTmhms2+26/f197f5ZdBQKvFctZgIr29iXYFxDI9H4Fs5b9eFabT8bGE81rS1JMrxrgAsNMIs+XKvtZwMD6uHhIfK7srJSgEIAmEUfbaocZAGjthyNRoXvAVXB1tbWvIXxWPXhWm0/G1i/33fHx8eR3729PcepARcaYBZ9uFbbzwp2eHgY+ZWgEHgwrT7aVDnIAubLrOXl5cgtySNNHAis+mhT5eA/2FsPioqftJ6eGHPSL1yr/i3fZfeynNja2prrdDoFH8xxLzWrPl2vGWcBozjG/NU7BiCdC3XpvTK9389yzQJGQDStWfXafUNdFjCqCF9NhJv7rJj+frPqwz21/SxgQFFOPT4+Rn5JJrzLUjCrPtpUOcgCxgkAdXd3V3ALVJotrfrCpoqJLGA3NzduOBy6y8vLyOX29rbb2dlxXEOz6sO12n4WMEqk8/NzsVZsNpsFMKteCxPqsoBxAhcXF+7o6Cjc2wHFiaVm1afrNeMsYNR+VBkkitCkH5nct+rDPbX9rGCrq6uR3/fAtPpoU+UgCxiZr+zE0lRPXFa9kiWSZQFrtVqltSL3UrPq0/WacRYwSiQK3rT2A0Aqtax6DUiqyQYmAaTO/BitRe/XWa4mMP5kdn9/725vby0+Pq3FJ74tZgKjFMLJbDaz+Pi0Fp/4tpgJjKdGsbvoE8Pnl57YdDp1g8HA8uCyaPGJb4uZTsyXQtR6izSg8G0xExgOrE/OEkxOrQjmf0NRxFbZ+J0nVTbE/G+BUX1TqVf9xIiRWCUTT4xSqN1uS/pKzRGjVIsSpAjmyx1/rRRNEExZLYqk9vpvBoV/6wvWftuu/AH9tji/A/9rwX4CoNKbBezrnxIAAAAASUVORK5CYII=;" vertex="1" parent="gNoDSgEm0qHazXfeq4_1-135">
          <mxGeometry x="20" y="20" width="21.6" height="20" as="geometry" />
        </mxCell>
        <mxCell id="gNoDSgEm0qHazXfeq4_1-139" value="" style="group" vertex="1" connectable="0" parent="1">
          <mxGeometry x="718.1" y="480" width="60.00000000000003" height="60" as="geometry" />
        </mxCell>
        <mxCell id="gNoDSgEm0qHazXfeq4_1-140" value="" style="whiteSpace=wrap;html=1;fillColor=#E1D5E7;" vertex="1" parent="gNoDSgEm0qHazXfeq4_1-139">
          <mxGeometry width="60" height="60" as="geometry" />
        </mxCell>
        <mxCell id="gNoDSgEm0qHazXfeq4_1-141" value="" style="group" vertex="1" connectable="0" parent="gNoDSgEm0qHazXfeq4_1-139">
          <mxGeometry x="9.200000000000017" y="10" width="41.60000000000002" height="40" as="geometry" />
        </mxCell>
        <mxCell id="gNoDSgEm0qHazXfeq4_1-142" value="" style="shape=image;verticalLabelPosition=bottom;labelBackgroundColor=default;verticalAlign=top;aspect=fixed;imageAspect=0;image=data:image/png,iVBORw0KGgoAAAANSUhEUgAAADYAAAAyCAYAAAAX1CjLAAABV2lDQ1BJQ0MgUHJvZmlsZQAAKJFtkE9LAlEUxY+l2R+LiJZGrsLFJKEGrQIzsEhonEwqWjSO0yiM0+s5EVIfon20a9O+IFy1a9MuKILW9QEECUqm+5xKrR5czo/DeZfLAXr6VcZML4CyZXMltRDa2NwK+V/RhwH4EERY1SosIctpiuBbu1/jAR6h99NiF3JHmZcLe/Jy/iqTG1mt/813vcGCXtFIP2giGuM24JGI5UObCT4mHud0FPGJYMPlc8F5l69bmaySJL4jHtWKaoH4mVjKd/hGB5fNA+3rBnF9QLfW10jHaIJII4UQlrAIhTSOFern/3y8lU9iDwxVcJRgoAibfiXIYTChEy/DgoYIJOIoZmhiouff/bW96iMwlyHYbnvZJ6AmA0OnbS88BQzvALezTOXqT6uehreyG4u6HOCA781x6hOAvwY0ueO8nzlOkzrspZ03+5+MAWDdKoYYuwAAAFZlWElmTU0AKgAAAAgAAYdpAAQAAAABAAAAGgAAAAAAA5KGAAcAAAASAAAARKACAAQAAAABAAAANqADAAQAAAABAAAAMgAAAABBU0NJSQAAAFNjcmVlbnNob3SLWX11AAAB1GlUWHRYTUw6Y29tLmFkb2JlLnhtcAAAAAAAPHg6eG1wbWV0YSB4bWxuczp4PSJhZG9iZTpuczptZXRhLyIgeDp4bXB0az0iWE1QIENvcmUgNi4wLjAiPgogICA8cmRmOlJERiB4bWxuczpyZGY9Imh0dHA6Ly93d3cudzMub3JnLzE5OTkvMDIvMjItcmRmLXN5bnRheC1ucyMiPgogICAgICA8cmRmOkRlc2NyaXB0aW9uIHJkZjphYm91dD0iIgogICAgICAgICAgICB4bWxuczpleGlmPSJodHRwOi8vbnMuYWRvYmUuY29tL2V4aWYvMS4wLyI+CiAgICAgICAgIDxleGlmOlBpeGVsWURpbWVuc2lvbj41MDwvZXhpZjpQaXhlbFlEaW1lbnNpb24+CiAgICAgICAgIDxleGlmOlBpeGVsWERpbWVuc2lvbj41NDwvZXhpZjpQaXhlbFhEaW1lbnNpb24+CiAgICAgICAgIDxleGlmOlVzZXJDb21tZW50PlNjcmVlbnNob3Q8L2V4aWY6VXNlckNvbW1lbnQ+CiAgICAgIDwvcmRmOkRlc2NyaXB0aW9uPgogICA8L3JkZjpSREY+CjwveDp4bXBtZXRhPgoow1cUAAADiUlEQVRoBe2a/04iMRDHi6DyBGjirxcgEKLv4DMb4xtooigPgEiC8jfG33d+yDXXdmd1Riu33t0kzbbdbzvz2cLsYKz9eDWXGFMvLy9OuJUo/+ywVqu5paUlxzW1RjrBGCja8/OzdLsyc/V6fR6Lv4aBiWCcFFBPT0+htpJ96bQIVAS7vr52V1dX81ZJml9BbW5uOtrGxkYhTBFsMpm409NTd3JyUlhQpYnd3V3XaDRsYGdnZ+7g4KBKHIVYgOLEJBNPTBIyx+fZtzLNV8zznfdNu78ZjPQqZSGtw4/oSGTW148ZDKhFg/EwrO9UE9j6+vr8iyploY+chHbNeDx2vmnXmMF6vZ4jGy3SyM58HIHTmhms2+26/f197f5ZdBQKvFctZgIr29iXYFxDI9H4Fs5b9eFabT8bGE81rS1JMrxrgAsNMIs+XKvtZwMD6uHhIfK7srJSgEIAmEUfbaocZAGjthyNRoXvAVXB1tbWvIXxWPXhWm0/G1i/33fHx8eR3729PcepARcaYBZ9uFbbzwp2eHgY+ZWgEHgwrT7aVDnIAubLrOXl5cgtySNNHAis+mhT5eA/2FsPioqftJ6eGHPSL1yr/i3fZfeynNja2prrdDoFH8xxLzWrPl2vGWcBozjG/NU7BiCdC3XpvTK9389yzQJGQDStWfXafUNdFjCqCF9NhJv7rJj+frPqwz21/SxgQFFOPT4+Rn5JJrzLUjCrPtpUOcgCxgkAdXd3V3ALVJotrfrCpoqJLGA3NzduOBy6y8vLyOX29rbb2dlxXEOz6sO12n4WMEqk8/NzsVZsNpsFMKteCxPqsoBxAhcXF+7o6Cjc2wHFiaVm1afrNeMsYNR+VBkkitCkH5nct+rDPbX9rGCrq6uR3/fAtPpoU+UgCxiZr+zE0lRPXFa9kiWSZQFrtVqltSL3UrPq0/WacRYwSiQK3rT2A0Aqtax6DUiqyQYmAaTO/BitRe/XWa4mMP5kdn9/725vby0+Pq3FJ74tZgKjFMLJbDaz+Pi0Fp/4tpgJjKdGsbvoE8Pnl57YdDp1g8HA8uCyaPGJb4uZTsyXQtR6izSg8G0xExgOrE/OEkxOrQjmf0NRxFbZ+J0nVTbE/G+BUX1TqVf9xIiRWCUTT4xSqN1uS/pKzRGjVIsSpAjmyx1/rRRNEExZLYqk9vpvBoV/6wvWftuu/AH9tji/A/9rwX4CoNKbBezrnxIAAAAASUVORK5CYII=;" vertex="1" parent="gNoDSgEm0qHazXfeq4_1-141">
          <mxGeometry width="21.6" height="20" as="geometry" />
        </mxCell>
        <mxCell id="gNoDSgEm0qHazXfeq4_1-143" value="" style="shape=image;verticalLabelPosition=bottom;labelBackgroundColor=default;verticalAlign=top;aspect=fixed;imageAspect=0;image=data:image/png,iVBORw0KGgoAAAANSUhEUgAAADYAAAAyCAYAAAAX1CjLAAABV2lDQ1BJQ0MgUHJvZmlsZQAAKJFtkE9LAlEUxY+l2R+LiJZGrsLFJKEGrQIzsEhonEwqWjSO0yiM0+s5EVIfon20a9O+IFy1a9MuKILW9QEECUqm+5xKrR5czo/DeZfLAXr6VcZML4CyZXMltRDa2NwK+V/RhwH4EERY1SosIctpiuBbu1/jAR6h99NiF3JHmZcLe/Jy/iqTG1mt/813vcGCXtFIP2giGuM24JGI5UObCT4mHud0FPGJYMPlc8F5l69bmaySJL4jHtWKaoH4mVjKd/hGB5fNA+3rBnF9QLfW10jHaIJII4UQlrAIhTSOFern/3y8lU9iDwxVcJRgoAibfiXIYTChEy/DgoYIJOIoZmhiouff/bW96iMwlyHYbnvZJ6AmA0OnbS88BQzvALezTOXqT6uehreyG4u6HOCA781x6hOAvwY0ueO8nzlOkzrspZ03+5+MAWDdKoYYuwAAAFZlWElmTU0AKgAAAAgAAYdpAAQAAAABAAAAGgAAAAAAA5KGAAcAAAASAAAARKACAAQAAAABAAAANqADAAQAAAABAAAAMgAAAABBU0NJSQAAAFNjcmVlbnNob3SLWX11AAAB1GlUWHRYTUw6Y29tLmFkb2JlLnhtcAAAAAAAPHg6eG1wbWV0YSB4bWxuczp4PSJhZG9iZTpuczptZXRhLyIgeDp4bXB0az0iWE1QIENvcmUgNi4wLjAiPgogICA8cmRmOlJERiB4bWxuczpyZGY9Imh0dHA6Ly93d3cudzMub3JnLzE5OTkvMDIvMjItcmRmLXN5bnRheC1ucyMiPgogICAgICA8cmRmOkRlc2NyaXB0aW9uIHJkZjphYm91dD0iIgogICAgICAgICAgICB4bWxuczpleGlmPSJodHRwOi8vbnMuYWRvYmUuY29tL2V4aWYvMS4wLyI+CiAgICAgICAgIDxleGlmOlBpeGVsWURpbWVuc2lvbj41MDwvZXhpZjpQaXhlbFlEaW1lbnNpb24+CiAgICAgICAgIDxleGlmOlBpeGVsWERpbWVuc2lvbj41NDwvZXhpZjpQaXhlbFhEaW1lbnNpb24+CiAgICAgICAgIDxleGlmOlVzZXJDb21tZW50PlNjcmVlbnNob3Q8L2V4aWY6VXNlckNvbW1lbnQ+CiAgICAgIDwvcmRmOkRlc2NyaXB0aW9uPgogICA8L3JkZjpSREY+CjwveDp4bXBtZXRhPgoow1cUAAADiUlEQVRoBe2a/04iMRDHi6DyBGjirxcgEKLv4DMb4xtooigPgEiC8jfG33d+yDXXdmd1Riu33t0kzbbdbzvz2cLsYKz9eDWXGFMvLy9OuJUo/+ywVqu5paUlxzW1RjrBGCja8/OzdLsyc/V6fR6Lv4aBiWCcFFBPT0+htpJ96bQIVAS7vr52V1dX81ZJml9BbW5uOtrGxkYhTBFsMpm409NTd3JyUlhQpYnd3V3XaDRsYGdnZ+7g4KBKHIVYgOLEJBNPTBIyx+fZtzLNV8zznfdNu78ZjPQqZSGtw4/oSGTW148ZDKhFg/EwrO9UE9j6+vr8iyploY+chHbNeDx2vmnXmMF6vZ4jGy3SyM58HIHTmhms2+26/f197f5ZdBQKvFctZgIr29iXYFxDI9H4Fs5b9eFabT8bGE81rS1JMrxrgAsNMIs+XKvtZwMD6uHhIfK7srJSgEIAmEUfbaocZAGjthyNRoXvAVXB1tbWvIXxWPXhWm0/G1i/33fHx8eR3729PcepARcaYBZ9uFbbzwp2eHgY+ZWgEHgwrT7aVDnIAubLrOXl5cgtySNNHAis+mhT5eA/2FsPioqftJ6eGHPSL1yr/i3fZfeynNja2prrdDoFH8xxLzWrPl2vGWcBozjG/NU7BiCdC3XpvTK9389yzQJGQDStWfXafUNdFjCqCF9NhJv7rJj+frPqwz21/SxgQFFOPT4+Rn5JJrzLUjCrPtpUOcgCxgkAdXd3V3ALVJotrfrCpoqJLGA3NzduOBy6y8vLyOX29rbb2dlxXEOz6sO12n4WMEqk8/NzsVZsNpsFMKteCxPqsoBxAhcXF+7o6Cjc2wHFiaVm1afrNeMsYNR+VBkkitCkH5nct+rDPbX9rGCrq6uR3/fAtPpoU+UgCxiZr+zE0lRPXFa9kiWSZQFrtVqltSL3UrPq0/WacRYwSiQK3rT2A0Aqtax6DUiqyQYmAaTO/BitRe/XWa4mMP5kdn9/725vby0+Pq3FJ74tZgKjFMLJbDaz+Pi0Fp/4tpgJjKdGsbvoE8Pnl57YdDp1g8HA8uCyaPGJb4uZTsyXQtR6izSg8G0xExgOrE/OEkxOrQjmf0NRxFbZ+J0nVTbE/G+BUX1TqVf9xIiRWCUTT4xSqN1uS/pKzRGjVIsSpAjmyx1/rRRNEExZLYqk9vpvBoV/6wvWftuu/AH9tji/A/9rwX4CoNKbBezrnxIAAAAASUVORK5CYII=;" vertex="1" parent="gNoDSgEm0qHazXfeq4_1-141">
          <mxGeometry x="10" y="10" width="21.6" height="20" as="geometry" />
        </mxCell>
        <mxCell id="gNoDSgEm0qHazXfeq4_1-144" value="" style="shape=image;verticalLabelPosition=bottom;labelBackgroundColor=default;verticalAlign=top;aspect=fixed;imageAspect=0;image=data:image/png,iVBORw0KGgoAAAANSUhEUgAAADYAAAAyCAYAAAAX1CjLAAABV2lDQ1BJQ0MgUHJvZmlsZQAAKJFtkE9LAlEUxY+l2R+LiJZGrsLFJKEGrQIzsEhonEwqWjSO0yiM0+s5EVIfon20a9O+IFy1a9MuKILW9QEECUqm+5xKrR5czo/DeZfLAXr6VcZML4CyZXMltRDa2NwK+V/RhwH4EERY1SosIctpiuBbu1/jAR6h99NiF3JHmZcLe/Jy/iqTG1mt/813vcGCXtFIP2giGuM24JGI5UObCT4mHud0FPGJYMPlc8F5l69bmaySJL4jHtWKaoH4mVjKd/hGB5fNA+3rBnF9QLfW10jHaIJII4UQlrAIhTSOFern/3y8lU9iDwxVcJRgoAibfiXIYTChEy/DgoYIJOIoZmhiouff/bW96iMwlyHYbnvZJ6AmA0OnbS88BQzvALezTOXqT6uehreyG4u6HOCA781x6hOAvwY0ueO8nzlOkzrspZ03+5+MAWDdKoYYuwAAAFZlWElmTU0AKgAAAAgAAYdpAAQAAAABAAAAGgAAAAAAA5KGAAcAAAASAAAARKACAAQAAAABAAAANqADAAQAAAABAAAAMgAAAABBU0NJSQAAAFNjcmVlbnNob3SLWX11AAAB1GlUWHRYTUw6Y29tLmFkb2JlLnhtcAAAAAAAPHg6eG1wbWV0YSB4bWxuczp4PSJhZG9iZTpuczptZXRhLyIgeDp4bXB0az0iWE1QIENvcmUgNi4wLjAiPgogICA8cmRmOlJERiB4bWxuczpyZGY9Imh0dHA6Ly93d3cudzMub3JnLzE5OTkvMDIvMjItcmRmLXN5bnRheC1ucyMiPgogICAgICA8cmRmOkRlc2NyaXB0aW9uIHJkZjphYm91dD0iIgogICAgICAgICAgICB4bWxuczpleGlmPSJodHRwOi8vbnMuYWRvYmUuY29tL2V4aWYvMS4wLyI+CiAgICAgICAgIDxleGlmOlBpeGVsWURpbWVuc2lvbj41MDwvZXhpZjpQaXhlbFlEaW1lbnNpb24+CiAgICAgICAgIDxleGlmOlBpeGVsWERpbWVuc2lvbj41NDwvZXhpZjpQaXhlbFhEaW1lbnNpb24+CiAgICAgICAgIDxleGlmOlVzZXJDb21tZW50PlNjcmVlbnNob3Q8L2V4aWY6VXNlckNvbW1lbnQ+CiAgICAgIDwvcmRmOkRlc2NyaXB0aW9uPgogICA8L3JkZjpSREY+CjwveDp4bXBtZXRhPgoow1cUAAADiUlEQVRoBe2a/04iMRDHi6DyBGjirxcgEKLv4DMb4xtooigPgEiC8jfG33d+yDXXdmd1Riu33t0kzbbdbzvz2cLsYKz9eDWXGFMvLy9OuJUo/+ywVqu5paUlxzW1RjrBGCja8/OzdLsyc/V6fR6Lv4aBiWCcFFBPT0+htpJ96bQIVAS7vr52V1dX81ZJml9BbW5uOtrGxkYhTBFsMpm409NTd3JyUlhQpYnd3V3XaDRsYGdnZ+7g4KBKHIVYgOLEJBNPTBIyx+fZtzLNV8zznfdNu78ZjPQqZSGtw4/oSGTW148ZDKhFg/EwrO9UE9j6+vr8iyploY+chHbNeDx2vmnXmMF6vZ4jGy3SyM58HIHTmhms2+26/f197f5ZdBQKvFctZgIr29iXYFxDI9H4Fs5b9eFabT8bGE81rS1JMrxrgAsNMIs+XKvtZwMD6uHhIfK7srJSgEIAmEUfbaocZAGjthyNRoXvAVXB1tbWvIXxWPXhWm0/G1i/33fHx8eR3729PcepARcaYBZ9uFbbzwp2eHgY+ZWgEHgwrT7aVDnIAubLrOXl5cgtySNNHAis+mhT5eA/2FsPioqftJ6eGHPSL1yr/i3fZfeynNja2prrdDoFH8xxLzWrPl2vGWcBozjG/NU7BiCdC3XpvTK9389yzQJGQDStWfXafUNdFjCqCF9NhJv7rJj+frPqwz21/SxgQFFOPT4+Rn5JJrzLUjCrPtpUOcgCxgkAdXd3V3ALVJotrfrCpoqJLGA3NzduOBy6y8vLyOX29rbb2dlxXEOz6sO12n4WMEqk8/NzsVZsNpsFMKteCxPqsoBxAhcXF+7o6Cjc2wHFiaVm1afrNeMsYNR+VBkkitCkH5nct+rDPbX9rGCrq6uR3/fAtPpoU+UgCxiZr+zE0lRPXFa9kiWSZQFrtVqltSL3UrPq0/WacRYwSiQK3rT2A0Aqtax6DUiqyQYmAaTO/BitRe/XWa4mMP5kdn9/725vby0+Pq3FJ74tZgKjFMLJbDaz+Pi0Fp/4tpgJjKdGsbvoE8Pnl57YdDp1g8HA8uCyaPGJb4uZTsyXQtR6izSg8G0xExgOrE/OEkxOrQjmf0NRxFbZ+J0nVTbE/G+BUX1TqVf9xIiRWCUTT4xSqN1uS/pKzRGjVIsSpAjmyx1/rRRNEExZLYqk9vpvBoV/6wvWftuu/AH9tji/A/9rwX4CoNKbBezrnxIAAAAASUVORK5CYII=;" vertex="1" parent="gNoDSgEm0qHazXfeq4_1-141">
          <mxGeometry x="20" y="20" width="21.6" height="20" as="geometry" />
        </mxCell>
        <mxCell id="gNoDSgEm0qHazXfeq4_1-145" value="" style="shape=image;verticalLabelPosition=bottom;labelBackgroundColor=default;verticalAlign=top;aspect=fixed;imageAspect=0;image=data:image/png,iVBORw0KGgoAAAANSUhEUgAAAPAAAADwCAYAAAA+VemSAAAABHNCSVQICAgIfAhkiAAAG+xJREFUeJzt3XucXFWVL/DfOo86VZV0B5J85H58cUGZ6wzXSzroZ9DhdUNi5JWOVx0ctBtGP2oqqIyRDnMdMCCOA2lUUKY7Phm68cNDEapBBJIwIDroFVINDI6IgAPhIUM6kKTrcc7Ze90/qgsCJJCk9z6n6vT6fgx/qKy9U92r1jl773UOIIQQQgghhBBCCCGEEEIIIYQQQgghhBBCCCGEEEIIIYQQQgghhBBCCCGEEEIIIYQQQgghZh6yFbg8zh8AcAqA0NYYe4QBABEBTzCgHMJjrLF52UJ6GMCTqc5NiGnybAUmYKGK41Nsxd9bzM1M1tT8zrr+nghxHMHz/Mddz7uXgbuVxq3/ZyE9gFbaC9HmrFXgsQqfF8fRGlvxTSEiMFofBKHRqNWLxdl3gHG1JtyyvIf+lO4Mhdg9x2LsjqhizAwwg5nBrBEE+bxS8fuVVv9Sn9z2zFiFN5Yr/GEAs9KeqxCvZO0SulO1LrUBRi4oIlbxIgIWjVV4AsDl7OKS3v9Fm9OcoxAtNiuwtcvz5LxUnWMVz1Uq/kJYrf2xXOGR6+/j/5727ISY8ZfQe2wqkV3Xd7WK++Jq9bGxcR4GkEt7amLmspnAGTWVyJ4PFccrrvm37bXyOJfSnpWYmSSBp4GZ4ft5Rys1VN7E/wHggLTnJGYWSeBpY7DW0Fq945pfbn+mXOFPpT0jMXPIIpYhzBp+kEcchd8eq/CPAARpz0lknyximcQMIoJS6kNjFX6gPM4HpT0lkW1SgS1g1lBKHRJH0f03VPg9ac9HZJdUYEuYNRyi2VG9+m83bOJj056PyCZZxLKotd2kVfSv5Qp/KO35iOyRBE6IiqMf3VDho9Oeh8gWuQdOUNSo3VneJPfEwhypwAnyPB9R1NhY3sRvS3suIhvsdSNRs9e2XbzUZZTuHFzXLRDhFgD/E0Aj7TmJzmaznVBXJ7fBdb3Y4hh7iNjzfd91X/rrvpjOCSc2M0Op+O3lCl/T20PLEx1cZI61Ennj/TwbjC5Q+ttJBLDWKDDjADAOJQeHM+Pw6o4X3p0vzHaaDQpAkjtfzXPUuTOX9dA3ExtUZE77XOOmYOxe7mIHR4Jwem3Htr8O8rPQ6jayjxDHIWYXigefsIAeS2BAkUEzOoFfqVzhlfXq5IW5fL6r1f9rExHB8byHehfQO6wOJDJLEngXyhU+nbX+BrPez3oSOw5cx121rIe+YXUgkUmSwLtHYxX+eqNe/TvPz1msxoSwUcVHjpzTDWC7pUFERsk+8O7xsh76vB8UD3dcb7O9LTFGkC+iXOHvWBpAZJhU4D3jlitc1lqdyFpbGUBrBc/PH7J8If3BygAik6QC7xnV20MnOY5rbcvHdT0Q4Vu24otskgq8l8bG+aI4ilbbiK21gu/nF/QupPtsxBfZIxV4Ly1bQGe7nn8JOeY/uqkq/HXjgUVmSQXeR2MVvkkpdSKz2XtirWLkgsJRy3roF0YDi0ySCryPlvXQMtd1HzW9Ou16PkC40GhQkVmSwPtOa2B5FJptKGJmRGHjr8bG+QSjgUUmSQJPw/IeeiBfmHW+6biO44IZXzUdV2SP3AMbUK7wZq3iN5k8rcXM8PzcB3p76AZjQUXmSAU2gbDSdEinucotrYbiNUkCG9C7gMYc13vQ5IIWM0Or+C3lcf6wsaAicySBTWGUYOG8dNxoXG48qMgMSWBDehfSXa7j3mu6CjuuN6u8ic8wFlRkiiSwQazxt9pwswODoXQs+8JilySBDeo9nB7w/NxGo4c7mivbs8vj/CVzQUVWSAIbxsDfRVFoITCfBSBvPrDoZJLAhi3voX8P8sXrTFdhFcddYxX+B3NBRRZIAttAWBNFpp/ZTlAqOuv63/N8w4FFB5MEtqB3AT0Y5GddYbbRgQFQ3qni7w0GFR1OEtgSZnwpjkKjT8JjBuqT279wfYXfYjKu6FySwJYsX0iPB/ni90xX4VxQhAucZzCo6GDSzGDX/tf9pvEMgXLmQhKisIZ8sevA3h563Fxc0YlsV2BK4U872er7uWHzVbgAQB69Iyz+wpdG+bMABgDUbY2xM2J4DDw43E8nJzHeXvCv+3VtkhzPN/nyNKVi5LzCwb3vkvcqzWTWXi9KwPw4rCW22ELkwPGDWlLj7YXIy+Uv0Ep92WS/sOf5IBfDAN5vLKjoODYvoe08AX23GABUsmPumd4euqBe2wGT3UrMjDgKl950Px9qLKjoOLIKnZBi15zPmn4AHjkOlMKw0aCio0gCJ6R3AV2mldpmoen/qBvG+UhjQdvccYO8eMlafnva82gXksAJcnO5VTbecugAQ8aDtqFFa/loVdu6Pm5su/+Er/OBac+nHdhM4Hbb0knd8gX0fc/zHzNdhaMwfGd5nJcaC9qGFl3Ex+naxJ2OF4Bcv1Cv18eXDPLb0p5X2mwmsN03Y3coBs41/TYHx3FAnN0H4B23lpfo+sQGx883z5OyBsD7aRX9eslaPiTt+aVJKnDCenvoh56Xe8B4FY7CPytX+EPGgraJ49byElWfuPXF5G1hDdbxPK2ju2dyJZYKnI5/UMrsjpfjOADhK0aDpmzRRXycqk3c5nh5wq7WDqaSWEX1e2bqPbEsYqVgWQ/d6OcC44+hVVH8P8YqfLqxoClatJaPftll8+5MXU5XJ7f9FsB/S2p+7UISOC2MlUrFZmMSwMD56PDbl0UX8V/p2sSdr5u8LazhuH7xmDXPPglgnvUJthG5B05J70L6uZ/L/9r0o3e0Um8dG+fPmwuarEUX8Xt1feIXe5y8LazhBrOdY87f8tSa7+LN9mbYXqQCp+sz2vC9MIPBjHMAGGxhTMaitfy/dX3il3udvC2s4fqF3M+fnXzwfRfzweZn2H5kEStFvT10j5cL1luowvuPVfiz5oLad9wgL9a1idv3OXlbWIOIuuM4/M3iwexvMUkFThkTzrTxMPjq5LZBAL7RwJYsXsvvU7WJ26advC2sAa3msoruznoSyz1wypYvoP/w/dxPTFfhID+LyhU+11xQO44b5MVxfeKW3W4V7avWPrEKf5Xly2m5hG4Dy3poZRxHRmMyM2qT289FGz8MfvEgL1XVifXGk7dlqhJHjWolqwtbcgndHv4UBIWriEz+OBhBvoixcb7YYFDTznRzRTOXzbszdU98x1NbHkEGt5gkgdvEsh5a0ahXYfLOg1mjUa+dAWCOsaAGbRigExwv/1Mbr2V9manV6WPWPPssMnbYQxK4fWwrzu66zHTTv+f5KI9z27Ybrh+gkxyveFMiSRzMdo694IVHsnTsUhax2ohD+LJScWi2CjOiRuPUsQofZCyoYRtW08muX7wxiSR2XL+YpVZEWcRqIycdRv/l+8Fa07/HruuCga+ajWrW+gFallQlzlIrolTgNrNjOX3dcdxJ01U4bNQ+Uh7nBcaCWjBViX9qdjFvFzLUiigVuM189HFshUMXmP74vOZjqdcaDWpB8564cGtSSdzprYiyiNWGehfQpZ7vb7XwGNol5QovMxbUkvWr6f1JJXGntyJKArenOgMXmt4fJccBEUYAFIwGtmD9anq/4xd+lkQSd3IrotwDt6neBbTW8/w/mT5iqWI1Z2ycrzMX1J71A3QC+YXEtpg6sRXRZgJ7RISk/oAcEBBY/PskjoFzTD+GlllDxer4coXPNhrYkg0DU1tMtutBh7Yi2ny52VIAJwEwe8h3N5jhANi8rp/a+ejgXitX+I9axQeaTmSlYuSCwim9PXSt0cCWLBnkMRVVT7Z67BIAyAEcd8Jxc0dsGKCH7Q42fXKZ2+bGKtyrtLqBDbccEhGiKESQL57U20M/NRrcksWDfCNHtZNMP5b3VcgBOd4Wcv33tHsSSwJ3gHKFn9QqfqPpKkxEiMIGgvysv+ldSFcbDW7JkkG+WUe145NIYjjuhOfl3n3bWfSo3cH2naxCdwAGTrWxkMPM8HMBwrB2VbnC/9f4ABasH6ATEtti6oBWREngDrC8h+50XXeT6UYHoJnErutBq/irY+PcEZfSSe4Tt3sroiRw5zjddNP/zri5xXTCT34TTpbHebG1gQyZ2iee8a2Icg/cQcrj/D0dx5+w8YbDFiKC1hq+n7tNM1YsX0iPWRvMgMVr+UYdV09KYnVaq6hanNX9Fzevov+0O9iekwTuLN1j4/yYiuO5NpMYaCZyHEXI5QvXMXDe8h76d6sDTkOiW0yg510//671A/SI3cH2jCRwhxmr8IejKLzWxv3wrhAR4jhCkC/cw4zvkoNblx3WPhWoJclKTI63xXH896xfnf4WkyRwBypX+Aqt4n7bVXhnrS8MFYVxUCw+5BJudx3cdcgb8dDBc+kpAFuQcgfaUf/EV3q6+lGyPY1WErv+X6ZdiSWBO5NfrvBDWsUH2b+Ubv6StAp+LQLqIRBGwGRDY8u2BkIUquz4tXqEurK8Pbs7zNCuC+c/n66+aXud4dj+zZ66nM7n8wvSvCf20hpYTEvkujiuXq096gcF4091JMKLCfBClfH8JOO/tjMmJhmRAhQDWrf+fz6I4iIQF9OuBioC3jiX8NQEYD2JWQPktFoR3wbgGYuj7Vban7mYhhvGeSnH8S0mqjBR8w8zMLGD8dRWjccnGLFu/pI4r6jE7YwIeGqC7ScxAJAD1dih7zz/DW9A8zYiUR3w4xCvpVzhM1QcXbav/34rISfrjMe3MB59TiNWgEtA853hnYkIeHqCsS2pJI5q4bFvnPe28z+JzZZHe/nQSQ4m7Bgb5/OjMPzS3qxMOwToqWr7hz9pPL2N4XV40r4SAXj6eca2WjJJzMzb/KDYk+TZ6az8rGa88iY+L47DNa+XxK3/+dnnNR56RmPLJOC7sP8LnqJnEkzipFsRM/xjm3nGxnlNFDbO29UZ4dY97tYdjN89pfHsdobrZDtxWwjA01uTu5xOshVxBvz4ZpZyhc+Ko3DQcRy0FrccB2hEwO+eVHh8gl+2yjxTJL2wlVQr4gz7Mc4MN1R4WX1yWznIF+EQ4+mtGvc9oRHGgDuD21eSTmJm3nb0G2YdanNhSxI4o3gz3nTTFv7lvX9oHPjHLRq+0xlbQLYRAc9sbd4TW/88yIGOalGha+6f/WwV/dHGEDP4+zjb6M3A9ZuAzVsZOVeSNx0MgP0wxnxbI8hJrAxacQUvC6sTZZ/rYJIXZLQkewlNUFGNvfy8wzeupoqtYaQCZ0xplM/UUbXs5YpIstmh3SWdvFpFkVuYd8TGs+0lLyAJnCmlUV4TNyYvaV4vS/K2EJqnspJL3jh0gznH3L6a/p/l0WQRKytKo3xe3Ki+7kGOmSi5gxxTlTeYc8zG1XS35dGaQyYxiLBr5QifH4fVL8lK1csle5Syec/rFuYdkUTlfXHYpAYSdqwY4TN0VNvnZoasSraZgaDDKtzC/IW273lfNXSSgwmzSlfwUhXXb5H73ZdLfMEqrMEpzjv09tX0W8ujvXr4pAcUZpR+yAeF259/1PXzkAR+SeJbRc3Ke9jtZ9P9lkfbJdkH7kwONDZ4uXwKW0XNrGg2/zNU3ICXm1V1PL9GQD3hybwo+UfqEFTcUF5h/hEbU0peQBK4I60c5cvjsH5wspWXQATEKoqDoOshALczcJeXKzw01NdOD7XDR5PaKvLy+x+zcTXdY3m0155KmoOLvVca4Q/GjR0/JsdNZDwigooj+PmuTQC+y4SfreubyY+Vbe3zdh+b1FbRa5EK3FlmA7yOXM/4g+xeqZW4uXzXdeTlzxvub/sHuyeSvCpuqKnK+yu7g+0ZSeAOUhrhS1Rcn2/3F5UA1nByhdvIy68Y6m//V6sklrxhFV5h/hFpXzbvTC6hO8SKUX5nXNt+v+Pa+84lcsCsq45f+OC6frrF2kCGLBnkm1RUPTGRy+awBqcwL7XV5t2RCtwhHMa/uJ5vb9WZCI4f3DzcRyfaGcCsJWv5Fh3VliaTvFU4xfmp7PO+Hmlm6AClK/hoFTcW2klegtYxXC//xY5K3ri2lNnyayBePB45f2E7Ji8gFbgjkIMrWVlIXiLoKIRf7P6b4T662vwA5i0Z5Jt1lEzyTrUEHmmzn3e6JIHbXGmEe1XUeIv5S0WCjkP4he6Thvvop4aDW7F4kG/UUe34ZJI3Dt1gzrEbE2xM2BfWErg0yksBnATA3mvld8IMB8Dmdf10cRLjJehStnA+QusIXqH7lE5J3iS3iqZaAttin/f1WEtgAo5SUf0ztuK/ekAHrpf7PYDMJPCKEf6EiuoHmj7gROTAD7rOGe6ja40GtmTJII+psHqy9YNeL7UEHtnulbfF5iV0lOj7a6HBQCOxARNAwD8aj0kOHD/42XAfGY9tw+LBqX3eBJJXN/d5rT7DyjS5B25TK0Z4lYpqB5iNSgDRjuE++pDZuHZMLVgdn9g+b3H+oRvbdLV5d2xuI8khkX2XJ+Ac0x8hs4bj5k4DUDUa2IKpfd5EFqxUWG0e0uiw5AVkH7gtlUb5cyqq7W/yspGI4AfFjcP99BNjQS1JdJ+32RL47nY7YbWnbCawdJnvg4tv5rk6Do1XXxVHUMBZRoNasGSQb0oqeadaAo/ceHb7nG3eW1KB28wjz2EVWHcZ/f4jgl/o+vG3+2jcXFDzphoTTkxun7f72HbpKtpXcg/cRj4FzI/j+irTazasFAhYbTaqWUsGeSypfl4VN5QbdCf26Feb5BK6jbgjvMYBFYzf++ZnXTvU175tgVOV9+TEWgKD/Y/o9MrbIpfQ7WNOWN36GdN75yqOMNRHnzIa1KDmPW9CJ6zCGtzC/MM6+Z73lWQfuE2sHOVvqqgBk/d/zerb9c8AXjAW1KAla/k2HdWXzPSWwOmQCtweDojqO/pNL96oOMRwP33BaFCDmHCVViGsLpd0QEvgdMgiVhsojfA/m37SBpEDv9B9Adr4eOmGAbrcDbr7Wcew8uuS4FsC0yKLWCk7Y5T/PG7s+KDZe19CFE7ycB9dYDCoFRtW06iX7z7NeBIn/JbAtEgFThkzLjVffQnBrLlfREKtnNO1foBGjFbiF1sC2+PRrzZJBU7RihF+VxROLjFdfclxtw730dcMBrVuw2oadYPujzGr6QWauud1gjlHZj15AVnEShUBl5l+QDsRgVzvK+iQ6ruzDavph06u6xTs62JeqyUwP+/wLF8270wSOCUrRvnouLHjL81uoRBcL3hyuI8uMRg0URtX07WU6/rIXq/I79wSmNEFq12Re+CUOMClZOcZz+cAsHyY2K6Nq+kaJ+g6tXk5vQe/Rh3eEjgdUoFTsGKET44akwuMVl8iuLn8w0P9NGIuaHo2DtBVbtDd97oLWxloCZwOWcRKgUO4wPS9L2sNML6IDq++O9swQFe+5hZTRloCp0MqcMJKo3xq3KgeZrr6+rni74f76cfmgraH9QM0ssskzlBL4HTIPXDSGF+BY/hj1xpKo22PTE7X+gEacfPdfcxx87/IWEvgdMgldIJKI9yvotpBpquvlys+8O3T6SZzQdvPhgG60gm6TwXr5lZRhloCp0MuoRMUh9VvgcxfmGiNzxkP2oY2DtBVTtDV5xbnv3em3vO+krQTJqQ0wmfouNFtul3Q9fN3DfXRHcaCtrkNA3Rl2nNoJ1KBExLWXrjUdLM+s4ZilIwGFR3FZgVO+MuBAMDs3owhpVE+V0cN13T1dfzCxuE+etBYUNFxrCUwA8+5ucITAOq2xtgZMTxmPJrEWHvJj+s7ziXH7EetVQTPzX/SaFDRcWxv9aSxldRWq98rR/mSOKqfaXLleere97qhDnlFirDH9iJWWyVTCvaPwlrJ7LcYIQ7rcL382UbDio4ki1gWlUb4HwmUMxmTiJCbtd8PhvrpEZNxRWeSBLbk0z/gt4a1F0pmL0IIcVgFa5xnMKjoYLIPbInr4ctAAKNbRwTkivt/bbifnjAXVHQyqcAWlK7gvwjr204z/agcMOpBFRcaDCo6nFRgGxx82fVyZqsvGF6ucMkln6DnDAYVHU46hgwrjfCfR/Vtv3Vc32BUAjnu9m//be4NSGhfXXQGuYQ271LXM7rwDABwXP9iSPKKV5AKbFBphN+pwur9ZjuOCCDs+M7HC10Gg4qMkApsEBG+a7pZf+rU1d8bDSoyQyqwIZ8e4aMQN35u9AVlRFBRPfz+p/cPzAUVWSIV2BCHMMwWTo7mCvt9zHhQkRlSgQ0oXcHLlKqXjT8qx88/MdRHbzUXVGSNVGADyMGQ8eKrNZDhB9UJM+QgxzSVRvm8OKy9yWhQIni5wn1DffQjo3FF5kgFnoYVI/zOqPrCGtNxWWvo5kPahXhNksDTQMBPXN/sAjERwQuKv1rXTzcbDSwySRJ4H5VG+SYdN95u+kF1SkVgxoDRoCKzJIH3QWmEB3XUONHoni8AECGX7/r5un76hdnAIqskgffSylG+SEXVs4wnLwBW8Yx5SLswQ1ah90JplC+Nw9rnrGyfE8HLz75luI/uMx9cZJUk8J5xS6Nc1lHjRFsDsIqhXXzeVnyRTZLAr6M0wguJUI6j+puNnrTaCRHBDWZfPdxPv7MygMgsOUr5Gkoj/LWovn2V4/mwlbytB9X9oDSvG8B2S4OIjJIKvAsrruDTWYffUHF9P8f1LCZvs/rmZ81dBUlesQ+kAu+kdAWvDOsvXOj5+a7m/q7d59I332+Uf2i4j95hdSCRWTO6ApdGuYsZRzqE02vbn/trrRpw/QA2tohejaDiEDknf3wCg4mMspbAK67k2cToYkr/9SpEYNIoaMYBIBzqMA4H4fD69i3v9vOznZgZfjA7ocRtYtbwC91nfquPHktsUJE51hLYYayqbXv2fHK82NYYe4yIXdf3yfFABMQAwIAXzEo0aV+ajgMvF9w01EffTHxwkSk2Xy/q+PlugNrkMn3qntbietQead73Bo8O9dFH0p2JyAJryUUAt/4jphBBaVVzgfcBmEx7OqLzyVnoBOk4gufPWjrUJ28WFGZIAifIy3UtWnca3ZX2PER22Exg2WMG0PoYXL/w4XWn07+mPBmRMe2xwJRVRNBxCC/oXjLcTxvSno7IHpsVeEYvXxERoHmHH3S/d91pkrzCDqnAFhARHC//MAhLh+WghrDIZgLPwHtgAljD9Qs3DPXTKQDCtGcksk0uoQ2h5nuM4OSKnx7qpw9AklckQC6hp41ap6v+8P2PF44F8GTaMxIzh+wDT0ez6mrygpXDfXQIJHlFwqQC7zUCqHmqKpfv+t53Pl44A3K5LFIiBzn2WPNSWatIuV5+NMh3HTTUT5+EJK9Ikc0KnIFFrOZ3EBHg+MEEmC4nJ3/JcD9tTnliQgCQbaRXo2YfFREhakwimD33DgBDw310M6SDSLSZGV+BiajZI0wAgRCHtXquuN8dIFztO8Gtw330TNpzFGJ3bDb0Nx9/0Q74xX80jzhOUSqC4+Ye94LgXta4WwMbv//xfAUd8uUjhM0KvMn189cg5UUeAsCMiAhPAFBMeMwFNl/2MXoYsu0jhBBCCCGEEEIIIYQQQgghhBBCCCGEEEIIIYQQQgghhBBCCCGEEEIIIYQQQgghhBBCCCGE6Dj/H+JNMpQvXWKMAAAAAElFTkSuQmCC;shadow=1;" vertex="1" parent="1">
          <mxGeometry x="830" y="310" width="70" height="70" as="geometry" />
        </mxCell>
        <mxCell id="gNoDSgEm0qHazXfeq4_1-146" value="BigQuery" style="sketch=0;html=1;verticalAlign=top;labelPosition=center;verticalLabelPosition=bottom;align=center;spacingTop=-6;fontSize=11;fontStyle=1;fontColor=#999999;shape=image;aspect=fixed;imageAspect=0;image=data:image/svg+xml,PHN2ZyB4bWxucz0iaHR0cDovL3d3dy53My5vcmcvMjAwMC9zdmciIHhtbG5zOnY9Imh0dHBzOi8vdmVjdGEuaW8vbmFubyIgd2lkdGg9IjIwLjAwMTA0NTIyNzA1MDc4IiBoZWlnaHQ9IjIwLjAwMTA0NTIyNzA1MDc4IiBmaWxsLXJ1bGU9ImV2ZW5vZGQiIHZpZXdCb3g9IjAgMCAyMC4wMDEwNDUyMjcwNTA3OCAyMC4wMDEwNDUyMjcwNTA3OCI+JiN4YTsJPHN0eWxlIHR5cGU9InRleHQvY3NzIj4mI3hhOwkuc3Qwe2ZpbGw6I2FlY2JmYTt9JiN4YTsJLnN0MXtmaWxsOiM2NjlkZjY7fSYjeGE7CS5zdDJ7ZmlsbDojNDI4NWY0O30mI3hhOwk8L3N0eWxlPiYjeGE7CTxwYXRoIGNsYXNzPSJzdDAiIGQ9Ik00LjczIDguODN2Mi42M2E0LjkxIDQuOTEgMCAwIDAgMS43MSAxLjc0VjguODN6Ii8+JiN4YTsJPHBhdGggY2xhc3M9InN0MSIgZD0iTTcuODkgNi40MXY3LjUzQTcuNjIgNy42MiAwIDAgMCA5IDE0YTggOCAwIDAgMCAxIDBWNi40MXoiLz4mI3hhOwk8cGF0aCBjbGFzcz0ic3QwIiBkPSJNMTEuNjQgOS44NnYzLjI5YTUgNSAwIDAgMCAxLjctMS44MlY5Ljg2eiIvPiYjeGE7CTxwYXRoIGNsYXNzPSJzdDIiIGQ9Ik0xNS43NCAxNC4zMmwtMS40MiAxLjQyYS40Mi40MiAwIDAgMCAwIC42bDMuNTQgMy41NGEuNDIuNDIgMCAwIDAgLjU5IDBsMS40My0xLjQzYS40Mi40MiAwIDAgMCAwLS41OWwtMy41NC0zLjU0YS40Mi40MiAwIDAgMC0uNiAwIi8+JiN4YTsJPHBhdGggY2xhc3M9InN0MSIgZD0iTTkgMGE5IDkgMCAxIDAgMCAxOEE5IDkgMCAxIDAgOSAwbTAgMTUuNjlhNi42OCA2LjY4IDAgMCAxIC4wMDctMTMuMzYgNi42OCA2LjY4IDAgMCAxIDQuNzI3IDExLjQwM0E2LjY4IDYuNjggMCAwIDEgOSAxNS42OSIvPiYjeGE7PC9zdmc+;" vertex="1" parent="1">
          <mxGeometry x="928.1" y="70" width="42" height="42" as="geometry" />
        </mxCell>
        <mxCell id="gNoDSgEm0qHazXfeq4_1-147" value="&lt;b&gt;&lt;font style=&quot;font-size: 24px;&quot;&gt;MARTS&lt;/font&gt;&lt;/b&gt;" style="whiteSpace=wrap;html=1;fillColor=#d5e8d4;strokeColor=#82b366;" vertex="1" parent="1">
          <mxGeometry x="900" y="160" width="120" height="400" as="geometry" />
        </mxCell>
        <mxCell id="gNoDSgEm0qHazXfeq4_1-148" value="" style="group" vertex="1" connectable="0" parent="1">
          <mxGeometry x="928.1" y="181" width="60.00000000000003" height="60" as="geometry" />
        </mxCell>
        <mxCell id="gNoDSgEm0qHazXfeq4_1-149" value="" style="whiteSpace=wrap;html=1;fillColor=#E1D5E7;" vertex="1" parent="gNoDSgEm0qHazXfeq4_1-148">
          <mxGeometry width="60" height="60" as="geometry" />
        </mxCell>
        <mxCell id="gNoDSgEm0qHazXfeq4_1-150" value="" style="group" vertex="1" connectable="0" parent="gNoDSgEm0qHazXfeq4_1-148">
          <mxGeometry x="9.200000000000017" y="10" width="41.60000000000002" height="40" as="geometry" />
        </mxCell>
        <mxCell id="gNoDSgEm0qHazXfeq4_1-151" value="" style="shape=image;verticalLabelPosition=bottom;labelBackgroundColor=default;verticalAlign=top;aspect=fixed;imageAspect=0;image=data:image/png,iVBORw0KGgoAAAANSUhEUgAAADYAAAAyCAYAAAAX1CjLAAABV2lDQ1BJQ0MgUHJvZmlsZQAAKJFtkE9LAlEUxY+l2R+LiJZGrsLFJKEGrQIzsEhonEwqWjSO0yiM0+s5EVIfon20a9O+IFy1a9MuKILW9QEECUqm+5xKrR5czo/DeZfLAXr6VcZML4CyZXMltRDa2NwK+V/RhwH4EERY1SosIctpiuBbu1/jAR6h99NiF3JHmZcLe/Jy/iqTG1mt/813vcGCXtFIP2giGuM24JGI5UObCT4mHud0FPGJYMPlc8F5l69bmaySJL4jHtWKaoH4mVjKd/hGB5fNA+3rBnF9QLfW10jHaIJII4UQlrAIhTSOFern/3y8lU9iDwxVcJRgoAibfiXIYTChEy/DgoYIJOIoZmhiouff/bW96iMwlyHYbnvZJ6AmA0OnbS88BQzvALezTOXqT6uehreyG4u6HOCA781x6hOAvwY0ueO8nzlOkzrspZ03+5+MAWDdKoYYuwAAAFZlWElmTU0AKgAAAAgAAYdpAAQAAAABAAAAGgAAAAAAA5KGAAcAAAASAAAARKACAAQAAAABAAAANqADAAQAAAABAAAAMgAAAABBU0NJSQAAAFNjcmVlbnNob3SLWX11AAAB1GlUWHRYTUw6Y29tLmFkb2JlLnhtcAAAAAAAPHg6eG1wbWV0YSB4bWxuczp4PSJhZG9iZTpuczptZXRhLyIgeDp4bXB0az0iWE1QIENvcmUgNi4wLjAiPgogICA8cmRmOlJERiB4bWxuczpyZGY9Imh0dHA6Ly93d3cudzMub3JnLzE5OTkvMDIvMjItcmRmLXN5bnRheC1ucyMiPgogICAgICA8cmRmOkRlc2NyaXB0aW9uIHJkZjphYm91dD0iIgogICAgICAgICAgICB4bWxuczpleGlmPSJodHRwOi8vbnMuYWRvYmUuY29tL2V4aWYvMS4wLyI+CiAgICAgICAgIDxleGlmOlBpeGVsWURpbWVuc2lvbj41MDwvZXhpZjpQaXhlbFlEaW1lbnNpb24+CiAgICAgICAgIDxleGlmOlBpeGVsWERpbWVuc2lvbj41NDwvZXhpZjpQaXhlbFhEaW1lbnNpb24+CiAgICAgICAgIDxleGlmOlVzZXJDb21tZW50PlNjcmVlbnNob3Q8L2V4aWY6VXNlckNvbW1lbnQ+CiAgICAgIDwvcmRmOkRlc2NyaXB0aW9uPgogICA8L3JkZjpSREY+CjwveDp4bXBtZXRhPgoow1cUAAADiUlEQVRoBe2a/04iMRDHi6DyBGjirxcgEKLv4DMb4xtooigPgEiC8jfG33d+yDXXdmd1Riu33t0kzbbdbzvz2cLsYKz9eDWXGFMvLy9OuJUo/+ywVqu5paUlxzW1RjrBGCja8/OzdLsyc/V6fR6Lv4aBiWCcFFBPT0+htpJ96bQIVAS7vr52V1dX81ZJml9BbW5uOtrGxkYhTBFsMpm409NTd3JyUlhQpYnd3V3XaDRsYGdnZ+7g4KBKHIVYgOLEJBNPTBIyx+fZtzLNV8zznfdNu78ZjPQqZSGtw4/oSGTW148ZDKhFg/EwrO9UE9j6+vr8iyploY+chHbNeDx2vmnXmMF6vZ4jGy3SyM58HIHTmhms2+26/f197f5ZdBQKvFctZgIr29iXYFxDI9H4Fs5b9eFabT8bGE81rS1JMrxrgAsNMIs+XKvtZwMD6uHhIfK7srJSgEIAmEUfbaocZAGjthyNRoXvAVXB1tbWvIXxWPXhWm0/G1i/33fHx8eR3729PcepARcaYBZ9uFbbzwp2eHgY+ZWgEHgwrT7aVDnIAubLrOXl5cgtySNNHAis+mhT5eA/2FsPioqftJ6eGHPSL1yr/i3fZfeynNja2prrdDoFH8xxLzWrPl2vGWcBozjG/NU7BiCdC3XpvTK9389yzQJGQDStWfXafUNdFjCqCF9NhJv7rJj+frPqwz21/SxgQFFOPT4+Rn5JJrzLUjCrPtpUOcgCxgkAdXd3V3ALVJotrfrCpoqJLGA3NzduOBy6y8vLyOX29rbb2dlxXEOz6sO12n4WMEqk8/NzsVZsNpsFMKteCxPqsoBxAhcXF+7o6Cjc2wHFiaVm1afrNeMsYNR+VBkkitCkH5nct+rDPbX9rGCrq6uR3/fAtPpoU+UgCxiZr+zE0lRPXFa9kiWSZQFrtVqltSL3UrPq0/WacRYwSiQK3rT2A0Aqtax6DUiqyQYmAaTO/BitRe/XWa4mMP5kdn9/725vby0+Pq3FJ74tZgKjFMLJbDaz+Pi0Fp/4tpgJjKdGsbvoE8Pnl57YdDp1g8HA8uCyaPGJb4uZTsyXQtR6izSg8G0xExgOrE/OEkxOrQjmf0NRxFbZ+J0nVTbE/G+BUX1TqVf9xIiRWCUTT4xSqN1uS/pKzRGjVIsSpAjmyx1/rRRNEExZLYqk9vpvBoV/6wvWftuu/AH9tji/A/9rwX4CoNKbBezrnxIAAAAASUVORK5CYII=;" vertex="1" parent="gNoDSgEm0qHazXfeq4_1-150">
          <mxGeometry width="21.6" height="20" as="geometry" />
        </mxCell>
        <mxCell id="gNoDSgEm0qHazXfeq4_1-152" value="" style="shape=image;verticalLabelPosition=bottom;labelBackgroundColor=default;verticalAlign=top;aspect=fixed;imageAspect=0;image=data:image/png,iVBORw0KGgoAAAANSUhEUgAAADYAAAAyCAYAAAAX1CjLAAABV2lDQ1BJQ0MgUHJvZmlsZQAAKJFtkE9LAlEUxY+l2R+LiJZGrsLFJKEGrQIzsEhonEwqWjSO0yiM0+s5EVIfon20a9O+IFy1a9MuKILW9QEECUqm+5xKrR5czo/DeZfLAXr6VcZML4CyZXMltRDa2NwK+V/RhwH4EERY1SosIctpiuBbu1/jAR6h99NiF3JHmZcLe/Jy/iqTG1mt/813vcGCXtFIP2giGuM24JGI5UObCT4mHud0FPGJYMPlc8F5l69bmaySJL4jHtWKaoH4mVjKd/hGB5fNA+3rBnF9QLfW10jHaIJII4UQlrAIhTSOFern/3y8lU9iDwxVcJRgoAibfiXIYTChEy/DgoYIJOIoZmhiouff/bW96iMwlyHYbnvZJ6AmA0OnbS88BQzvALezTOXqT6uehreyG4u6HOCA781x6hOAvwY0ueO8nzlOkzrspZ03+5+MAWDdKoYYuwAAAFZlWElmTU0AKgAAAAgAAYdpAAQAAAABAAAAGgAAAAAAA5KGAAcAAAASAAAARKACAAQAAAABAAAANqADAAQAAAABAAAAMgAAAABBU0NJSQAAAFNjcmVlbnNob3SLWX11AAAB1GlUWHRYTUw6Y29tLmFkb2JlLnhtcAAAAAAAPHg6eG1wbWV0YSB4bWxuczp4PSJhZG9iZTpuczptZXRhLyIgeDp4bXB0az0iWE1QIENvcmUgNi4wLjAiPgogICA8cmRmOlJERiB4bWxuczpyZGY9Imh0dHA6Ly93d3cudzMub3JnLzE5OTkvMDIvMjItcmRmLXN5bnRheC1ucyMiPgogICAgICA8cmRmOkRlc2NyaXB0aW9uIHJkZjphYm91dD0iIgogICAgICAgICAgICB4bWxuczpleGlmPSJodHRwOi8vbnMuYWRvYmUuY29tL2V4aWYvMS4wLyI+CiAgICAgICAgIDxleGlmOlBpeGVsWURpbWVuc2lvbj41MDwvZXhpZjpQaXhlbFlEaW1lbnNpb24+CiAgICAgICAgIDxleGlmOlBpeGVsWERpbWVuc2lvbj41NDwvZXhpZjpQaXhlbFhEaW1lbnNpb24+CiAgICAgICAgIDxleGlmOlVzZXJDb21tZW50PlNjcmVlbnNob3Q8L2V4aWY6VXNlckNvbW1lbnQ+CiAgICAgIDwvcmRmOkRlc2NyaXB0aW9uPgogICA8L3JkZjpSREY+CjwveDp4bXBtZXRhPgoow1cUAAADiUlEQVRoBe2a/04iMRDHi6DyBGjirxcgEKLv4DMb4xtooigPgEiC8jfG33d+yDXXdmd1Riu33t0kzbbdbzvz2cLsYKz9eDWXGFMvLy9OuJUo/+ywVqu5paUlxzW1RjrBGCja8/OzdLsyc/V6fR6Lv4aBiWCcFFBPT0+htpJ96bQIVAS7vr52V1dX81ZJml9BbW5uOtrGxkYhTBFsMpm409NTd3JyUlhQpYnd3V3XaDRsYGdnZ+7g4KBKHIVYgOLEJBNPTBIyx+fZtzLNV8zznfdNu78ZjPQqZSGtw4/oSGTW148ZDKhFg/EwrO9UE9j6+vr8iyploY+chHbNeDx2vmnXmMF6vZ4jGy3SyM58HIHTmhms2+26/f197f5ZdBQKvFctZgIr29iXYFxDI9H4Fs5b9eFabT8bGE81rS1JMrxrgAsNMIs+XKvtZwMD6uHhIfK7srJSgEIAmEUfbaocZAGjthyNRoXvAVXB1tbWvIXxWPXhWm0/G1i/33fHx8eR3729PcepARcaYBZ9uFbbzwp2eHgY+ZWgEHgwrT7aVDnIAubLrOXl5cgtySNNHAis+mhT5eA/2FsPioqftJ6eGHPSL1yr/i3fZfeynNja2prrdDoFH8xxLzWrPl2vGWcBozjG/NU7BiCdC3XpvTK9389yzQJGQDStWfXafUNdFjCqCF9NhJv7rJj+frPqwz21/SxgQFFOPT4+Rn5JJrzLUjCrPtpUOcgCxgkAdXd3V3ALVJotrfrCpoqJLGA3NzduOBy6y8vLyOX29rbb2dlxXEOz6sO12n4WMEqk8/NzsVZsNpsFMKteCxPqsoBxAhcXF+7o6Cjc2wHFiaVm1afrNeMsYNR+VBkkitCkH5nct+rDPbX9rGCrq6uR3/fAtPpoU+UgCxiZr+zE0lRPXFa9kiWSZQFrtVqltSL3UrPq0/WacRYwSiQK3rT2A0Aqtax6DUiqyQYmAaTO/BitRe/XWa4mMP5kdn9/725vby0+Pq3FJ74tZgKjFMLJbDaz+Pi0Fp/4tpgJjKdGsbvoE8Pnl57YdDp1g8HA8uCyaPGJb4uZTsyXQtR6izSg8G0xExgOrE/OEkxOrQjmf0NRxFbZ+J0nVTbE/G+BUX1TqVf9xIiRWCUTT4xSqN1uS/pKzRGjVIsSpAjmyx1/rRRNEExZLYqk9vpvBoV/6wvWftuu/AH9tji/A/9rwX4CoNKbBezrnxIAAAAASUVORK5CYII=;" vertex="1" parent="gNoDSgEm0qHazXfeq4_1-150">
          <mxGeometry x="10" y="10" width="21.6" height="20" as="geometry" />
        </mxCell>
        <mxCell id="gNoDSgEm0qHazXfeq4_1-153" value="" style="shape=image;verticalLabelPosition=bottom;labelBackgroundColor=default;verticalAlign=top;aspect=fixed;imageAspect=0;image=data:image/png,iVBORw0KGgoAAAANSUhEUgAAADYAAAAyCAYAAAAX1CjLAAABV2lDQ1BJQ0MgUHJvZmlsZQAAKJFtkE9LAlEUxY+l2R+LiJZGrsLFJKEGrQIzsEhonEwqWjSO0yiM0+s5EVIfon20a9O+IFy1a9MuKILW9QEECUqm+5xKrR5czo/DeZfLAXr6VcZML4CyZXMltRDa2NwK+V/RhwH4EERY1SosIctpiuBbu1/jAR6h99NiF3JHmZcLe/Jy/iqTG1mt/813vcGCXtFIP2giGuM24JGI5UObCT4mHud0FPGJYMPlc8F5l69bmaySJL4jHtWKaoH4mVjKd/hGB5fNA+3rBnF9QLfW10jHaIJII4UQlrAIhTSOFern/3y8lU9iDwxVcJRgoAibfiXIYTChEy/DgoYIJOIoZmhiouff/bW96iMwlyHYbnvZJ6AmA0OnbS88BQzvALezTOXqT6uehreyG4u6HOCA781x6hOAvwY0ueO8nzlOkzrspZ03+5+MAWDdKoYYuwAAAFZlWElmTU0AKgAAAAgAAYdpAAQAAAABAAAAGgAAAAAAA5KGAAcAAAASAAAARKACAAQAAAABAAAANqADAAQAAAABAAAAMgAAAABBU0NJSQAAAFNjcmVlbnNob3SLWX11AAAB1GlUWHRYTUw6Y29tLmFkb2JlLnhtcAAAAAAAPHg6eG1wbWV0YSB4bWxuczp4PSJhZG9iZTpuczptZXRhLyIgeDp4bXB0az0iWE1QIENvcmUgNi4wLjAiPgogICA8cmRmOlJERiB4bWxuczpyZGY9Imh0dHA6Ly93d3cudzMub3JnLzE5OTkvMDIvMjItcmRmLXN5bnRheC1ucyMiPgogICAgICA8cmRmOkRlc2NyaXB0aW9uIHJkZjphYm91dD0iIgogICAgICAgICAgICB4bWxuczpleGlmPSJodHRwOi8vbnMuYWRvYmUuY29tL2V4aWYvMS4wLyI+CiAgICAgICAgIDxleGlmOlBpeGVsWURpbWVuc2lvbj41MDwvZXhpZjpQaXhlbFlEaW1lbnNpb24+CiAgICAgICAgIDxleGlmOlBpeGVsWERpbWVuc2lvbj41NDwvZXhpZjpQaXhlbFhEaW1lbnNpb24+CiAgICAgICAgIDxleGlmOlVzZXJDb21tZW50PlNjcmVlbnNob3Q8L2V4aWY6VXNlckNvbW1lbnQ+CiAgICAgIDwvcmRmOkRlc2NyaXB0aW9uPgogICA8L3JkZjpSREY+CjwveDp4bXBtZXRhPgoow1cUAAADiUlEQVRoBe2a/04iMRDHi6DyBGjirxcgEKLv4DMb4xtooigPgEiC8jfG33d+yDXXdmd1Riu33t0kzbbdbzvz2cLsYKz9eDWXGFMvLy9OuJUo/+ywVqu5paUlxzW1RjrBGCja8/OzdLsyc/V6fR6Lv4aBiWCcFFBPT0+htpJ96bQIVAS7vr52V1dX81ZJml9BbW5uOtrGxkYhTBFsMpm409NTd3JyUlhQpYnd3V3XaDRsYGdnZ+7g4KBKHIVYgOLEJBNPTBIyx+fZtzLNV8zznfdNu78ZjPQqZSGtw4/oSGTW148ZDKhFg/EwrO9UE9j6+vr8iyploY+chHbNeDx2vmnXmMF6vZ4jGy3SyM58HIHTmhms2+26/f197f5ZdBQKvFctZgIr29iXYFxDI9H4Fs5b9eFabT8bGE81rS1JMrxrgAsNMIs+XKvtZwMD6uHhIfK7srJSgEIAmEUfbaocZAGjthyNRoXvAVXB1tbWvIXxWPXhWm0/G1i/33fHx8eR3729PcepARcaYBZ9uFbbzwp2eHgY+ZWgEHgwrT7aVDnIAubLrOXl5cgtySNNHAis+mhT5eA/2FsPioqftJ6eGHPSL1yr/i3fZfeynNja2prrdDoFH8xxLzWrPl2vGWcBozjG/NU7BiCdC3XpvTK9389yzQJGQDStWfXafUNdFjCqCF9NhJv7rJj+frPqwz21/SxgQFFOPT4+Rn5JJrzLUjCrPtpUOcgCxgkAdXd3V3ALVJotrfrCpoqJLGA3NzduOBy6y8vLyOX29rbb2dlxXEOz6sO12n4WMEqk8/NzsVZsNpsFMKteCxPqsoBxAhcXF+7o6Cjc2wHFiaVm1afrNeMsYNR+VBkkitCkH5nct+rDPbX9rGCrq6uR3/fAtPpoU+UgCxiZr+zE0lRPXFa9kiWSZQFrtVqltSL3UrPq0/WacRYwSiQK3rT2A0Aqtax6DUiqyQYmAaTO/BitRe/XWa4mMP5kdn9/725vby0+Pq3FJ74tZgKjFMLJbDaz+Pi0Fp/4tpgJjKdGsbvoE8Pnl57YdDp1g8HA8uCyaPGJb4uZTsyXQtR6izSg8G0xExgOrE/OEkxOrQjmf0NRxFbZ+J0nVTbE/G+BUX1TqVf9xIiRWCUTT4xSqN1uS/pKzRGjVIsSpAjmyx1/rRRNEExZLYqk9vpvBoV/6wvWftuu/AH9tji/A/9rwX4CoNKbBezrnxIAAAAASUVORK5CYII=;" vertex="1" parent="gNoDSgEm0qHazXfeq4_1-150">
          <mxGeometry x="20" y="20" width="21.6" height="20" as="geometry" />
        </mxCell>
        <mxCell id="gNoDSgEm0qHazXfeq4_1-154" value="" style="group" vertex="1" connectable="0" parent="1">
          <mxGeometry x="928.1" y="380" width="60.00000000000003" height="60" as="geometry" />
        </mxCell>
        <mxCell id="gNoDSgEm0qHazXfeq4_1-155" value="" style="whiteSpace=wrap;html=1;fillColor=#E1D5E7;" vertex="1" parent="gNoDSgEm0qHazXfeq4_1-154">
          <mxGeometry width="60" height="60" as="geometry" />
        </mxCell>
        <mxCell id="gNoDSgEm0qHazXfeq4_1-156" value="" style="group" vertex="1" connectable="0" parent="gNoDSgEm0qHazXfeq4_1-154">
          <mxGeometry x="9.200000000000017" y="10" width="41.60000000000002" height="40" as="geometry" />
        </mxCell>
        <mxCell id="gNoDSgEm0qHazXfeq4_1-157" value="" style="shape=image;verticalLabelPosition=bottom;labelBackgroundColor=default;verticalAlign=top;aspect=fixed;imageAspect=0;image=data:image/png,iVBORw0KGgoAAAANSUhEUgAAADYAAAAyCAYAAAAX1CjLAAABV2lDQ1BJQ0MgUHJvZmlsZQAAKJFtkE9LAlEUxY+l2R+LiJZGrsLFJKEGrQIzsEhonEwqWjSO0yiM0+s5EVIfon20a9O+IFy1a9MuKILW9QEECUqm+5xKrR5czo/DeZfLAXr6VcZML4CyZXMltRDa2NwK+V/RhwH4EERY1SosIctpiuBbu1/jAR6h99NiF3JHmZcLe/Jy/iqTG1mt/813vcGCXtFIP2giGuM24JGI5UObCT4mHud0FPGJYMPlc8F5l69bmaySJL4jHtWKaoH4mVjKd/hGB5fNA+3rBnF9QLfW10jHaIJII4UQlrAIhTSOFern/3y8lU9iDwxVcJRgoAibfiXIYTChEy/DgoYIJOIoZmhiouff/bW96iMwlyHYbnvZJ6AmA0OnbS88BQzvALezTOXqT6uehreyG4u6HOCA781x6hOAvwY0ueO8nzlOkzrspZ03+5+MAWDdKoYYuwAAAFZlWElmTU0AKgAAAAgAAYdpAAQAAAABAAAAGgAAAAAAA5KGAAcAAAASAAAARKACAAQAAAABAAAANqADAAQAAAABAAAAMgAAAABBU0NJSQAAAFNjcmVlbnNob3SLWX11AAAB1GlUWHRYTUw6Y29tLmFkb2JlLnhtcAAAAAAAPHg6eG1wbWV0YSB4bWxuczp4PSJhZG9iZTpuczptZXRhLyIgeDp4bXB0az0iWE1QIENvcmUgNi4wLjAiPgogICA8cmRmOlJERiB4bWxuczpyZGY9Imh0dHA6Ly93d3cudzMub3JnLzE5OTkvMDIvMjItcmRmLXN5bnRheC1ucyMiPgogICAgICA8cmRmOkRlc2NyaXB0aW9uIHJkZjphYm91dD0iIgogICAgICAgICAgICB4bWxuczpleGlmPSJodHRwOi8vbnMuYWRvYmUuY29tL2V4aWYvMS4wLyI+CiAgICAgICAgIDxleGlmOlBpeGVsWURpbWVuc2lvbj41MDwvZXhpZjpQaXhlbFlEaW1lbnNpb24+CiAgICAgICAgIDxleGlmOlBpeGVsWERpbWVuc2lvbj41NDwvZXhpZjpQaXhlbFhEaW1lbnNpb24+CiAgICAgICAgIDxleGlmOlVzZXJDb21tZW50PlNjcmVlbnNob3Q8L2V4aWY6VXNlckNvbW1lbnQ+CiAgICAgIDwvcmRmOkRlc2NyaXB0aW9uPgogICA8L3JkZjpSREY+CjwveDp4bXBtZXRhPgoow1cUAAADiUlEQVRoBe2a/04iMRDHi6DyBGjirxcgEKLv4DMb4xtooigPgEiC8jfG33d+yDXXdmd1Riu33t0kzbbdbzvz2cLsYKz9eDWXGFMvLy9OuJUo/+ywVqu5paUlxzW1RjrBGCja8/OzdLsyc/V6fR6Lv4aBiWCcFFBPT0+htpJ96bQIVAS7vr52V1dX81ZJml9BbW5uOtrGxkYhTBFsMpm409NTd3JyUlhQpYnd3V3XaDRsYGdnZ+7g4KBKHIVYgOLEJBNPTBIyx+fZtzLNV8zznfdNu78ZjPQqZSGtw4/oSGTW148ZDKhFg/EwrO9UE9j6+vr8iyploY+chHbNeDx2vmnXmMF6vZ4jGy3SyM58HIHTmhms2+26/f197f5ZdBQKvFctZgIr29iXYFxDI9H4Fs5b9eFabT8bGE81rS1JMrxrgAsNMIs+XKvtZwMD6uHhIfK7srJSgEIAmEUfbaocZAGjthyNRoXvAVXB1tbWvIXxWPXhWm0/G1i/33fHx8eR3729PcepARcaYBZ9uFbbzwp2eHgY+ZWgEHgwrT7aVDnIAubLrOXl5cgtySNNHAis+mhT5eA/2FsPioqftJ6eGHPSL1yr/i3fZfeynNja2prrdDoFH8xxLzWrPl2vGWcBozjG/NU7BiCdC3XpvTK9389yzQJGQDStWfXafUNdFjCqCF9NhJv7rJj+frPqwz21/SxgQFFOPT4+Rn5JJrzLUjCrPtpUOcgCxgkAdXd3V3ALVJotrfrCpoqJLGA3NzduOBy6y8vLyOX29rbb2dlxXEOz6sO12n4WMEqk8/NzsVZsNpsFMKteCxPqsoBxAhcXF+7o6Cjc2wHFiaVm1afrNeMsYNR+VBkkitCkH5nct+rDPbX9rGCrq6uR3/fAtPpoU+UgCxiZr+zE0lRPXFa9kiWSZQFrtVqltSL3UrPq0/WacRYwSiQK3rT2A0Aqtax6DUiqyQYmAaTO/BitRe/XWa4mMP5kdn9/725vby0+Pq3FJ74tZgKjFMLJbDaz+Pi0Fp/4tpgJjKdGsbvoE8Pnl57YdDp1g8HA8uCyaPGJb4uZTsyXQtR6izSg8G0xExgOrE/OEkxOrQjmf0NRxFbZ+J0nVTbE/G+BUX1TqVf9xIiRWCUTT4xSqN1uS/pKzRGjVIsSpAjmyx1/rRRNEExZLYqk9vpvBoV/6wvWftuu/AH9tji/A/9rwX4CoNKbBezrnxIAAAAASUVORK5CYII=;" vertex="1" parent="gNoDSgEm0qHazXfeq4_1-156">
          <mxGeometry width="21.6" height="20" as="geometry" />
        </mxCell>
        <mxCell id="gNoDSgEm0qHazXfeq4_1-158" value="" style="shape=image;verticalLabelPosition=bottom;labelBackgroundColor=default;verticalAlign=top;aspect=fixed;imageAspect=0;image=data:image/png,iVBORw0KGgoAAAANSUhEUgAAADYAAAAyCAYAAAAX1CjLAAABV2lDQ1BJQ0MgUHJvZmlsZQAAKJFtkE9LAlEUxY+l2R+LiJZGrsLFJKEGrQIzsEhonEwqWjSO0yiM0+s5EVIfon20a9O+IFy1a9MuKILW9QEECUqm+5xKrR5czo/DeZfLAXr6VcZML4CyZXMltRDa2NwK+V/RhwH4EERY1SosIctpiuBbu1/jAR6h99NiF3JHmZcLe/Jy/iqTG1mt/813vcGCXtFIP2giGuM24JGI5UObCT4mHud0FPGJYMPlc8F5l69bmaySJL4jHtWKaoH4mVjKd/hGB5fNA+3rBnF9QLfW10jHaIJII4UQlrAIhTSOFern/3y8lU9iDwxVcJRgoAibfiXIYTChEy/DgoYIJOIoZmhiouff/bW96iMwlyHYbnvZJ6AmA0OnbS88BQzvALezTOXqT6uehreyG4u6HOCA781x6hOAvwY0ueO8nzlOkzrspZ03+5+MAWDdKoYYuwAAAFZlWElmTU0AKgAAAAgAAYdpAAQAAAABAAAAGgAAAAAAA5KGAAcAAAASAAAARKACAAQAAAABAAAANqADAAQAAAABAAAAMgAAAABBU0NJSQAAAFNjcmVlbnNob3SLWX11AAAB1GlUWHRYTUw6Y29tLmFkb2JlLnhtcAAAAAAAPHg6eG1wbWV0YSB4bWxuczp4PSJhZG9iZTpuczptZXRhLyIgeDp4bXB0az0iWE1QIENvcmUgNi4wLjAiPgogICA8cmRmOlJERiB4bWxuczpyZGY9Imh0dHA6Ly93d3cudzMub3JnLzE5OTkvMDIvMjItcmRmLXN5bnRheC1ucyMiPgogICAgICA8cmRmOkRlc2NyaXB0aW9uIHJkZjphYm91dD0iIgogICAgICAgICAgICB4bWxuczpleGlmPSJodHRwOi8vbnMuYWRvYmUuY29tL2V4aWYvMS4wLyI+CiAgICAgICAgIDxleGlmOlBpeGVsWURpbWVuc2lvbj41MDwvZXhpZjpQaXhlbFlEaW1lbnNpb24+CiAgICAgICAgIDxleGlmOlBpeGVsWERpbWVuc2lvbj41NDwvZXhpZjpQaXhlbFhEaW1lbnNpb24+CiAgICAgICAgIDxleGlmOlVzZXJDb21tZW50PlNjcmVlbnNob3Q8L2V4aWY6VXNlckNvbW1lbnQ+CiAgICAgIDwvcmRmOkRlc2NyaXB0aW9uPgogICA8L3JkZjpSREY+CjwveDp4bXBtZXRhPgoow1cUAAADiUlEQVRoBe2a/04iMRDHi6DyBGjirxcgEKLv4DMb4xtooigPgEiC8jfG33d+yDXXdmd1Riu33t0kzbbdbzvz2cLsYKz9eDWXGFMvLy9OuJUo/+ywVqu5paUlxzW1RjrBGCja8/OzdLsyc/V6fR6Lv4aBiWCcFFBPT0+htpJ96bQIVAS7vr52V1dX81ZJml9BbW5uOtrGxkYhTBFsMpm409NTd3JyUlhQpYnd3V3XaDRsYGdnZ+7g4KBKHIVYgOLEJBNPTBIyx+fZtzLNV8zznfdNu78ZjPQqZSGtw4/oSGTW148ZDKhFg/EwrO9UE9j6+vr8iyploY+chHbNeDx2vmnXmMF6vZ4jGy3SyM58HIHTmhms2+26/f197f5ZdBQKvFctZgIr29iXYFxDI9H4Fs5b9eFabT8bGE81rS1JMrxrgAsNMIs+XKvtZwMD6uHhIfK7srJSgEIAmEUfbaocZAGjthyNRoXvAVXB1tbWvIXxWPXhWm0/G1i/33fHx8eR3729PcepARcaYBZ9uFbbzwp2eHgY+ZWgEHgwrT7aVDnIAubLrOXl5cgtySNNHAis+mhT5eA/2FsPioqftJ6eGHPSL1yr/i3fZfeynNja2prrdDoFH8xxLzWrPl2vGWcBozjG/NU7BiCdC3XpvTK9389yzQJGQDStWfXafUNdFjCqCF9NhJv7rJj+frPqwz21/SxgQFFOPT4+Rn5JJrzLUjCrPtpUOcgCxgkAdXd3V3ALVJotrfrCpoqJLGA3NzduOBy6y8vLyOX29rbb2dlxXEOz6sO12n4WMEqk8/NzsVZsNpsFMKteCxPqsoBxAhcXF+7o6Cjc2wHFiaVm1afrNeMsYNR+VBkkitCkH5nct+rDPbX9rGCrq6uR3/fAtPpoU+UgCxiZr+zE0lRPXFa9kiWSZQFrtVqltSL3UrPq0/WacRYwSiQK3rT2A0Aqtax6DUiqyQYmAaTO/BitRe/XWa4mMP5kdn9/725vby0+Pq3FJ74tZgKjFMLJbDaz+Pi0Fp/4tpgJjKdGsbvoE8Pnl57YdDp1g8HA8uCyaPGJb4uZTsyXQtR6izSg8G0xExgOrE/OEkxOrQjmf0NRxFbZ+J0nVTbE/G+BUX1TqVf9xIiRWCUTT4xSqN1uS/pKzRGjVIsSpAjmyx1/rRRNEExZLYqk9vpvBoV/6wvWftuu/AH9tji/A/9rwX4CoNKbBezrnxIAAAAASUVORK5CYII=;" vertex="1" parent="gNoDSgEm0qHazXfeq4_1-156">
          <mxGeometry x="10" y="10" width="21.6" height="20" as="geometry" />
        </mxCell>
        <mxCell id="gNoDSgEm0qHazXfeq4_1-159" value="" style="shape=image;verticalLabelPosition=bottom;labelBackgroundColor=default;verticalAlign=top;aspect=fixed;imageAspect=0;image=data:image/png,iVBORw0KGgoAAAANSUhEUgAAADYAAAAyCAYAAAAX1CjLAAABV2lDQ1BJQ0MgUHJvZmlsZQAAKJFtkE9LAlEUxY+l2R+LiJZGrsLFJKEGrQIzsEhonEwqWjSO0yiM0+s5EVIfon20a9O+IFy1a9MuKILW9QEECUqm+5xKrR5czo/DeZfLAXr6VcZML4CyZXMltRDa2NwK+V/RhwH4EERY1SosIctpiuBbu1/jAR6h99NiF3JHmZcLe/Jy/iqTG1mt/813vcGCXtFIP2giGuM24JGI5UObCT4mHud0FPGJYMPlc8F5l69bmaySJL4jHtWKaoH4mVjKd/hGB5fNA+3rBnF9QLfW10jHaIJII4UQlrAIhTSOFern/3y8lU9iDwxVcJRgoAibfiXIYTChEy/DgoYIJOIoZmhiouff/bW96iMwlyHYbnvZJ6AmA0OnbS88BQzvALezTOXqT6uehreyG4u6HOCA781x6hOAvwY0ueO8nzlOkzrspZ03+5+MAWDdKoYYuwAAAFZlWElmTU0AKgAAAAgAAYdpAAQAAAABAAAAGgAAAAAAA5KGAAcAAAASAAAARKACAAQAAAABAAAANqADAAQAAAABAAAAMgAAAABBU0NJSQAAAFNjcmVlbnNob3SLWX11AAAB1GlUWHRYTUw6Y29tLmFkb2JlLnhtcAAAAAAAPHg6eG1wbWV0YSB4bWxuczp4PSJhZG9iZTpuczptZXRhLyIgeDp4bXB0az0iWE1QIENvcmUgNi4wLjAiPgogICA8cmRmOlJERiB4bWxuczpyZGY9Imh0dHA6Ly93d3cudzMub3JnLzE5OTkvMDIvMjItcmRmLXN5bnRheC1ucyMiPgogICAgICA8cmRmOkRlc2NyaXB0aW9uIHJkZjphYm91dD0iIgogICAgICAgICAgICB4bWxuczpleGlmPSJodHRwOi8vbnMuYWRvYmUuY29tL2V4aWYvMS4wLyI+CiAgICAgICAgIDxleGlmOlBpeGVsWURpbWVuc2lvbj41MDwvZXhpZjpQaXhlbFlEaW1lbnNpb24+CiAgICAgICAgIDxleGlmOlBpeGVsWERpbWVuc2lvbj41NDwvZXhpZjpQaXhlbFhEaW1lbnNpb24+CiAgICAgICAgIDxleGlmOlVzZXJDb21tZW50PlNjcmVlbnNob3Q8L2V4aWY6VXNlckNvbW1lbnQ+CiAgICAgIDwvcmRmOkRlc2NyaXB0aW9uPgogICA8L3JkZjpSREY+CjwveDp4bXBtZXRhPgoow1cUAAADiUlEQVRoBe2a/04iMRDHi6DyBGjirxcgEKLv4DMb4xtooigPgEiC8jfG33d+yDXXdmd1Riu33t0kzbbdbzvz2cLsYKz9eDWXGFMvLy9OuJUo/+ywVqu5paUlxzW1RjrBGCja8/OzdLsyc/V6fR6Lv4aBiWCcFFBPT0+htpJ96bQIVAS7vr52V1dX81ZJml9BbW5uOtrGxkYhTBFsMpm409NTd3JyUlhQpYnd3V3XaDRsYGdnZ+7g4KBKHIVYgOLEJBNPTBIyx+fZtzLNV8zznfdNu78ZjPQqZSGtw4/oSGTW148ZDKhFg/EwrO9UE9j6+vr8iyploY+chHbNeDx2vmnXmMF6vZ4jGy3SyM58HIHTmhms2+26/f197f5ZdBQKvFctZgIr29iXYFxDI9H4Fs5b9eFabT8bGE81rS1JMrxrgAsNMIs+XKvtZwMD6uHhIfK7srJSgEIAmEUfbaocZAGjthyNRoXvAVXB1tbWvIXxWPXhWm0/G1i/33fHx8eR3729PcepARcaYBZ9uFbbzwp2eHgY+ZWgEHgwrT7aVDnIAubLrOXl5cgtySNNHAis+mhT5eA/2FsPioqftJ6eGHPSL1yr/i3fZfeynNja2prrdDoFH8xxLzWrPl2vGWcBozjG/NU7BiCdC3XpvTK9389yzQJGQDStWfXafUNdFjCqCF9NhJv7rJj+frPqwz21/SxgQFFOPT4+Rn5JJrzLUjCrPtpUOcgCxgkAdXd3V3ALVJotrfrCpoqJLGA3NzduOBy6y8vLyOX29rbb2dlxXEOz6sO12n4WMEqk8/NzsVZsNpsFMKteCxPqsoBxAhcXF+7o6Cjc2wHFiaVm1afrNeMsYNR+VBkkitCkH5nct+rDPbX9rGCrq6uR3/fAtPpoU+UgCxiZr+zE0lRPXFa9kiWSZQFrtVqltSL3UrPq0/WacRYwSiQK3rT2A0Aqtax6DUiqyQYmAaTO/BitRe/XWa4mMP5kdn9/725vby0+Pq3FJ74tZgKjFMLJbDaz+Pi0Fp/4tpgJjKdGsbvoE8Pnl57YdDp1g8HA8uCyaPGJb4uZTsyXQtR6izSg8G0xExgOrE/OEkxOrQjmf0NRxFbZ+J0nVTbE/G+BUX1TqVf9xIiRWCUTT4xSqN1uS/pKzRGjVIsSpAjmyx1/rRRNEExZLYqk9vpvBoV/6wvWftuu/AH9tji/A/9rwX4CoNKbBezrnxIAAAAASUVORK5CYII=;" vertex="1" parent="gNoDSgEm0qHazXfeq4_1-156">
          <mxGeometry x="20" y="20" width="21.6" height="20" as="geometry" />
        </mxCell>
        <mxCell id="gNoDSgEm0qHazXfeq4_1-160" value="" style="group" vertex="1" connectable="0" parent="1">
          <mxGeometry x="928.1" y="280" width="60.00000000000003" height="60" as="geometry" />
        </mxCell>
        <mxCell id="gNoDSgEm0qHazXfeq4_1-161" value="" style="whiteSpace=wrap;html=1;fillColor=#E1D5E7;" vertex="1" parent="gNoDSgEm0qHazXfeq4_1-160">
          <mxGeometry width="60" height="60" as="geometry" />
        </mxCell>
        <mxCell id="gNoDSgEm0qHazXfeq4_1-162" value="" style="group" vertex="1" connectable="0" parent="gNoDSgEm0qHazXfeq4_1-160">
          <mxGeometry x="9.200000000000017" y="10" width="41.60000000000002" height="40" as="geometry" />
        </mxCell>
        <mxCell id="gNoDSgEm0qHazXfeq4_1-163" value="" style="shape=image;verticalLabelPosition=bottom;labelBackgroundColor=default;verticalAlign=top;aspect=fixed;imageAspect=0;image=data:image/png,iVBORw0KGgoAAAANSUhEUgAAADYAAAAyCAYAAAAX1CjLAAABV2lDQ1BJQ0MgUHJvZmlsZQAAKJFtkE9LAlEUxY+l2R+LiJZGrsLFJKEGrQIzsEhonEwqWjSO0yiM0+s5EVIfon20a9O+IFy1a9MuKILW9QEECUqm+5xKrR5czo/DeZfLAXr6VcZML4CyZXMltRDa2NwK+V/RhwH4EERY1SosIctpiuBbu1/jAR6h99NiF3JHmZcLe/Jy/iqTG1mt/813vcGCXtFIP2giGuM24JGI5UObCT4mHud0FPGJYMPlc8F5l69bmaySJL4jHtWKaoH4mVjKd/hGB5fNA+3rBnF9QLfW10jHaIJII4UQlrAIhTSOFern/3y8lU9iDwxVcJRgoAibfiXIYTChEy/DgoYIJOIoZmhiouff/bW96iMwlyHYbnvZJ6AmA0OnbS88BQzvALezTOXqT6uehreyG4u6HOCA781x6hOAvwY0ueO8nzlOkzrspZ03+5+MAWDdKoYYuwAAAFZlWElmTU0AKgAAAAgAAYdpAAQAAAABAAAAGgAAAAAAA5KGAAcAAAASAAAARKACAAQAAAABAAAANqADAAQAAAABAAAAMgAAAABBU0NJSQAAAFNjcmVlbnNob3SLWX11AAAB1GlUWHRYTUw6Y29tLmFkb2JlLnhtcAAAAAAAPHg6eG1wbWV0YSB4bWxuczp4PSJhZG9iZTpuczptZXRhLyIgeDp4bXB0az0iWE1QIENvcmUgNi4wLjAiPgogICA8cmRmOlJERiB4bWxuczpyZGY9Imh0dHA6Ly93d3cudzMub3JnLzE5OTkvMDIvMjItcmRmLXN5bnRheC1ucyMiPgogICAgICA8cmRmOkRlc2NyaXB0aW9uIHJkZjphYm91dD0iIgogICAgICAgICAgICB4bWxuczpleGlmPSJodHRwOi8vbnMuYWRvYmUuY29tL2V4aWYvMS4wLyI+CiAgICAgICAgIDxleGlmOlBpeGVsWURpbWVuc2lvbj41MDwvZXhpZjpQaXhlbFlEaW1lbnNpb24+CiAgICAgICAgIDxleGlmOlBpeGVsWERpbWVuc2lvbj41NDwvZXhpZjpQaXhlbFhEaW1lbnNpb24+CiAgICAgICAgIDxleGlmOlVzZXJDb21tZW50PlNjcmVlbnNob3Q8L2V4aWY6VXNlckNvbW1lbnQ+CiAgICAgIDwvcmRmOkRlc2NyaXB0aW9uPgogICA8L3JkZjpSREY+CjwveDp4bXBtZXRhPgoow1cUAAADiUlEQVRoBe2a/04iMRDHi6DyBGjirxcgEKLv4DMb4xtooigPgEiC8jfG33d+yDXXdmd1Riu33t0kzbbdbzvz2cLsYKz9eDWXGFMvLy9OuJUo/+ywVqu5paUlxzW1RjrBGCja8/OzdLsyc/V6fR6Lv4aBiWCcFFBPT0+htpJ96bQIVAS7vr52V1dX81ZJml9BbW5uOtrGxkYhTBFsMpm409NTd3JyUlhQpYnd3V3XaDRsYGdnZ+7g4KBKHIVYgOLEJBNPTBIyx+fZtzLNV8zznfdNu78ZjPQqZSGtw4/oSGTW148ZDKhFg/EwrO9UE9j6+vr8iyploY+chHbNeDx2vmnXmMF6vZ4jGy3SyM58HIHTmhms2+26/f197f5ZdBQKvFctZgIr29iXYFxDI9H4Fs5b9eFabT8bGE81rS1JMrxrgAsNMIs+XKvtZwMD6uHhIfK7srJSgEIAmEUfbaocZAGjthyNRoXvAVXB1tbWvIXxWPXhWm0/G1i/33fHx8eR3729PcepARcaYBZ9uFbbzwp2eHgY+ZWgEHgwrT7aVDnIAubLrOXl5cgtySNNHAis+mhT5eA/2FsPioqftJ6eGHPSL1yr/i3fZfeynNja2prrdDoFH8xxLzWrPl2vGWcBozjG/NU7BiCdC3XpvTK9389yzQJGQDStWfXafUNdFjCqCF9NhJv7rJj+frPqwz21/SxgQFFOPT4+Rn5JJrzLUjCrPtpUOcgCxgkAdXd3V3ALVJotrfrCpoqJLGA3NzduOBy6y8vLyOX29rbb2dlxXEOz6sO12n4WMEqk8/NzsVZsNpsFMKteCxPqsoBxAhcXF+7o6Cjc2wHFiaVm1afrNeMsYNR+VBkkitCkH5nct+rDPbX9rGCrq6uR3/fAtPpoU+UgCxiZr+zE0lRPXFa9kiWSZQFrtVqltSL3UrPq0/WacRYwSiQK3rT2A0Aqtax6DUiqyQYmAaTO/BitRe/XWa4mMP5kdn9/725vby0+Pq3FJ74tZgKjFMLJbDaz+Pi0Fp/4tpgJjKdGsbvoE8Pnl57YdDp1g8HA8uCyaPGJb4uZTsyXQtR6izSg8G0xExgOrE/OEkxOrQjmf0NRxFbZ+J0nVTbE/G+BUX1TqVf9xIiRWCUTT4xSqN1uS/pKzRGjVIsSpAjmyx1/rRRNEExZLYqk9vpvBoV/6wvWftuu/AH9tji/A/9rwX4CoNKbBezrnxIAAAAASUVORK5CYII=;" vertex="1" parent="gNoDSgEm0qHazXfeq4_1-162">
          <mxGeometry width="21.6" height="20" as="geometry" />
        </mxCell>
        <mxCell id="gNoDSgEm0qHazXfeq4_1-164" value="" style="shape=image;verticalLabelPosition=bottom;labelBackgroundColor=default;verticalAlign=top;aspect=fixed;imageAspect=0;image=data:image/png,iVBORw0KGgoAAAANSUhEUgAAADYAAAAyCAYAAAAX1CjLAAABV2lDQ1BJQ0MgUHJvZmlsZQAAKJFtkE9LAlEUxY+l2R+LiJZGrsLFJKEGrQIzsEhonEwqWjSO0yiM0+s5EVIfon20a9O+IFy1a9MuKILW9QEECUqm+5xKrR5czo/DeZfLAXr6VcZML4CyZXMltRDa2NwK+V/RhwH4EERY1SosIctpiuBbu1/jAR6h99NiF3JHmZcLe/Jy/iqTG1mt/813vcGCXtFIP2giGuM24JGI5UObCT4mHud0FPGJYMPlc8F5l69bmaySJL4jHtWKaoH4mVjKd/hGB5fNA+3rBnF9QLfW10jHaIJII4UQlrAIhTSOFern/3y8lU9iDwxVcJRgoAibfiXIYTChEy/DgoYIJOIoZmhiouff/bW96iMwlyHYbnvZJ6AmA0OnbS88BQzvALezTOXqT6uehreyG4u6HOCA781x6hOAvwY0ueO8nzlOkzrspZ03+5+MAWDdKoYYuwAAAFZlWElmTU0AKgAAAAgAAYdpAAQAAAABAAAAGgAAAAAAA5KGAAcAAAASAAAARKACAAQAAAABAAAANqADAAQAAAABAAAAMgAAAABBU0NJSQAAAFNjcmVlbnNob3SLWX11AAAB1GlUWHRYTUw6Y29tLmFkb2JlLnhtcAAAAAAAPHg6eG1wbWV0YSB4bWxuczp4PSJhZG9iZTpuczptZXRhLyIgeDp4bXB0az0iWE1QIENvcmUgNi4wLjAiPgogICA8cmRmOlJERiB4bWxuczpyZGY9Imh0dHA6Ly93d3cudzMub3JnLzE5OTkvMDIvMjItcmRmLXN5bnRheC1ucyMiPgogICAgICA8cmRmOkRlc2NyaXB0aW9uIHJkZjphYm91dD0iIgogICAgICAgICAgICB4bWxuczpleGlmPSJodHRwOi8vbnMuYWRvYmUuY29tL2V4aWYvMS4wLyI+CiAgICAgICAgIDxleGlmOlBpeGVsWURpbWVuc2lvbj41MDwvZXhpZjpQaXhlbFlEaW1lbnNpb24+CiAgICAgICAgIDxleGlmOlBpeGVsWERpbWVuc2lvbj41NDwvZXhpZjpQaXhlbFhEaW1lbnNpb24+CiAgICAgICAgIDxleGlmOlVzZXJDb21tZW50PlNjcmVlbnNob3Q8L2V4aWY6VXNlckNvbW1lbnQ+CiAgICAgIDwvcmRmOkRlc2NyaXB0aW9uPgogICA8L3JkZjpSREY+CjwveDp4bXBtZXRhPgoow1cUAAADiUlEQVRoBe2a/04iMRDHi6DyBGjirxcgEKLv4DMb4xtooigPgEiC8jfG33d+yDXXdmd1Riu33t0kzbbdbzvz2cLsYKz9eDWXGFMvLy9OuJUo/+ywVqu5paUlxzW1RjrBGCja8/OzdLsyc/V6fR6Lv4aBiWCcFFBPT0+htpJ96bQIVAS7vr52V1dX81ZJml9BbW5uOtrGxkYhTBFsMpm409NTd3JyUlhQpYnd3V3XaDRsYGdnZ+7g4KBKHIVYgOLEJBNPTBIyx+fZtzLNV8zznfdNu78ZjPQqZSGtw4/oSGTW148ZDKhFg/EwrO9UE9j6+vr8iyploY+chHbNeDx2vmnXmMF6vZ4jGy3SyM58HIHTmhms2+26/f197f5ZdBQKvFctZgIr29iXYFxDI9H4Fs5b9eFabT8bGE81rS1JMrxrgAsNMIs+XKvtZwMD6uHhIfK7srJSgEIAmEUfbaocZAGjthyNRoXvAVXB1tbWvIXxWPXhWm0/G1i/33fHx8eR3729PcepARcaYBZ9uFbbzwp2eHgY+ZWgEHgwrT7aVDnIAubLrOXl5cgtySNNHAis+mhT5eA/2FsPioqftJ6eGHPSL1yr/i3fZfeynNja2prrdDoFH8xxLzWrPl2vGWcBozjG/NU7BiCdC3XpvTK9389yzQJGQDStWfXafUNdFjCqCF9NhJv7rJj+frPqwz21/SxgQFFOPT4+Rn5JJrzLUjCrPtpUOcgCxgkAdXd3V3ALVJotrfrCpoqJLGA3NzduOBy6y8vLyOX29rbb2dlxXEOz6sO12n4WMEqk8/NzsVZsNpsFMKteCxPqsoBxAhcXF+7o6Cjc2wHFiaVm1afrNeMsYNR+VBkkitCkH5nct+rDPbX9rGCrq6uR3/fAtPpoU+UgCxiZr+zE0lRPXFa9kiWSZQFrtVqltSL3UrPq0/WacRYwSiQK3rT2A0Aqtax6DUiqyQYmAaTO/BitRe/XWa4mMP5kdn9/725vby0+Pq3FJ74tZgKjFMLJbDaz+Pi0Fp/4tpgJjKdGsbvoE8Pnl57YdDp1g8HA8uCyaPGJb4uZTsyXQtR6izSg8G0xExgOrE/OEkxOrQjmf0NRxFbZ+J0nVTbE/G+BUX1TqVf9xIiRWCUTT4xSqN1uS/pKzRGjVIsSpAjmyx1/rRRNEExZLYqk9vpvBoV/6wvWftuu/AH9tji/A/9rwX4CoNKbBezrnxIAAAAASUVORK5CYII=;" vertex="1" parent="gNoDSgEm0qHazXfeq4_1-162">
          <mxGeometry x="10" y="10" width="21.6" height="20" as="geometry" />
        </mxCell>
        <mxCell id="gNoDSgEm0qHazXfeq4_1-165" value="" style="shape=image;verticalLabelPosition=bottom;labelBackgroundColor=default;verticalAlign=top;aspect=fixed;imageAspect=0;image=data:image/png,iVBORw0KGgoAAAANSUhEUgAAADYAAAAyCAYAAAAX1CjLAAABV2lDQ1BJQ0MgUHJvZmlsZQAAKJFtkE9LAlEUxY+l2R+LiJZGrsLFJKEGrQIzsEhonEwqWjSO0yiM0+s5EVIfon20a9O+IFy1a9MuKILW9QEECUqm+5xKrR5czo/DeZfLAXr6VcZML4CyZXMltRDa2NwK+V/RhwH4EERY1SosIctpiuBbu1/jAR6h99NiF3JHmZcLe/Jy/iqTG1mt/813vcGCXtFIP2giGuM24JGI5UObCT4mHud0FPGJYMPlc8F5l69bmaySJL4jHtWKaoH4mVjKd/hGB5fNA+3rBnF9QLfW10jHaIJII4UQlrAIhTSOFern/3y8lU9iDwxVcJRgoAibfiXIYTChEy/DgoYIJOIoZmhiouff/bW96iMwlyHYbnvZJ6AmA0OnbS88BQzvALezTOXqT6uehreyG4u6HOCA781x6hOAvwY0ueO8nzlOkzrspZ03+5+MAWDdKoYYuwAAAFZlWElmTU0AKgAAAAgAAYdpAAQAAAABAAAAGgAAAAAAA5KGAAcAAAASAAAARKACAAQAAAABAAAANqADAAQAAAABAAAAMgAAAABBU0NJSQAAAFNjcmVlbnNob3SLWX11AAAB1GlUWHRYTUw6Y29tLmFkb2JlLnhtcAAAAAAAPHg6eG1wbWV0YSB4bWxuczp4PSJhZG9iZTpuczptZXRhLyIgeDp4bXB0az0iWE1QIENvcmUgNi4wLjAiPgogICA8cmRmOlJERiB4bWxuczpyZGY9Imh0dHA6Ly93d3cudzMub3JnLzE5OTkvMDIvMjItcmRmLXN5bnRheC1ucyMiPgogICAgICA8cmRmOkRlc2NyaXB0aW9uIHJkZjphYm91dD0iIgogICAgICAgICAgICB4bWxuczpleGlmPSJodHRwOi8vbnMuYWRvYmUuY29tL2V4aWYvMS4wLyI+CiAgICAgICAgIDxleGlmOlBpeGVsWURpbWVuc2lvbj41MDwvZXhpZjpQaXhlbFlEaW1lbnNpb24+CiAgICAgICAgIDxleGlmOlBpeGVsWERpbWVuc2lvbj41NDwvZXhpZjpQaXhlbFhEaW1lbnNpb24+CiAgICAgICAgIDxleGlmOlVzZXJDb21tZW50PlNjcmVlbnNob3Q8L2V4aWY6VXNlckNvbW1lbnQ+CiAgICAgIDwvcmRmOkRlc2NyaXB0aW9uPgogICA8L3JkZjpSREY+CjwveDp4bXBtZXRhPgoow1cUAAADiUlEQVRoBe2a/04iMRDHi6DyBGjirxcgEKLv4DMb4xtooigPgEiC8jfG33d+yDXXdmd1Riu33t0kzbbdbzvz2cLsYKz9eDWXGFMvLy9OuJUo/+ywVqu5paUlxzW1RjrBGCja8/OzdLsyc/V6fR6Lv4aBiWCcFFBPT0+htpJ96bQIVAS7vr52V1dX81ZJml9BbW5uOtrGxkYhTBFsMpm409NTd3JyUlhQpYnd3V3XaDRsYGdnZ+7g4KBKHIVYgOLEJBNPTBIyx+fZtzLNV8zznfdNu78ZjPQqZSGtw4/oSGTW148ZDKhFg/EwrO9UE9j6+vr8iyploY+chHbNeDx2vmnXmMF6vZ4jGy3SyM58HIHTmhms2+26/f197f5ZdBQKvFctZgIr29iXYFxDI9H4Fs5b9eFabT8bGE81rS1JMrxrgAsNMIs+XKvtZwMD6uHhIfK7srJSgEIAmEUfbaocZAGjthyNRoXvAVXB1tbWvIXxWPXhWm0/G1i/33fHx8eR3729PcepARcaYBZ9uFbbzwp2eHgY+ZWgEHgwrT7aVDnIAubLrOXl5cgtySNNHAis+mhT5eA/2FsPioqftJ6eGHPSL1yr/i3fZfeynNja2prrdDoFH8xxLzWrPl2vGWcBozjG/NU7BiCdC3XpvTK9389yzQJGQDStWfXafUNdFjCqCF9NhJv7rJj+frPqwz21/SxgQFFOPT4+Rn5JJrzLUjCrPtpUOcgCxgkAdXd3V3ALVJotrfrCpoqJLGA3NzduOBy6y8vLyOX29rbb2dlxXEOz6sO12n4WMEqk8/NzsVZsNpsFMKteCxPqsoBxAhcXF+7o6Cjc2wHFiaVm1afrNeMsYNR+VBkkitCkH5nct+rDPbX9rGCrq6uR3/fAtPpoU+UgCxiZr+zE0lRPXFa9kiWSZQFrtVqltSL3UrPq0/WacRYwSiQK3rT2A0Aqtax6DUiqyQYmAaTO/BitRe/XWa4mMP5kdn9/725vby0+Pq3FJ74tZgKjFMLJbDaz+Pi0Fp/4tpgJjKdGsbvoE8Pnl57YdDp1g8HA8uCyaPGJb4uZTsyXQtR6izSg8G0xExgOrE/OEkxOrQjmf0NRxFbZ+J0nVTbE/G+BUX1TqVf9xIiRWCUTT4xSqN1uS/pKzRGjVIsSpAjmyx1/rRRNEExZLYqk9vpvBoV/6wvWftuu/AH9tji/A/9rwX4CoNKbBezrnxIAAAAASUVORK5CYII=;" vertex="1" parent="gNoDSgEm0qHazXfeq4_1-162">
          <mxGeometry x="20" y="20" width="21.6" height="20" as="geometry" />
        </mxCell>
        <mxCell id="gNoDSgEm0qHazXfeq4_1-166" value="" style="group" vertex="1" connectable="0" parent="1">
          <mxGeometry x="928.1" y="480" width="60.00000000000003" height="60" as="geometry" />
        </mxCell>
        <mxCell id="gNoDSgEm0qHazXfeq4_1-167" value="" style="whiteSpace=wrap;html=1;fillColor=#E1D5E7;" vertex="1" parent="gNoDSgEm0qHazXfeq4_1-166">
          <mxGeometry width="60" height="60" as="geometry" />
        </mxCell>
        <mxCell id="gNoDSgEm0qHazXfeq4_1-168" value="" style="group" vertex="1" connectable="0" parent="gNoDSgEm0qHazXfeq4_1-166">
          <mxGeometry x="9.200000000000017" y="10" width="41.60000000000002" height="40" as="geometry" />
        </mxCell>
        <mxCell id="gNoDSgEm0qHazXfeq4_1-169" value="" style="shape=image;verticalLabelPosition=bottom;labelBackgroundColor=default;verticalAlign=top;aspect=fixed;imageAspect=0;image=data:image/png,iVBORw0KGgoAAAANSUhEUgAAADYAAAAyCAYAAAAX1CjLAAABV2lDQ1BJQ0MgUHJvZmlsZQAAKJFtkE9LAlEUxY+l2R+LiJZGrsLFJKEGrQIzsEhonEwqWjSO0yiM0+s5EVIfon20a9O+IFy1a9MuKILW9QEECUqm+5xKrR5czo/DeZfLAXr6VcZML4CyZXMltRDa2NwK+V/RhwH4EERY1SosIctpiuBbu1/jAR6h99NiF3JHmZcLe/Jy/iqTG1mt/813vcGCXtFIP2giGuM24JGI5UObCT4mHud0FPGJYMPlc8F5l69bmaySJL4jHtWKaoH4mVjKd/hGB5fNA+3rBnF9QLfW10jHaIJII4UQlrAIhTSOFern/3y8lU9iDwxVcJRgoAibfiXIYTChEy/DgoYIJOIoZmhiouff/bW96iMwlyHYbnvZJ6AmA0OnbS88BQzvALezTOXqT6uehreyG4u6HOCA781x6hOAvwY0ueO8nzlOkzrspZ03+5+MAWDdKoYYuwAAAFZlWElmTU0AKgAAAAgAAYdpAAQAAAABAAAAGgAAAAAAA5KGAAcAAAASAAAARKACAAQAAAABAAAANqADAAQAAAABAAAAMgAAAABBU0NJSQAAAFNjcmVlbnNob3SLWX11AAAB1GlUWHRYTUw6Y29tLmFkb2JlLnhtcAAAAAAAPHg6eG1wbWV0YSB4bWxuczp4PSJhZG9iZTpuczptZXRhLyIgeDp4bXB0az0iWE1QIENvcmUgNi4wLjAiPgogICA8cmRmOlJERiB4bWxuczpyZGY9Imh0dHA6Ly93d3cudzMub3JnLzE5OTkvMDIvMjItcmRmLXN5bnRheC1ucyMiPgogICAgICA8cmRmOkRlc2NyaXB0aW9uIHJkZjphYm91dD0iIgogICAgICAgICAgICB4bWxuczpleGlmPSJodHRwOi8vbnMuYWRvYmUuY29tL2V4aWYvMS4wLyI+CiAgICAgICAgIDxleGlmOlBpeGVsWURpbWVuc2lvbj41MDwvZXhpZjpQaXhlbFlEaW1lbnNpb24+CiAgICAgICAgIDxleGlmOlBpeGVsWERpbWVuc2lvbj41NDwvZXhpZjpQaXhlbFhEaW1lbnNpb24+CiAgICAgICAgIDxleGlmOlVzZXJDb21tZW50PlNjcmVlbnNob3Q8L2V4aWY6VXNlckNvbW1lbnQ+CiAgICAgIDwvcmRmOkRlc2NyaXB0aW9uPgogICA8L3JkZjpSREY+CjwveDp4bXBtZXRhPgoow1cUAAADiUlEQVRoBe2a/04iMRDHi6DyBGjirxcgEKLv4DMb4xtooigPgEiC8jfG33d+yDXXdmd1Riu33t0kzbbdbzvz2cLsYKz9eDWXGFMvLy9OuJUo/+ywVqu5paUlxzW1RjrBGCja8/OzdLsyc/V6fR6Lv4aBiWCcFFBPT0+htpJ96bQIVAS7vr52V1dX81ZJml9BbW5uOtrGxkYhTBFsMpm409NTd3JyUlhQpYnd3V3XaDRsYGdnZ+7g4KBKHIVYgOLEJBNPTBIyx+fZtzLNV8zznfdNu78ZjPQqZSGtw4/oSGTW148ZDKhFg/EwrO9UE9j6+vr8iyploY+chHbNeDx2vmnXmMF6vZ4jGy3SyM58HIHTmhms2+26/f197f5ZdBQKvFctZgIr29iXYFxDI9H4Fs5b9eFabT8bGE81rS1JMrxrgAsNMIs+XKvtZwMD6uHhIfK7srJSgEIAmEUfbaocZAGjthyNRoXvAVXB1tbWvIXxWPXhWm0/G1i/33fHx8eR3729PcepARcaYBZ9uFbbzwp2eHgY+ZWgEHgwrT7aVDnIAubLrOXl5cgtySNNHAis+mhT5eA/2FsPioqftJ6eGHPSL1yr/i3fZfeynNja2prrdDoFH8xxLzWrPl2vGWcBozjG/NU7BiCdC3XpvTK9389yzQJGQDStWfXafUNdFjCqCF9NhJv7rJj+frPqwz21/SxgQFFOPT4+Rn5JJrzLUjCrPtpUOcgCxgkAdXd3V3ALVJotrfrCpoqJLGA3NzduOBy6y8vLyOX29rbb2dlxXEOz6sO12n4WMEqk8/NzsVZsNpsFMKteCxPqsoBxAhcXF+7o6Cjc2wHFiaVm1afrNeMsYNR+VBkkitCkH5nct+rDPbX9rGCrq6uR3/fAtPpoU+UgCxiZr+zE0lRPXFa9kiWSZQFrtVqltSL3UrPq0/WacRYwSiQK3rT2A0Aqtax6DUiqyQYmAaTO/BitRe/XWa4mMP5kdn9/725vby0+Pq3FJ74tZgKjFMLJbDaz+Pi0Fp/4tpgJjKdGsbvoE8Pnl57YdDp1g8HA8uCyaPGJb4uZTsyXQtR6izSg8G0xExgOrE/OEkxOrQjmf0NRxFbZ+J0nVTbE/G+BUX1TqVf9xIiRWCUTT4xSqN1uS/pKzRGjVIsSpAjmyx1/rRRNEExZLYqk9vpvBoV/6wvWftuu/AH9tji/A/9rwX4CoNKbBezrnxIAAAAASUVORK5CYII=;" vertex="1" parent="gNoDSgEm0qHazXfeq4_1-168">
          <mxGeometry width="21.6" height="20" as="geometry" />
        </mxCell>
        <mxCell id="gNoDSgEm0qHazXfeq4_1-170" value="" style="shape=image;verticalLabelPosition=bottom;labelBackgroundColor=default;verticalAlign=top;aspect=fixed;imageAspect=0;image=data:image/png,iVBORw0KGgoAAAANSUhEUgAAADYAAAAyCAYAAAAX1CjLAAABV2lDQ1BJQ0MgUHJvZmlsZQAAKJFtkE9LAlEUxY+l2R+LiJZGrsLFJKEGrQIzsEhonEwqWjSO0yiM0+s5EVIfon20a9O+IFy1a9MuKILW9QEECUqm+5xKrR5czo/DeZfLAXr6VcZML4CyZXMltRDa2NwK+V/RhwH4EERY1SosIctpiuBbu1/jAR6h99NiF3JHmZcLe/Jy/iqTG1mt/813vcGCXtFIP2giGuM24JGI5UObCT4mHud0FPGJYMPlc8F5l69bmaySJL4jHtWKaoH4mVjKd/hGB5fNA+3rBnF9QLfW10jHaIJII4UQlrAIhTSOFern/3y8lU9iDwxVcJRgoAibfiXIYTChEy/DgoYIJOIoZmhiouff/bW96iMwlyHYbnvZJ6AmA0OnbS88BQzvALezTOXqT6uehreyG4u6HOCA781x6hOAvwY0ueO8nzlOkzrspZ03+5+MAWDdKoYYuwAAAFZlWElmTU0AKgAAAAgAAYdpAAQAAAABAAAAGgAAAAAAA5KGAAcAAAASAAAARKACAAQAAAABAAAANqADAAQAAAABAAAAMgAAAABBU0NJSQAAAFNjcmVlbnNob3SLWX11AAAB1GlUWHRYTUw6Y29tLmFkb2JlLnhtcAAAAAAAPHg6eG1wbWV0YSB4bWxuczp4PSJhZG9iZTpuczptZXRhLyIgeDp4bXB0az0iWE1QIENvcmUgNi4wLjAiPgogICA8cmRmOlJERiB4bWxuczpyZGY9Imh0dHA6Ly93d3cudzMub3JnLzE5OTkvMDIvMjItcmRmLXN5bnRheC1ucyMiPgogICAgICA8cmRmOkRlc2NyaXB0aW9uIHJkZjphYm91dD0iIgogICAgICAgICAgICB4bWxuczpleGlmPSJodHRwOi8vbnMuYWRvYmUuY29tL2V4aWYvMS4wLyI+CiAgICAgICAgIDxleGlmOlBpeGVsWURpbWVuc2lvbj41MDwvZXhpZjpQaXhlbFlEaW1lbnNpb24+CiAgICAgICAgIDxleGlmOlBpeGVsWERpbWVuc2lvbj41NDwvZXhpZjpQaXhlbFhEaW1lbnNpb24+CiAgICAgICAgIDxleGlmOlVzZXJDb21tZW50PlNjcmVlbnNob3Q8L2V4aWY6VXNlckNvbW1lbnQ+CiAgICAgIDwvcmRmOkRlc2NyaXB0aW9uPgogICA8L3JkZjpSREY+CjwveDp4bXBtZXRhPgoow1cUAAADiUlEQVRoBe2a/04iMRDHi6DyBGjirxcgEKLv4DMb4xtooigPgEiC8jfG33d+yDXXdmd1Riu33t0kzbbdbzvz2cLsYKz9eDWXGFMvLy9OuJUo/+ywVqu5paUlxzW1RjrBGCja8/OzdLsyc/V6fR6Lv4aBiWCcFFBPT0+htpJ96bQIVAS7vr52V1dX81ZJml9BbW5uOtrGxkYhTBFsMpm409NTd3JyUlhQpYnd3V3XaDRsYGdnZ+7g4KBKHIVYgOLEJBNPTBIyx+fZtzLNV8zznfdNu78ZjPQqZSGtw4/oSGTW148ZDKhFg/EwrO9UE9j6+vr8iyploY+chHbNeDx2vmnXmMF6vZ4jGy3SyM58HIHTmhms2+26/f197f5ZdBQKvFctZgIr29iXYFxDI9H4Fs5b9eFabT8bGE81rS1JMrxrgAsNMIs+XKvtZwMD6uHhIfK7srJSgEIAmEUfbaocZAGjthyNRoXvAVXB1tbWvIXxWPXhWm0/G1i/33fHx8eR3729PcepARcaYBZ9uFbbzwp2eHgY+ZWgEHgwrT7aVDnIAubLrOXl5cgtySNNHAis+mhT5eA/2FsPioqftJ6eGHPSL1yr/i3fZfeynNja2prrdDoFH8xxLzWrPl2vGWcBozjG/NU7BiCdC3XpvTK9389yzQJGQDStWfXafUNdFjCqCF9NhJv7rJj+frPqwz21/SxgQFFOPT4+Rn5JJrzLUjCrPtpUOcgCxgkAdXd3V3ALVJotrfrCpoqJLGA3NzduOBy6y8vLyOX29rbb2dlxXEOz6sO12n4WMEqk8/NzsVZsNpsFMKteCxPqsoBxAhcXF+7o6Cjc2wHFiaVm1afrNeMsYNR+VBkkitCkH5nct+rDPbX9rGCrq6uR3/fAtPpoU+UgCxiZr+zE0lRPXFa9kiWSZQFrtVqltSL3UrPq0/WacRYwSiQK3rT2A0Aqtax6DUiqyQYmAaTO/BitRe/XWa4mMP5kdn9/725vby0+Pq3FJ74tZgKjFMLJbDaz+Pi0Fp/4tpgJjKdGsbvoE8Pnl57YdDp1g8HA8uCyaPGJb4uZTsyXQtR6izSg8G0xExgOrE/OEkxOrQjmf0NRxFbZ+J0nVTbE/G+BUX1TqVf9xIiRWCUTT4xSqN1uS/pKzRGjVIsSpAjmyx1/rRRNEExZLYqk9vpvBoV/6wvWftuu/AH9tji/A/9rwX4CoNKbBezrnxIAAAAASUVORK5CYII=;" vertex="1" parent="gNoDSgEm0qHazXfeq4_1-168">
          <mxGeometry x="10" y="10" width="21.6" height="20" as="geometry" />
        </mxCell>
        <mxCell id="gNoDSgEm0qHazXfeq4_1-171" value="" style="shape=image;verticalLabelPosition=bottom;labelBackgroundColor=default;verticalAlign=top;aspect=fixed;imageAspect=0;image=data:image/png,iVBORw0KGgoAAAANSUhEUgAAADYAAAAyCAYAAAAX1CjLAAABV2lDQ1BJQ0MgUHJvZmlsZQAAKJFtkE9LAlEUxY+l2R+LiJZGrsLFJKEGrQIzsEhonEwqWjSO0yiM0+s5EVIfon20a9O+IFy1a9MuKILW9QEECUqm+5xKrR5czo/DeZfLAXr6VcZML4CyZXMltRDa2NwK+V/RhwH4EERY1SosIctpiuBbu1/jAR6h99NiF3JHmZcLe/Jy/iqTG1mt/813vcGCXtFIP2giGuM24JGI5UObCT4mHud0FPGJYMPlc8F5l69bmaySJL4jHtWKaoH4mVjKd/hGB5fNA+3rBnF9QLfW10jHaIJII4UQlrAIhTSOFern/3y8lU9iDwxVcJRgoAibfiXIYTChEy/DgoYIJOIoZmhiouff/bW96iMwlyHYbnvZJ6AmA0OnbS88BQzvALezTOXqT6uehreyG4u6HOCA781x6hOAvwY0ueO8nzlOkzrspZ03+5+MAWDdKoYYuwAAAFZlWElmTU0AKgAAAAgAAYdpAAQAAAABAAAAGgAAAAAAA5KGAAcAAAASAAAARKACAAQAAAABAAAANqADAAQAAAABAAAAMgAAAABBU0NJSQAAAFNjcmVlbnNob3SLWX11AAAB1GlUWHRYTUw6Y29tLmFkb2JlLnhtcAAAAAAAPHg6eG1wbWV0YSB4bWxuczp4PSJhZG9iZTpuczptZXRhLyIgeDp4bXB0az0iWE1QIENvcmUgNi4wLjAiPgogICA8cmRmOlJERiB4bWxuczpyZGY9Imh0dHA6Ly93d3cudzMub3JnLzE5OTkvMDIvMjItcmRmLXN5bnRheC1ucyMiPgogICAgICA8cmRmOkRlc2NyaXB0aW9uIHJkZjphYm91dD0iIgogICAgICAgICAgICB4bWxuczpleGlmPSJodHRwOi8vbnMuYWRvYmUuY29tL2V4aWYvMS4wLyI+CiAgICAgICAgIDxleGlmOlBpeGVsWURpbWVuc2lvbj41MDwvZXhpZjpQaXhlbFlEaW1lbnNpb24+CiAgICAgICAgIDxleGlmOlBpeGVsWERpbWVuc2lvbj41NDwvZXhpZjpQaXhlbFhEaW1lbnNpb24+CiAgICAgICAgIDxleGlmOlVzZXJDb21tZW50PlNjcmVlbnNob3Q8L2V4aWY6VXNlckNvbW1lbnQ+CiAgICAgIDwvcmRmOkRlc2NyaXB0aW9uPgogICA8L3JkZjpSREY+CjwveDp4bXBtZXRhPgoow1cUAAADiUlEQVRoBe2a/04iMRDHi6DyBGjirxcgEKLv4DMb4xtooigPgEiC8jfG33d+yDXXdmd1Riu33t0kzbbdbzvz2cLsYKz9eDWXGFMvLy9OuJUo/+ywVqu5paUlxzW1RjrBGCja8/OzdLsyc/V6fR6Lv4aBiWCcFFBPT0+htpJ96bQIVAS7vr52V1dX81ZJml9BbW5uOtrGxkYhTBFsMpm409NTd3JyUlhQpYnd3V3XaDRsYGdnZ+7g4KBKHIVYgOLEJBNPTBIyx+fZtzLNV8zznfdNu78ZjPQqZSGtw4/oSGTW148ZDKhFg/EwrO9UE9j6+vr8iyploY+chHbNeDx2vmnXmMF6vZ4jGy3SyM58HIHTmhms2+26/f197f5ZdBQKvFctZgIr29iXYFxDI9H4Fs5b9eFabT8bGE81rS1JMrxrgAsNMIs+XKvtZwMD6uHhIfK7srJSgEIAmEUfbaocZAGjthyNRoXvAVXB1tbWvIXxWPXhWm0/G1i/33fHx8eR3729PcepARcaYBZ9uFbbzwp2eHgY+ZWgEHgwrT7aVDnIAubLrOXl5cgtySNNHAis+mhT5eA/2FsPioqftJ6eGHPSL1yr/i3fZfeynNja2prrdDoFH8xxLzWrPl2vGWcBozjG/NU7BiCdC3XpvTK9389yzQJGQDStWfXafUNdFjCqCF9NhJv7rJj+frPqwz21/SxgQFFOPT4+Rn5JJrzLUjCrPtpUOcgCxgkAdXd3V3ALVJotrfrCpoqJLGA3NzduOBy6y8vLyOX29rbb2dlxXEOz6sO12n4WMEqk8/NzsVZsNpsFMKteCxPqsoBxAhcXF+7o6Cjc2wHFiaVm1afrNeMsYNR+VBkkitCkH5nct+rDPbX9rGCrq6uR3/fAtPpoU+UgCxiZr+zE0lRPXFa9kiWSZQFrtVqltSL3UrPq0/WacRYwSiQK3rT2A0Aqtax6DUiqyQYmAaTO/BitRe/XWa4mMP5kdn9/725vby0+Pq3FJ74tZgKjFMLJbDaz+Pi0Fp/4tpgJjKdGsbvoE8Pnl57YdDp1g8HA8uCyaPGJb4uZTsyXQtR6izSg8G0xExgOrE/OEkxOrQjmf0NRxFbZ+J0nVTbE/G+BUX1TqVf9xIiRWCUTT4xSqN1uS/pKzRGjVIsSpAjmyx1/rRRNEExZLYqk9vpvBoV/6wvWftuu/AH9tji/A/9rwX4CoNKbBezrnxIAAAAASUVORK5CYII=;" vertex="1" parent="gNoDSgEm0qHazXfeq4_1-168">
          <mxGeometry x="20" y="20" width="21.6" height="20" as="geometry" />
        </mxCell>
        <mxCell id="gNoDSgEm0qHazXfeq4_1-180" value="" style="whiteSpace=wrap;html=1;fillColor=none;dashed=1;" vertex="1" parent="1">
          <mxGeometry x="-50" y="140" width="460" height="470" as="geometry" />
        </mxCell>
        <mxCell id="gNoDSgEm0qHazXfeq4_1-6" value="" style="strokeColor=#dddddd;shadow=1;strokeWidth=1;rounded=1;absoluteArcSize=1;arcSize=2;" vertex="1" parent="1">
          <mxGeometry x="420.1" y="640" width="130" height="60" as="geometry" />
        </mxCell>
        <mxCell id="gNoDSgEm0qHazXfeq4_1-7" value="Cloud&#xa;Composer" style="editableCssRules=.*;html=1;fontColor=#999999;shape=image;verticalLabelPosition=middle;labelBackgroundColor=#ffffff;verticalAlign=middle;labelPosition=right;align=left;spacingLeft=20;part=1;points=[];imageAspect=0;image=data:image/svg+xml,PHN2ZyB4bWxucz0iaHR0cDovL3d3dy53My5vcmcvMjAwMC9zdmciIHhtbG5zOnY9Imh0dHBzOi8vdmVjdGEuaW8vbmFubyIgd2lkdGg9IjE0LjY0MDAwMDM0MzMyMjc1NCIgaGVpZ2h0PSIyMCIgdmlld0JveD0iMCAwIDE0LjY0MDAwMDM0MzMyMjc1NCAyMCI+JiN4YTsJPHN0eWxlIHR5cGU9InRleHQvY3NzIj4mI3hhOwkuc3Qwe2ZpbGw6I2FlY2JmYTt9JiN4YTsJLnN0MXtmaWxsOiM0Mjg1ZjQ7fSYjeGE7CTwvc3R5bGU+JiN4YTsJPHBhdGggY2xhc3M9InN0MCIgZD0iTTAgMGgxNC42M3YzLjk0aC01LjN2NS4zM0g1LjM1VjMuOTZIMHoiLz4mI3hhOwk8cGF0aCBjbGFzcz0ic3QxIiBkPSJNMy45NSAxMC42N2g1LjM0VjIwSDUuMzV2LTUuMzVIMFY1LjM3aDMuOTV6TTE0LjY0IDIwSDEwLjdWNS4zNmgzLjk0eiIvPiYjeGE7CTxwYXRoIGNsYXNzPSJzdDAiIGQ9Ik0wIDE2LjA2aDMuOTJWMjBIMHoiLz4mI3hhOzwvc3ZnPg==;" vertex="1" parent="gNoDSgEm0qHazXfeq4_1-6">
          <mxGeometry width="22" height="30" relative="1" as="geometry">
            <mxPoint x="19" y="15" as="offset" />
          </mxGeometry>
        </mxCell>
        <mxCell id="gNoDSgEm0qHazXfeq4_1-177" value="" style="shape=curlyBracket;whiteSpace=wrap;html=1;rounded=1;flipH=1;labelPosition=right;verticalLabelPosition=middle;align=left;verticalAlign=middle;rotation=90;" vertex="1" parent="1">
          <mxGeometry x="480" y="55" width="20" height="1150" as="geometry" />
        </mxCell>
        <mxCell id="gNoDSgEm0qHazXfeq4_1-179" value="" style="shape=singleArrow;whiteSpace=wrap;html=1;" vertex="1" parent="1">
          <mxGeometry x="130" y="330" width="100" height="60" as="geometry" />
        </mxCell>
        <mxCell id="gNoDSgEm0qHazXfeq4_1-181" value="Data Ingestion" style="text;html=1;strokeColor=none;fillColor=none;align=center;verticalAlign=middle;whiteSpace=wrap;rounded=0;" vertex="1" parent="1">
          <mxGeometry x="150" y="573" width="60" height="30" as="geometry" />
        </mxCell>
        <mxCell id="gNoDSgEm0qHazXfeq4_1-182" value="" style="whiteSpace=wrap;html=1;fillColor=none;dashed=1;" vertex="1" parent="1">
          <mxGeometry x="470" y="140" width="560" height="470" as="geometry" />
        </mxCell>
        <mxCell id="gNoDSgEm0qHazXfeq4_1-183" value="Data Transformation" style="text;html=1;strokeColor=none;fillColor=none;align=center;verticalAlign=middle;whiteSpace=wrap;rounded=0;" vertex="1" parent="1">
          <mxGeometry x="720" y="573" width="60" height="30" as="geometry" />
        </mxCell>
        <mxCell id="Vn1szXCDn6cTbNEtnB0C-1" value="" style="shape=singleArrow;whiteSpace=wrap;html=1;" vertex="1" parent="1">
          <mxGeometry x="-170" y="328" width="100" height="60" as="geometry" />
        </mxCell>
        <mxCell id="Vn1szXCDn6cTbNEtnB0C-2" value="&lt;h1&gt;RAW&lt;/h1&gt;&lt;p&gt;Data as it is:&lt;br&gt;- Not Parsed, usually all strings&lt;br&gt;- Not Cleaned&lt;br&gt;- Not Deduped&lt;br&gt;- Not optimized, no partitions&lt;/p&gt;&lt;p&gt;&lt;br&gt;&lt;/p&gt;" style="text;html=1;strokeColor=none;fillColor=none;spacing=5;spacingTop=-20;whiteSpace=wrap;overflow=hidden;rounded=0;" vertex="1" parent="1">
          <mxGeometry x="243" y="730" width="190" height="120" as="geometry" />
        </mxCell>
        <mxCell id="Vn1szXCDn6cTbNEtnB0C-3" value="&lt;h1&gt;STAGING&lt;/h1&gt;&lt;p&gt;Curated data:&lt;br&gt;- Parsed, properly typed&lt;br&gt;- Cleaned, no garbage data&lt;br&gt;- Deduped&lt;br&gt;- Optimized, partitioned&lt;br&gt;- Not Aggregated&lt;br&gt;- Limited Availability&lt;br&gt;&lt;/p&gt;&lt;p&gt;&lt;br&gt;&lt;/p&gt;" style="text;html=1;strokeColor=none;fillColor=none;spacing=5;spacingTop=-20;whiteSpace=wrap;overflow=hidden;rounded=0;" vertex="1" parent="1">
          <mxGeometry x="470" y="730" width="160" height="150" as="geometry" />
        </mxCell>
        <mxCell id="Vn1szXCDn6cTbNEtnB0C-4" value="&lt;h1&gt;WD&lt;/h1&gt;&lt;p&gt;Modeled/Aggregated data:&lt;br&gt;- Parsed, properly typed&lt;br&gt;- Cleaned, no garbage data&lt;br&gt;- Deduped&lt;br&gt;- Optimized, partitioned&lt;br&gt;- Aggregated&lt;br&gt;- Limited Availability&lt;br&gt;&lt;br&gt;&lt;/p&gt;&lt;p&gt;&lt;br&gt;&lt;/p&gt;" style="text;html=1;strokeColor=none;fillColor=none;spacing=5;spacingTop=-20;whiteSpace=wrap;overflow=hidden;rounded=0;" vertex="1" parent="1">
          <mxGeometry x="668.1" y="730" width="161.9" height="150" as="geometry" />
        </mxCell>
        <mxCell id="Vn1szXCDn6cTbNEtnB0C-5" value="&lt;h1&gt;MARTS&lt;/h1&gt;&lt;p&gt;Modeled/Aggregated data:&lt;br&gt;- Parsed, properly typed&lt;br&gt;- Cleaned, no garbage data&lt;br&gt;- Deduped&lt;br&gt;- Optimized, partitioned&lt;br&gt;- Aggregated&lt;br&gt;- Available the related BU&lt;br&gt;&lt;br&gt;&lt;/p&gt;&lt;p&gt;&lt;br&gt;&lt;/p&gt;" style="text;html=1;strokeColor=none;fillColor=none;spacing=5;spacingTop=-20;whiteSpace=wrap;overflow=hidden;rounded=0;" vertex="1" parent="1">
          <mxGeometry x="870" y="730" width="160" height="150" as="geometry" />
        </mxCell>
      </root>
    </mxGraphModel>
  </diagram>
</mxfile>
